  0
SECTION
  2
HEADER
  9
$ACADVER
  1
AC1018
  9
$HANDSEED
  5
FFFFFFFF
  9
$ANGBASE
  50
0.0
  9
$ANGDIR
  70
1
  9
$MEASUREMENT
  70
0
  9
$INSUNITS
  70
1
  0
ENDSEC
  0
SECTION
  2
TABLES
  0
TABLE
  2
APPID
  5
1
330
0
100
AcDbSymbolTable
 70
1
  0
APPID
  5
2
330
1
100
AcDbSymbolTableRecord
100
AcDbRegAppTableRecord
  2
ACAD
 70
0
  0
ENDTAB
  0
TABLE
  2
LTYPE
  5
3
330
0
100
AcDbSymbolTable
 70
6
  0
LTYPE
  5
4
330
3
100
AcDbSymbolTableRecord
100
AcDbLinetypeTableRecord
  2
ByBlock
 70
0
  3

 72
65
 73
0
 40
0
  0
LTYPE
  5
5
330
3
100
AcDbSymbolTableRecord
100
AcDbLinetypeTableRecord
  2
ByLayer
 70
0
  3

 72
65
 73
0
 40
0
  0
LTYPE
  5
6
330
3
100
AcDbSymbolTableRecord
100
AcDbLinetypeTableRecord
  2
CONTINUOUS
 70
0
  3
Solid line
 72
65
 73
0
 40
0
  0
LTYPE
  5
7
330
3
100
AcDbSymbolTableRecord
100
AcDbLinetypeTableRecord
  2
DASHDOT
 70
0
  3
Dash Dot ____ _ ____ _
 72
65
 73
4
 40
2
 49
1.25
 74
0
 49
-0.25
 74
0
 49
0.25
 74
0
 49
-0.25
 74
0
  0
LTYPE
  5
8
330
3
100
AcDbSymbolTableRecord
100
AcDbLinetypeTableRecord
  2
DASHED
 70
0
  3
Dashed __ __ __ __ __
 72
65
 73
2
 40
0.75
 49
0.5
 74
0
 49
-0.25
 74
0
  0
LTYPE
  5
9
330
3
100
AcDbSymbolTableRecord
100
AcDbLinetypeTableRecord
  2
DOTTED
 70
0
  3
Dotted .  .  .  .
 72
65
 73
2
 40
0.2
 49
0.0
 74
0
 49
-0.2
 74
0
  0
ENDTAB
  0
TABLE
  2
STYLE
  5
A
330
0
100
AcDbSymbolTable
 70
4
  0
STYLE
  5
B
330
A
100
AcDbSymbolTableRecord
100
AcDbTextStyleTableRecord
  2
KICAD
 70
0
 40
0
 41
1
 42
1
 50
0
 71
0
  3
isocp.shx
  0
STYLE
  5
C
330
A
100
AcDbSymbolTableRecord
100
AcDbTextStyleTableRecord
  2
KICADB
 70
0
 40
0
 41
1
 42
1
 50
0
 71
0
  3
isocp.shx
  0
STYLE
  5
D
330
A
100
AcDbSymbolTableRecord
100
AcDbTextStyleTableRecord
  2
KICADI
 70
0
 40
0
 41
1
 42
1
 50
15
 71
0
  3
isocp.shx
  0
STYLE
  5
E
330
A
100
AcDbSymbolTableRecord
100
AcDbTextStyleTableRecord
  2
KICADBI
 70
0
 40
0
 41
1
 42
1
 50
15
 71
0
  3
isocp.shx
  0
ENDTAB
  0
TABLE
  2
LAYER
  5
F
330
0
100
AcDbSymbolTable
 70
2
  0
LAYER
  5
12
330
F
100
AcDbSymbolTableRecord
100
AcDbLayerTableRecord
  2
0
 70
0
 62
7
  6
CONTINUOUS
390
10
  0
LAYER
  5
13
330
F
100
AcDbSymbolTableRecord
100
AcDbLayerTableRecord
  2
BLACK
 70
0
 62
250
  6
CONTINUOUS
390
10
  0
ENDTAB
  0
TABLE
  2
VPORT
  5
14
330
0
100
AcDbSymbolTable
 70
0
  0
ENDTAB
  0
TABLE
  2
VIEW
  5
15
330
0
100
AcDbSymbolTable
 70
0
  0
ENDTAB
  0
TABLE
  2
UCS
  5
16
330
0
100
AcDbSymbolTable
 70
0
  0
ENDTAB
  0
TABLE
  2
DIMSTYLE
  5
17
330
0
100
AcDbSymbolTable
 70
1
100
AcDbDimStyleTable
 71
0
  0
DIMSTYLE
105
18
330
17
100
AcDbSymbolTableRecord
100
AcDbDimStyleTableRecord
  2
Standard
 70
0
  0
ENDTAB
  0
TABLE
  2
BLOCK_RECORD
  5
19
330
0
100
AcDbSymbolTable
 70
3
  0
BLOCK_RECORD
  5
1A
330
19
100
AcDbSymbolTableRecord
100
AcDbBlockTableRecord
  2
*Model_Space
340
1D
 70
0
280
1
281
0
  0
BLOCK_RECORD
  5
1B
330
19
100
AcDbSymbolTableRecord
100
AcDbBlockTableRecord
  2
*Paper_Space
340
1E
 70
0
280
1
281
0
  0
BLOCK_RECORD
  5
1C
330
19
100
AcDbSymbolTableRecord
100
AcDbBlockTableRecord
  2
*Paper_Space0
340
1F
 70
0
280
1
281
0
  0
ENDTAB
  0
ENDSEC
  0
SECTION
  2
BLOCKS
  0
BLOCK
  5
23
330
1A
100
AcDbEntity
  8
0
100
AcDbBlockBegin
  2
*Model_Space
 70
0
 10
0.0
 20
0.0
 30
0.0
  3
*Model_Space
  1

  0
ENDBLK
  5
22
330
1A
100
AcDbEntity
  8
0
100
AcDbBlockEnd
  0
BLOCK
  5
25
330
1B
100
AcDbEntity
 67
1
  8
0
100
AcDbBlockBegin
  2
*Paper_Space
 70
0
 10
0.0
 20
0.0
 30
0.0
  3
*Paper_Space
  1

  0
ENDBLK
  5
24
330
1B
100
AcDbEntity
 67
1
  8
0
100
AcDbBlockEnd
  0
BLOCK
  5
27
330
1C
100
AcDbEntity
 67
1
  8
0
100
AcDbBlockBegin
  2
*Paper_Space0
 70
0
 10
0.0
 20
0.0
 30
0.0
  3
*Paper_Space0
  1

  0
ENDBLK
  5
26
330
1C
100
AcDbEntity
 67
1
  8
0
100
AcDbBlockEnd
  0
ENDSEC
  0
SECTION
  2
ENTITIES
  0
LINE
  5
28
330
1A
100
AcDbEntity
  8
BLACK
  6
CONTINUOUS
100
AcDbLine
 10
2.343745433070866
 20
0.3255194488188976
 30
0
 11
2.3443840551181103
 21
0.3250927165354331
 31
0
  0
LINE
  5
29
330
1A
100
AcDbEntity
  8
BLACK
  6
CONTINUOUS
100
AcDbLine
 10
2.3443840551181103
 20
0.3250927165354331
 30
0
 11
2.3448107874015749
 21
0.324454094488189
 31
0
  0
LINE
  5
2A
330
1A
100
AcDbEntity
  8
BLACK
  6
CONTINUOUS
100
AcDbLine
 10
2.3448107874015749
 20
0.324454094488189
 30
0
 11
2.34496062992126
 21
0.3237007874015748
 31
0
  0
LINE
  5
2B
330
1A
100
AcDbEntity
  8
BLACK
  6
CONTINUOUS
100
AcDbLine
 10
2.34496062992126
 20
0.3237007874015748
 30
0
 11
2.34496062992126
 21
0.2637007874015748
 31
0
  0
LINE
  5
2C
330
1A
100
AcDbEntity
  8
BLACK
  6
CONTINUOUS
100
AcDbLine
 10
2.34496062992126
 20
0.2637007874015748
 30
0
 11
2.3448107874015749
 21
0.2629474803149606
 31
0
  0
LINE
  5
2D
330
1A
100
AcDbEntity
  8
BLACK
  6
CONTINUOUS
100
AcDbLine
 10
2.3448107874015749
 20
0.2629474803149606
 30
0
 11
2.3443840551181103
 21
0.2623088582677165
 31
0
  0
LINE
  5
2E
330
1A
100
AcDbEntity
  8
BLACK
  6
CONTINUOUS
100
AcDbLine
 10
2.3443840551181103
 20
0.2623088582677165
 30
0
 11
2.343745433070866
 21
0.261882125984252
 31
0
  0
LINE
  5
2F
330
1A
100
AcDbEntity
  8
BLACK
  6
CONTINUOUS
100
AcDbLine
 10
2.343745433070866
 20
0.261882125984252
 30
0
 11
2.3429921259842521
 21
0.261732283464567
 31
0
  0
LINE
  5
30
330
1A
100
AcDbEntity
  8
BLACK
  6
CONTINUOUS
100
AcDbLine
 10
2.3429921259842521
 20
0.261732283464567
 30
0
 11
2.2829921259842521
 21
0.261732283464567
 31
0
  0
LINE
  5
31
330
1A
100
AcDbEntity
  8
BLACK
  6
CONTINUOUS
100
AcDbLine
 10
2.2829921259842521
 20
0.261732283464567
 30
0
 11
2.2822388188976377
 21
0.261882125984252
 31
0
  0
LINE
  5
32
330
1A
100
AcDbEntity
  8
BLACK
  6
CONTINUOUS
100
AcDbLine
 10
2.2822388188976377
 20
0.261882125984252
 30
0
 11
2.2816001968503938
 21
0.2623088582677165
 31
0
  0
LINE
  5
33
330
1A
100
AcDbEntity
  8
BLACK
  6
CONTINUOUS
100
AcDbLine
 10
2.2816001968503938
 20
0.2623088582677165
 30
0
 11
2.2811734645669293
 21
0.2629474803149606
 31
0
  0
LINE
  5
34
330
1A
100
AcDbEntity
  8
BLACK
  6
CONTINUOUS
100
AcDbLine
 10
2.2811734645669293
 20
0.2629474803149606
 30
0
 11
2.2810236220472442
 21
0.2637007874015748
 31
0
  0
LINE
  5
35
330
1A
100
AcDbEntity
  8
BLACK
  6
CONTINUOUS
100
AcDbLine
 10
2.2810236220472442
 20
0.2637007874015748
 30
0
 11
2.2810236220472442
 21
0.3237007874015748
 31
0
  0
LINE
  5
36
330
1A
100
AcDbEntity
  8
BLACK
  6
CONTINUOUS
100
AcDbLine
 10
2.2810236220472442
 20
0.3237007874015748
 30
0
 11
2.2811734645669293
 21
0.324454094488189
 31
0
  0
LINE
  5
37
330
1A
100
AcDbEntity
  8
BLACK
  6
CONTINUOUS
100
AcDbLine
 10
2.2811734645669293
 20
0.324454094488189
 30
0
 11
2.2816001968503938
 21
0.3250927165354331
 31
0
  0
LINE
  5
38
330
1A
100
AcDbEntity
  8
BLACK
  6
CONTINUOUS
100
AcDbLine
 10
2.2816001968503938
 20
0.3250927165354331
 30
0
 11
2.2822388188976377
 21
0.3255194488188976
 31
0
  0
LINE
  5
39
330
1A
100
AcDbEntity
  8
BLACK
  6
CONTINUOUS
100
AcDbLine
 10
2.2822388188976377
 20
0.3255194488188976
 30
0
 11
2.2829921259842521
 21
0.3256692913385827
 31
0
  0
LINE
  5
3A
330
1A
100
AcDbEntity
  8
BLACK
  6
CONTINUOUS
100
AcDbLine
 10
2.2829921259842521
 20
0.3256692913385827
 30
0
 11
2.3429921259842521
 21
0.3256692913385827
 31
0
  0
LINE
  5
3B
330
1A
100
AcDbEntity
  8
BLACK
  6
CONTINUOUS
100
AcDbLine
 10
2.3429921259842521
 20
0.3256692913385827
 30
0
 11
2.343745433070866
 21
0.3255194488188976
 31
0
  0
LINE
  5
3C
330
1A
100
AcDbEntity
  8
BLACK
  6
CONTINUOUS
100
AcDbLine
 10
2.4437454330708661
 20
0.3255194488188976
 30
0
 11
2.44438405511811
 21
0.3250927165354331
 31
0
  0
LINE
  5
3D
330
1A
100
AcDbEntity
  8
BLACK
  6
CONTINUOUS
100
AcDbLine
 10
2.44438405511811
 20
0.3250927165354331
 30
0
 11
2.4448107874015745
 21
0.324454094488189
 31
0
  0
LINE
  5
3E
330
1A
100
AcDbEntity
  8
BLACK
  6
CONTINUOUS
100
AcDbLine
 10
2.4448107874015745
 20
0.324454094488189
 30
0
 11
2.4449606299212596
 21
0.3237007874015748
 31
0
  0
LINE
  5
3F
330
1A
100
AcDbEntity
  8
BLACK
  6
CONTINUOUS
100
AcDbLine
 10
2.4449606299212596
 20
0.3237007874015748
 30
0
 11
2.4449606299212596
 21
0.2637007874015748
 31
0
  0
LINE
  5
40
330
1A
100
AcDbEntity
  8
BLACK
  6
CONTINUOUS
100
AcDbLine
 10
2.4449606299212596
 20
0.2637007874015748
 30
0
 11
2.4448107874015745
 21
0.2629474803149606
 31
0
  0
LINE
  5
41
330
1A
100
AcDbEntity
  8
BLACK
  6
CONTINUOUS
100
AcDbLine
 10
2.4448107874015745
 20
0.2629474803149606
 30
0
 11
2.44438405511811
 21
0.2623088582677165
 31
0
  0
LINE
  5
42
330
1A
100
AcDbEntity
  8
BLACK
  6
CONTINUOUS
100
AcDbLine
 10
2.44438405511811
 20
0.2623088582677165
 30
0
 11
2.4437454330708661
 21
0.261882125984252
 31
0
  0
LINE
  5
43
330
1A
100
AcDbEntity
  8
BLACK
  6
CONTINUOUS
100
AcDbLine
 10
2.4437454330708661
 20
0.261882125984252
 30
0
 11
2.4429921259842518
 21
0.261732283464567
 31
0
  0
LINE
  5
44
330
1A
100
AcDbEntity
  8
BLACK
  6
CONTINUOUS
100
AcDbLine
 10
2.4429921259842518
 20
0.261732283464567
 30
0
 11
2.3829921259842517
 21
0.261732283464567
 31
0
  0
LINE
  5
45
330
1A
100
AcDbEntity
  8
BLACK
  6
CONTINUOUS
100
AcDbLine
 10
2.3829921259842517
 20
0.261732283464567
 30
0
 11
2.3822388188976378
 21
0.261882125984252
 31
0
  0
LINE
  5
46
330
1A
100
AcDbEntity
  8
BLACK
  6
CONTINUOUS
100
AcDbLine
 10
2.3822388188976378
 20
0.261882125984252
 30
0
 11
2.3816001968503935
 21
0.2623088582677165
 31
0
  0
LINE
  5
47
330
1A
100
AcDbEntity
  8
BLACK
  6
CONTINUOUS
100
AcDbLine
 10
2.3816001968503935
 20
0.2623088582677165
 30
0
 11
2.3811734645669289
 21
0.2629474803149606
 31
0
  0
LINE
  5
48
330
1A
100
AcDbEntity
  8
BLACK
  6
CONTINUOUS
100
AcDbLine
 10
2.3811734645669289
 20
0.2629474803149606
 30
0
 11
2.3810236220472438
 21
0.2637007874015748
 31
0
  0
LINE
  5
49
330
1A
100
AcDbEntity
  8
BLACK
  6
CONTINUOUS
100
AcDbLine
 10
2.3810236220472438
 20
0.2637007874015748
 30
0
 11
2.3810236220472438
 21
0.3237007874015748
 31
0
  0
LINE
  5
4A
330
1A
100
AcDbEntity
  8
BLACK
  6
CONTINUOUS
100
AcDbLine
 10
2.3810236220472438
 20
0.3237007874015748
 30
0
 11
2.3811734645669289
 21
0.324454094488189
 31
0
  0
LINE
  5
4B
330
1A
100
AcDbEntity
  8
BLACK
  6
CONTINUOUS
100
AcDbLine
 10
2.3811734645669289
 20
0.324454094488189
 30
0
 11
2.3816001968503935
 21
0.3250927165354331
 31
0
  0
LINE
  5
4C
330
1A
100
AcDbEntity
  8
BLACK
  6
CONTINUOUS
100
AcDbLine
 10
2.3816001968503935
 20
0.3250927165354331
 30
0
 11
2.3822388188976378
 21
0.3255194488188976
 31
0
  0
LINE
  5
4D
330
1A
100
AcDbEntity
  8
BLACK
  6
CONTINUOUS
100
AcDbLine
 10
2.3822388188976378
 20
0.3255194488188976
 30
0
 11
2.3829921259842517
 21
0.3256692913385827
 31
0
  0
LINE
  5
4E
330
1A
100
AcDbEntity
  8
BLACK
  6
CONTINUOUS
100
AcDbLine
 10
2.3829921259842517
 20
0.3256692913385827
 30
0
 11
2.4429921259842518
 21
0.3256692913385827
 31
0
  0
LINE
  5
4F
330
1A
100
AcDbEntity
  8
BLACK
  6
CONTINUOUS
100
AcDbLine
 10
2.4429921259842518
 20
0.3256692913385827
 30
0
 11
2.4437454330708661
 21
0.3255194488188976
 31
0
  0
LINE
  5
50
330
1A
100
AcDbEntity
  8
BLACK
  6
CONTINUOUS
100
AcDbLine
 10
2.5437454330708662
 20
0.3255194488188976
 30
0
 11
2.5443840551181101
 21
0.3250927165354331
 31
0
  0
LINE
  5
51
330
1A
100
AcDbEntity
  8
BLACK
  6
CONTINUOUS
100
AcDbLine
 10
2.5443840551181101
 20
0.3250927165354331
 30
0
 11
2.5448107874015746
 21
0.324454094488189
 31
0
  0
LINE
  5
52
330
1A
100
AcDbEntity
  8
BLACK
  6
CONTINUOUS
100
AcDbLine
 10
2.5448107874015746
 20
0.324454094488189
 30
0
 11
2.5449606299212597
 21
0.3237007874015748
 31
0
  0
LINE
  5
53
330
1A
100
AcDbEntity
  8
BLACK
  6
CONTINUOUS
100
AcDbLine
 10
2.5449606299212597
 20
0.3237007874015748
 30
0
 11
2.5449606299212597
 21
0.2637007874015748
 31
0
  0
LINE
  5
54
330
1A
100
AcDbEntity
  8
BLACK
  6
CONTINUOUS
100
AcDbLine
 10
2.5449606299212597
 20
0.2637007874015748
 30
0
 11
2.5448107874015746
 21
0.2629474803149606
 31
0
  0
LINE
  5
55
330
1A
100
AcDbEntity
  8
BLACK
  6
CONTINUOUS
100
AcDbLine
 10
2.5448107874015746
 20
0.2629474803149606
 30
0
 11
2.5443840551181101
 21
0.2623088582677165
 31
0
  0
LINE
  5
56
330
1A
100
AcDbEntity
  8
BLACK
  6
CONTINUOUS
100
AcDbLine
 10
2.5443840551181101
 20
0.2623088582677165
 30
0
 11
2.5437454330708662
 21
0.261882125984252
 31
0
  0
LINE
  5
57
330
1A
100
AcDbEntity
  8
BLACK
  6
CONTINUOUS
100
AcDbLine
 10
2.5437454330708662
 20
0.261882125984252
 30
0
 11
2.5429921259842518
 21
0.261732283464567
 31
0
  0
LINE
  5
58
330
1A
100
AcDbEntity
  8
BLACK
  6
CONTINUOUS
100
AcDbLine
 10
2.5429921259842518
 20
0.261732283464567
 30
0
 11
2.4829921259842518
 21
0.261732283464567
 31
0
  0
LINE
  5
59
330
1A
100
AcDbEntity
  8
BLACK
  6
CONTINUOUS
100
AcDbLine
 10
2.4829921259842518
 20
0.261732283464567
 30
0
 11
2.4822388188976379
 21
0.261882125984252
 31
0
  0
LINE
  5
5A
330
1A
100
AcDbEntity
  8
BLACK
  6
CONTINUOUS
100
AcDbLine
 10
2.4822388188976379
 20
0.261882125984252
 30
0
 11
2.4816001968503936
 21
0.2623088582677165
 31
0
  0
LINE
  5
5B
330
1A
100
AcDbEntity
  8
BLACK
  6
CONTINUOUS
100
AcDbLine
 10
2.4816001968503936
 20
0.2623088582677165
 30
0
 11
2.481173464566929
 21
0.2629474803149606
 31
0
  0
LINE
  5
5C
330
1A
100
AcDbEntity
  8
BLACK
  6
CONTINUOUS
100
AcDbLine
 10
2.481173464566929
 20
0.2629474803149606
 30
0
 11
2.4810236220472439
 21
0.2637007874015748
 31
0
  0
LINE
  5
5D
330
1A
100
AcDbEntity
  8
BLACK
  6
CONTINUOUS
100
AcDbLine
 10
2.4810236220472439
 20
0.2637007874015748
 30
0
 11
2.4810236220472439
 21
0.3237007874015748
 31
0
  0
LINE
  5
5E
330
1A
100
AcDbEntity
  8
BLACK
  6
CONTINUOUS
100
AcDbLine
 10
2.4810236220472439
 20
0.3237007874015748
 30
0
 11
2.481173464566929
 21
0.324454094488189
 31
0
  0
LINE
  5
5F
330
1A
100
AcDbEntity
  8
BLACK
  6
CONTINUOUS
100
AcDbLine
 10
2.481173464566929
 20
0.324454094488189
 30
0
 11
2.4816001968503936
 21
0.3250927165354331
 31
0
  0
LINE
  5
60
330
1A
100
AcDbEntity
  8
BLACK
  6
CONTINUOUS
100
AcDbLine
 10
2.4816001968503936
 20
0.3250927165354331
 30
0
 11
2.4822388188976379
 21
0.3255194488188976
 31
0
  0
LINE
  5
61
330
1A
100
AcDbEntity
  8
BLACK
  6
CONTINUOUS
100
AcDbLine
 10
2.4822388188976379
 20
0.3255194488188976
 30
0
 11
2.4829921259842518
 21
0.3256692913385827
 31
0
  0
LINE
  5
62
330
1A
100
AcDbEntity
  8
BLACK
  6
CONTINUOUS
100
AcDbLine
 10
2.4829921259842518
 20
0.3256692913385827
 30
0
 11
2.5429921259842518
 21
0.3256692913385827
 31
0
  0
LINE
  5
63
330
1A
100
AcDbEntity
  8
BLACK
  6
CONTINUOUS
100
AcDbLine
 10
2.5429921259842518
 20
0.3256692913385827
 30
0
 11
2.5437454330708662
 21
0.3255194488188976
 31
0
  0
LINE
  5
64
330
1A
100
AcDbEntity
  8
BLACK
  6
CONTINUOUS
100
AcDbLine
 10
0.420113937007874
 20
0.5183821653543307
 30
0
 11
0.4332420472440945
 21
0.5153857480314961
 31
0
  0
LINE
  5
65
330
1A
100
AcDbEntity
  8
BLACK
  6
CONTINUOUS
100
AcDbLine
 10
0.4332420472440945
 20
0.5153857480314961
 30
0
 11
0.4459521259842519
 21
0.5109383070866141
 31
0
  0
LINE
  5
66
330
1A
100
AcDbEntity
  8
BLACK
  6
CONTINUOUS
100
AcDbLine
 10
0.4459521259842519
 20
0.5109383070866141
 30
0
 11
0.4580843700787401
 21
0.5050957086614173
 31
0
  0
LINE
  5
67
330
1A
100
AcDbEntity
  8
BLACK
  6
CONTINUOUS
100
AcDbLine
 10
0.4580843700787401
 20
0.5050957086614173
 30
0
 11
0.4694861023622047
 21
0.4979315354330708
 31
0
  0
LINE
  5
68
330
1A
100
AcDbEntity
  8
BLACK
  6
CONTINUOUS
100
AcDbLine
 10
0.4694861023622047
 20
0.4979315354330708
 30
0
 11
0.4800140551181102
 21
0.4895357874015748
 31
0
  0
LINE
  5
69
330
1A
100
AcDbEntity
  8
BLACK
  6
CONTINUOUS
100
AcDbLine
 10
0.4800140551181102
 20
0.4895357874015748
 30
0
 11
0.4895357874015748
 21
0.4800140551181102
 31
0
  0
LINE
  5
6A
330
1A
100
AcDbEntity
  8
BLACK
  6
CONTINUOUS
100
AcDbLine
 10
0.4895357874015748
 20
0.4800140551181102
 30
0
 11
0.4979315354330708
 21
0.4694861023622047
 31
0
  0
LINE
  5
6B
330
1A
100
AcDbEntity
  8
BLACK
  6
CONTINUOUS
100
AcDbLine
 10
0.4979315354330708
 20
0.4694861023622047
 30
0
 11
0.5050957086614173
 21
0.4580843700787401
 31
0
  0
LINE
  5
6C
330
1A
100
AcDbEntity
  8
BLACK
  6
CONTINUOUS
100
AcDbLine
 10
0.5050957086614173
 20
0.4580843700787401
 30
0
 11
0.5109383070866141
 21
0.4459521259842519
 31
0
  0
LINE
  5
6D
330
1A
100
AcDbEntity
  8
BLACK
  6
CONTINUOUS
100
AcDbLine
 10
0.5109383070866141
 20
0.4459521259842519
 30
0
 11
0.5153857480314961
 21
0.4332420472440945
 31
0
  0
LINE
  5
6E
330
1A
100
AcDbEntity
  8
BLACK
  6
CONTINUOUS
100
AcDbLine
 10
0.5153857480314961
 20
0.4332420472440945
 30
0
 11
0.5183821653543307
 21
0.420113937007874
 31
0
  0
LINE
  5
6F
330
1A
100
AcDbEntity
  8
BLACK
  6
CONTINUOUS
100
AcDbLine
 10
0.5183821653543307
 20
0.420113937007874
 30
0
 11
0.5198898425196851
 21
0.406732874015748
 31
0
  0
LINE
  5
70
330
1A
100
AcDbEntity
  8
BLACK
  6
CONTINUOUS
100
AcDbLine
 10
0.5198898425196851
 20
0.406732874015748
 30
0
 11
0.5198898425196851
 21
0.393267125984252
 31
0
  0
LINE
  5
71
330
1A
100
AcDbEntity
  8
BLACK
  6
CONTINUOUS
100
AcDbLine
 10
0.5198898425196851
 20
0.393267125984252
 30
0
 11
0.5183821653543307
 21
0.379886062992126
 31
0
  0
LINE
  5
72
330
1A
100
AcDbEntity
  8
BLACK
  6
CONTINUOUS
100
AcDbLine
 10
0.5183821653543307
 20
0.379886062992126
 30
0
 11
0.5153857480314961
 21
0.3667579527559055
 31
0
  0
LINE
  5
73
330
1A
100
AcDbEntity
  8
BLACK
  6
CONTINUOUS
100
AcDbLine
 10
0.5153857480314961
 20
0.3667579527559055
 30
0
 11
0.5109383070866141
 21
0.354047874015748
 31
0
  0
LINE
  5
74
330
1A
100
AcDbEntity
  8
BLACK
  6
CONTINUOUS
100
AcDbLine
 10
0.5109383070866141
 20
0.354047874015748
 30
0
 11
0.5050957086614173
 21
0.3419156299212598
 31
0
  0
LINE
  5
75
330
1A
100
AcDbEntity
  8
BLACK
  6
CONTINUOUS
100
AcDbLine
 10
0.5050957086614173
 20
0.3419156299212598
 30
0
 11
0.4979315354330708
 21
0.3305138976377953
 31
0
  0
LINE
  5
76
330
1A
100
AcDbEntity
  8
BLACK
  6
CONTINUOUS
100
AcDbLine
 10
0.4979315354330708
 20
0.3305138976377953
 30
0
 11
0.4895357874015748
 21
0.3199859448818898
 31
0
  0
LINE
  5
77
330
1A
100
AcDbEntity
  8
BLACK
  6
CONTINUOUS
100
AcDbLine
 10
0.4895357874015748
 20
0.3199859448818898
 30
0
 11
0.4800140551181102
 21
0.3104642125984252
 31
0
  0
LINE
  5
78
330
1A
100
AcDbEntity
  8
BLACK
  6
CONTINUOUS
100
AcDbLine
 10
0.4800140551181102
 20
0.3104642125984252
 30
0
 11
0.4694861023622047
 21
0.3020684645669292
 31
0
  0
LINE
  5
79
330
1A
100
AcDbEntity
  8
BLACK
  6
CONTINUOUS
100
AcDbLine
 10
0.4694861023622047
 20
0.3020684645669292
 30
0
 11
0.4580843700787401
 21
0.2949042913385826
 31
0
  0
LINE
  5
7A
330
1A
100
AcDbEntity
  8
BLACK
  6
CONTINUOUS
100
AcDbLine
 10
0.4580843700787401
 20
0.2949042913385826
 30
0
 11
0.4459521259842519
 21
0.2890616929133858
 31
0
  0
LINE
  5
7B
330
1A
100
AcDbEntity
  8
BLACK
  6
CONTINUOUS
100
AcDbLine
 10
0.4459521259842519
 20
0.2890616929133858
 30
0
 11
0.4332420472440945
 21
0.2846142519685039
 31
0
  0
LINE
  5
7C
330
1A
100
AcDbEntity
  8
BLACK
  6
CONTINUOUS
100
AcDbLine
 10
0.4332420472440945
 20
0.2846142519685039
 30
0
 11
0.420113937007874
 21
0.2816178346456693
 31
0
  0
LINE
  5
7D
330
1A
100
AcDbEntity
  8
BLACK
  6
CONTINUOUS
100
AcDbLine
 10
0.420113937007874
 20
0.2816178346456693
 30
0
 11
0.406732874015748
 21
0.280110157480315
 31
0
  0
LINE
  5
7E
330
1A
100
AcDbEntity
  8
BLACK
  6
CONTINUOUS
100
AcDbLine
 10
0.406732874015748
 20
0.280110157480315
 30
0
 11
0.393267125984252
 21
0.280110157480315
 31
0
  0
LINE
  5
7F
330
1A
100
AcDbEntity
  8
BLACK
  6
CONTINUOUS
100
AcDbLine
 10
0.393267125984252
 20
0.280110157480315
 30
0
 11
0.379886062992126
 21
0.2816178346456693
 31
0
  0
LINE
  5
80
330
1A
100
AcDbEntity
  8
BLACK
  6
CONTINUOUS
100
AcDbLine
 10
0.379886062992126
 20
0.2816178346456693
 30
0
 11
0.3667579527559055
 21
0.2846142519685039
 31
0
  0
LINE
  5
81
330
1A
100
AcDbEntity
  8
BLACK
  6
CONTINUOUS
100
AcDbLine
 10
0.3667579527559055
 20
0.2846142519685039
 30
0
 11
0.354047874015748
 21
0.2890616929133858
 31
0
  0
LINE
  5
82
330
1A
100
AcDbEntity
  8
BLACK
  6
CONTINUOUS
100
AcDbLine
 10
0.354047874015748
 20
0.2890616929133858
 30
0
 11
0.3419156299212598
 21
0.2949042913385826
 31
0
  0
LINE
  5
83
330
1A
100
AcDbEntity
  8
BLACK
  6
CONTINUOUS
100
AcDbLine
 10
0.3419156299212598
 20
0.2949042913385826
 30
0
 11
0.3305138976377953
 21
0.3020684645669292
 31
0
  0
LINE
  5
84
330
1A
100
AcDbEntity
  8
BLACK
  6
CONTINUOUS
100
AcDbLine
 10
0.3305138976377953
 20
0.3020684645669292
 30
0
 11
0.3199859448818898
 21
0.3104642125984252
 31
0
  0
LINE
  5
85
330
1A
100
AcDbEntity
  8
BLACK
  6
CONTINUOUS
100
AcDbLine
 10
0.3199859448818898
 20
0.3104642125984252
 30
0
 11
0.3104642125984252
 21
0.3199859448818898
 31
0
  0
LINE
  5
86
330
1A
100
AcDbEntity
  8
BLACK
  6
CONTINUOUS
100
AcDbLine
 10
0.3104642125984252
 20
0.3199859448818898
 30
0
 11
0.3020684645669292
 21
0.3305138976377953
 31
0
  0
LINE
  5
87
330
1A
100
AcDbEntity
  8
BLACK
  6
CONTINUOUS
100
AcDbLine
 10
0.3020684645669292
 20
0.3305138976377953
 30
0
 11
0.2949042913385826
 21
0.3419156299212598
 31
0
  0
LINE
  5
88
330
1A
100
AcDbEntity
  8
BLACK
  6
CONTINUOUS
100
AcDbLine
 10
0.2949042913385826
 20
0.3419156299212598
 30
0
 11
0.2890616929133858
 21
0.354047874015748
 31
0
  0
LINE
  5
89
330
1A
100
AcDbEntity
  8
BLACK
  6
CONTINUOUS
100
AcDbLine
 10
0.2890616929133858
 20
0.354047874015748
 30
0
 11
0.2846142519685039
 21
0.3667579527559055
 31
0
  0
LINE
  5
8A
330
1A
100
AcDbEntity
  8
BLACK
  6
CONTINUOUS
100
AcDbLine
 10
0.2846142519685039
 20
0.3667579527559055
 30
0
 11
0.2816178346456693
 21
0.379886062992126
 31
0
  0
LINE
  5
8B
330
1A
100
AcDbEntity
  8
BLACK
  6
CONTINUOUS
100
AcDbLine
 10
0.2816178346456693
 20
0.379886062992126
 30
0
 11
0.280110157480315
 21
0.393267125984252
 31
0
  0
LINE
  5
8C
330
1A
100
AcDbEntity
  8
BLACK
  6
CONTINUOUS
100
AcDbLine
 10
0.280110157480315
 20
0.393267125984252
 30
0
 11
0.280110157480315
 21
0.406732874015748
 31
0
  0
LINE
  5
8D
330
1A
100
AcDbEntity
  8
BLACK
  6
CONTINUOUS
100
AcDbLine
 10
0.280110157480315
 20
0.406732874015748
 30
0
 11
0.2816178346456693
 21
0.420113937007874
 31
0
  0
LINE
  5
8E
330
1A
100
AcDbEntity
  8
BLACK
  6
CONTINUOUS
100
AcDbLine
 10
0.2816178346456693
 20
0.420113937007874
 30
0
 11
0.2846142519685039
 21
0.4332420472440945
 31
0
  0
LINE
  5
8F
330
1A
100
AcDbEntity
  8
BLACK
  6
CONTINUOUS
100
AcDbLine
 10
0.2846142519685039
 20
0.4332420472440945
 30
0
 11
0.2890616929133858
 21
0.4459521259842519
 31
0
  0
LINE
  5
90
330
1A
100
AcDbEntity
  8
BLACK
  6
CONTINUOUS
100
AcDbLine
 10
0.2890616929133858
 20
0.4459521259842519
 30
0
 11
0.2949042913385826
 21
0.4580843700787401
 31
0
  0
LINE
  5
91
330
1A
100
AcDbEntity
  8
BLACK
  6
CONTINUOUS
100
AcDbLine
 10
0.2949042913385826
 20
0.4580843700787401
 30
0
 11
0.3020684645669292
 21
0.4694861023622047
 31
0
  0
LINE
  5
92
330
1A
100
AcDbEntity
  8
BLACK
  6
CONTINUOUS
100
AcDbLine
 10
0.3020684645669292
 20
0.4694861023622047
 30
0
 11
0.3104642125984252
 21
0.4800140551181102
 31
0
  0
LINE
  5
93
330
1A
100
AcDbEntity
  8
BLACK
  6
CONTINUOUS
100
AcDbLine
 10
0.3104642125984252
 20
0.4800140551181102
 30
0
 11
0.3199859448818898
 21
0.4895357874015748
 31
0
  0
LINE
  5
94
330
1A
100
AcDbEntity
  8
BLACK
  6
CONTINUOUS
100
AcDbLine
 10
0.3199859448818898
 20
0.4895357874015748
 30
0
 11
0.3305138976377953
 21
0.4979315354330708
 31
0
  0
LINE
  5
95
330
1A
100
AcDbEntity
  8
BLACK
  6
CONTINUOUS
100
AcDbLine
 10
0.3305138976377953
 20
0.4979315354330708
 30
0
 11
0.3419156299212598
 21
0.5050957086614173
 31
0
  0
LINE
  5
96
330
1A
100
AcDbEntity
  8
BLACK
  6
CONTINUOUS
100
AcDbLine
 10
0.3419156299212598
 20
0.5050957086614173
 30
0
 11
0.354047874015748
 21
0.5109383070866141
 31
0
  0
LINE
  5
97
330
1A
100
AcDbEntity
  8
BLACK
  6
CONTINUOUS
100
AcDbLine
 10
0.354047874015748
 20
0.5109383070866141
 30
0
 11
0.3667579527559055
 21
0.5153857480314961
 31
0
  0
LINE
  5
98
330
1A
100
AcDbEntity
  8
BLACK
  6
CONTINUOUS
100
AcDbLine
 10
0.3667579527559055
 20
0.5153857480314961
 30
0
 11
0.379886062992126
 21
0.5183821653543307
 31
0
  0
LINE
  5
99
330
1A
100
AcDbEntity
  8
BLACK
  6
CONTINUOUS
100
AcDbLine
 10
0.379886062992126
 20
0.5183821653543307
 30
0
 11
0.393267125984252
 21
0.5198898425196851
 31
0
  0
LINE
  5
9A
330
1A
100
AcDbEntity
  8
BLACK
  6
CONTINUOUS
100
AcDbLine
 10
0.393267125984252
 20
0.5198898425196851
 30
0
 11
0.406732874015748
 21
0.5198898425196851
 31
0
  0
LINE
  5
9B
330
1A
100
AcDbEntity
  8
BLACK
  6
CONTINUOUS
100
AcDbLine
 10
0.406732874015748
 20
0.5198898425196851
 30
0
 11
0.420113937007874
 21
0.5183821653543307
 31
0
  0
LINE
  5
9C
330
1A
100
AcDbEntity
  8
BLACK
  6
CONTINUOUS
100
AcDbLine
 10
2.8098777165354329
 20
0.5183821653543307
 30
0
 11
2.8230058267716536
 21
0.5153857480314961
 31
0
  0
LINE
  5
9D
330
1A
100
AcDbEntity
  8
BLACK
  6
CONTINUOUS
100
AcDbLine
 10
2.8230058267716536
 20
0.5153857480314961
 30
0
 11
2.8357159055118109
 21
0.5109383070866141
 31
0
  0
LINE
  5
9E
330
1A
100
AcDbEntity
  8
BLACK
  6
CONTINUOUS
100
AcDbLine
 10
2.8357159055118109
 20
0.5109383070866141
 30
0
 11
2.8478481496062993
 21
0.5050957086614173
 31
0
  0
LINE
  5
9F
330
1A
100
AcDbEntity
  8
BLACK
  6
CONTINUOUS
100
AcDbLine
 10
2.8478481496062993
 20
0.5050957086614173
 30
0
 11
2.8592498818897636
 21
0.4979315354330708
 31
0
  0
LINE
  5
A0
330
1A
100
AcDbEntity
  8
BLACK
  6
CONTINUOUS
100
AcDbLine
 10
2.8592498818897636
 20
0.4979315354330708
 30
0
 11
2.869777834645669
 21
0.4895357874015748
 31
0
  0
LINE
  5
A1
330
1A
100
AcDbEntity
  8
BLACK
  6
CONTINUOUS
100
AcDbLine
 10
2.869777834645669
 20
0.4895357874015748
 30
0
 11
2.8792995669291339
 21
0.4800140551181102
 31
0
  0
LINE
  5
A2
330
1A
100
AcDbEntity
  8
BLACK
  6
CONTINUOUS
100
AcDbLine
 10
2.8792995669291339
 20
0.4800140551181102
 30
0
 11
2.8876953149606299
 21
0.4694861023622047
 31
0
  0
LINE
  5
A3
330
1A
100
AcDbEntity
  8
BLACK
  6
CONTINUOUS
100
AcDbLine
 10
2.8876953149606299
 20
0.4694861023622047
 30
0
 11
2.8948594881889762
 21
0.4580843700787401
 31
0
  0
LINE
  5
A4
330
1A
100
AcDbEntity
  8
BLACK
  6
CONTINUOUS
100
AcDbLine
 10
2.8948594881889762
 20
0.4580843700787401
 30
0
 11
2.9007020866141731
 21
0.4459521259842519
 31
0
  0
LINE
  5
A5
330
1A
100
AcDbEntity
  8
BLACK
  6
CONTINUOUS
100
AcDbLine
 10
2.9007020866141731
 20
0.4459521259842519
 30
0
 11
2.9051495275590549
 21
0.4332420472440945
 31
0
  0
LINE
  5
A6
330
1A
100
AcDbEntity
  8
BLACK
  6
CONTINUOUS
100
AcDbLine
 10
2.9051495275590549
 20
0.4332420472440945
 30
0
 11
2.9081459448818898
 21
0.420113937007874
 31
0
  0
LINE
  5
A7
330
1A
100
AcDbEntity
  8
BLACK
  6
CONTINUOUS
100
AcDbLine
 10
2.9081459448818898
 20
0.420113937007874
 30
0
 11
2.909653622047244
 21
0.406732874015748
 31
0
  0
LINE
  5
A8
330
1A
100
AcDbEntity
  8
BLACK
  6
CONTINUOUS
100
AcDbLine
 10
2.909653622047244
 20
0.406732874015748
 30
0
 11
2.909653622047244
 21
0.393267125984252
 31
0
  0
LINE
  5
A9
330
1A
100
AcDbEntity
  8
BLACK
  6
CONTINUOUS
100
AcDbLine
 10
2.909653622047244
 20
0.393267125984252
 30
0
 11
2.9081459448818898
 21
0.379886062992126
 31
0
  0
LINE
  5
AA
330
1A
100
AcDbEntity
  8
BLACK
  6
CONTINUOUS
100
AcDbLine
 10
2.9081459448818898
 20
0.379886062992126
 30
0
 11
2.9051495275590549
 21
0.3667579527559055
 31
0
  0
LINE
  5
AB
330
1A
100
AcDbEntity
  8
BLACK
  6
CONTINUOUS
100
AcDbLine
 10
2.9051495275590549
 20
0.3667579527559055
 30
0
 11
2.9007020866141731
 21
0.354047874015748
 31
0
  0
LINE
  5
AC
330
1A
100
AcDbEntity
  8
BLACK
  6
CONTINUOUS
100
AcDbLine
 10
2.9007020866141731
 20
0.354047874015748
 30
0
 11
2.8948594881889762
 21
0.3419156299212598
 31
0
  0
LINE
  5
AD
330
1A
100
AcDbEntity
  8
BLACK
  6
CONTINUOUS
100
AcDbLine
 10
2.8948594881889762
 20
0.3419156299212598
 30
0
 11
2.8876953149606299
 21
0.3305138976377953
 31
0
  0
LINE
  5
AE
330
1A
100
AcDbEntity
  8
BLACK
  6
CONTINUOUS
100
AcDbLine
 10
2.8876953149606299
 20
0.3305138976377953
 30
0
 11
2.8792995669291339
 21
0.3199859448818898
 31
0
  0
LINE
  5
AF
330
1A
100
AcDbEntity
  8
BLACK
  6
CONTINUOUS
100
AcDbLine
 10
2.8792995669291339
 20
0.3199859448818898
 30
0
 11
2.869777834645669
 21
0.3104642125984252
 31
0
  0
LINE
  5
B0
330
1A
100
AcDbEntity
  8
BLACK
  6
CONTINUOUS
100
AcDbLine
 10
2.869777834645669
 20
0.3104642125984252
 30
0
 11
2.8592498818897636
 21
0.3020684645669292
 31
0
  0
LINE
  5
B1
330
1A
100
AcDbEntity
  8
BLACK
  6
CONTINUOUS
100
AcDbLine
 10
2.8592498818897636
 20
0.3020684645669292
 30
0
 11
2.8478481496062993
 21
0.2949042913385826
 31
0
  0
LINE
  5
B2
330
1A
100
AcDbEntity
  8
BLACK
  6
CONTINUOUS
100
AcDbLine
 10
2.8478481496062993
 20
0.2949042913385826
 30
0
 11
2.8357159055118109
 21
0.2890616929133858
 31
0
  0
LINE
  5
B3
330
1A
100
AcDbEntity
  8
BLACK
  6
CONTINUOUS
100
AcDbLine
 10
2.8357159055118109
 20
0.2890616929133858
 30
0
 11
2.8230058267716536
 21
0.2846142519685039
 31
0
  0
LINE
  5
B4
330
1A
100
AcDbEntity
  8
BLACK
  6
CONTINUOUS
100
AcDbLine
 10
2.8230058267716536
 20
0.2846142519685039
 30
0
 11
2.8098777165354329
 21
0.2816178346456693
 31
0
  0
LINE
  5
B5
330
1A
100
AcDbEntity
  8
BLACK
  6
CONTINUOUS
100
AcDbLine
 10
2.8098777165354329
 20
0.2816178346456693
 30
0
 11
2.7964966535433069
 21
0.280110157480315
 31
0
  0
LINE
  5
B6
330
1A
100
AcDbEntity
  8
BLACK
  6
CONTINUOUS
100
AcDbLine
 10
2.7964966535433069
 20
0.280110157480315
 30
0
 11
2.783030905511811
 21
0.280110157480315
 31
0
  0
LINE
  5
B7
330
1A
100
AcDbEntity
  8
BLACK
  6
CONTINUOUS
100
AcDbLine
 10
2.783030905511811
 20
0.280110157480315
 30
0
 11
2.7696498425196849
 21
0.2816178346456693
 31
0
  0
LINE
  5
B8
330
1A
100
AcDbEntity
  8
BLACK
  6
CONTINUOUS
100
AcDbLine
 10
2.7696498425196849
 20
0.2816178346456693
 30
0
 11
2.7565217322834643
 21
0.2846142519685039
 31
0
  0
LINE
  5
B9
330
1A
100
AcDbEntity
  8
BLACK
  6
CONTINUOUS
100
AcDbLine
 10
2.7565217322834643
 20
0.2846142519685039
 30
0
 11
2.743811653543307
 21
0.2890616929133858
 31
0
  0
LINE
  5
BA
330
1A
100
AcDbEntity
  8
BLACK
  6
CONTINUOUS
100
AcDbLine
 10
2.743811653543307
 20
0.2890616929133858
 30
0
 11
2.731679409448819
 21
0.2949042913385826
 31
0
  0
LINE
  5
BB
330
1A
100
AcDbEntity
  8
BLACK
  6
CONTINUOUS
100
AcDbLine
 10
2.731679409448819
 20
0.2949042913385826
 30
0
 11
2.7202776771653543
 21
0.3020684645669292
 31
0
  0
LINE
  5
BC
330
1A
100
AcDbEntity
  8
BLACK
  6
CONTINUOUS
100
AcDbLine
 10
2.7202776771653543
 20
0.3020684645669292
 30
0
 11
2.7097497244094488
 21
0.3104642125984252
 31
0
  0
LINE
  5
BD
330
1A
100
AcDbEntity
  8
BLACK
  6
CONTINUOUS
100
AcDbLine
 10
2.7097497244094488
 20
0.3104642125984252
 30
0
 11
2.7002279921259844
 21
0.3199859448818898
 31
0
  0
LINE
  5
BE
330
1A
100
AcDbEntity
  8
BLACK
  6
CONTINUOUS
100
AcDbLine
 10
2.7002279921259844
 20
0.3199859448818898
 30
0
 11
2.691832244094488
 21
0.3305138976377953
 31
0
  0
LINE
  5
BF
330
1A
100
AcDbEntity
  8
BLACK
  6
CONTINUOUS
100
AcDbLine
 10
2.691832244094488
 20
0.3305138976377953
 30
0
 11
2.6846680708661417
 21
0.3419156299212598
 31
0
  0
LINE
  5
C0
330
1A
100
AcDbEntity
  8
BLACK
  6
CONTINUOUS
100
AcDbLine
 10
2.6846680708661417
 20
0.3419156299212598
 30
0
 11
2.6788254724409448
 21
0.354047874015748
 31
0
  0
LINE
  5
C1
330
1A
100
AcDbEntity
  8
BLACK
  6
CONTINUOUS
100
AcDbLine
 10
2.6788254724409448
 20
0.354047874015748
 30
0
 11
2.674378031496063
 21
0.3667579527559055
 31
0
  0
LINE
  5
C2
330
1A
100
AcDbEntity
  8
BLACK
  6
CONTINUOUS
100
AcDbLine
 10
2.674378031496063
 20
0.3667579527559055
 30
0
 11
2.6713816141732285
 21
0.379886062992126
 31
0
  0
LINE
  5
C3
330
1A
100
AcDbEntity
  8
BLACK
  6
CONTINUOUS
100
AcDbLine
 10
2.6713816141732285
 20
0.379886062992126
 30
0
 11
2.6698739370078739
 21
0.393267125984252
 31
0
  0
LINE
  5
C4
330
1A
100
AcDbEntity
  8
BLACK
  6
CONTINUOUS
100
AcDbLine
 10
2.6698739370078739
 20
0.393267125984252
 30
0
 11
2.6698739370078739
 21
0.406732874015748
 31
0
  0
LINE
  5
C5
330
1A
100
AcDbEntity
  8
BLACK
  6
CONTINUOUS
100
AcDbLine
 10
2.6698739370078739
 20
0.406732874015748
 30
0
 11
2.6713816141732285
 21
0.420113937007874
 31
0
  0
LINE
  5
C6
330
1A
100
AcDbEntity
  8
BLACK
  6
CONTINUOUS
100
AcDbLine
 10
2.6713816141732285
 20
0.420113937007874
 30
0
 11
2.674378031496063
 21
0.4332420472440945
 31
0
  0
LINE
  5
C7
330
1A
100
AcDbEntity
  8
BLACK
  6
CONTINUOUS
100
AcDbLine
 10
2.674378031496063
 20
0.4332420472440945
 30
0
 11
2.6788254724409448
 21
0.4459521259842519
 31
0
  0
LINE
  5
C8
330
1A
100
AcDbEntity
  8
BLACK
  6
CONTINUOUS
100
AcDbLine
 10
2.6788254724409448
 20
0.4459521259842519
 30
0
 11
2.6846680708661417
 21
0.4580843700787401
 31
0
  0
LINE
  5
C9
330
1A
100
AcDbEntity
  8
BLACK
  6
CONTINUOUS
100
AcDbLine
 10
2.6846680708661417
 20
0.4580843700787401
 30
0
 11
2.691832244094488
 21
0.4694861023622047
 31
0
  0
LINE
  5
CA
330
1A
100
AcDbEntity
  8
BLACK
  6
CONTINUOUS
100
AcDbLine
 10
2.691832244094488
 20
0.4694861023622047
 30
0
 11
2.7002279921259844
 21
0.4800140551181102
 31
0
  0
LINE
  5
CB
330
1A
100
AcDbEntity
  8
BLACK
  6
CONTINUOUS
100
AcDbLine
 10
2.7002279921259844
 20
0.4800140551181102
 30
0
 11
2.7097497244094488
 21
0.4895357874015748
 31
0
  0
LINE
  5
CC
330
1A
100
AcDbEntity
  8
BLACK
  6
CONTINUOUS
100
AcDbLine
 10
2.7097497244094488
 20
0.4895357874015748
 30
0
 11
2.7202776771653543
 21
0.4979315354330708
 31
0
  0
LINE
  5
CD
330
1A
100
AcDbEntity
  8
BLACK
  6
CONTINUOUS
100
AcDbLine
 10
2.7202776771653543
 20
0.4979315354330708
 30
0
 11
2.731679409448819
 21
0.5050957086614173
 31
0
  0
LINE
  5
CE
330
1A
100
AcDbEntity
  8
BLACK
  6
CONTINUOUS
100
AcDbLine
 10
2.731679409448819
 20
0.5050957086614173
 30
0
 11
2.743811653543307
 21
0.5109383070866141
 31
0
  0
LINE
  5
CF
330
1A
100
AcDbEntity
  8
BLACK
  6
CONTINUOUS
100
AcDbLine
 10
2.743811653543307
 20
0.5109383070866141
 30
0
 11
2.7565217322834643
 21
0.5153857480314961
 31
0
  0
LINE
  5
D0
330
1A
100
AcDbEntity
  8
BLACK
  6
CONTINUOUS
100
AcDbLine
 10
2.7565217322834643
 20
0.5153857480314961
 30
0
 11
2.7696498425196849
 21
0.5183821653543307
 31
0
  0
LINE
  5
D1
330
1A
100
AcDbEntity
  8
BLACK
  6
CONTINUOUS
100
AcDbLine
 10
2.7696498425196849
 20
0.5183821653543307
 30
0
 11
2.783030905511811
 21
0.5198898425196851
 31
0
  0
LINE
  5
D2
330
1A
100
AcDbEntity
  8
BLACK
  6
CONTINUOUS
100
AcDbLine
 10
2.783030905511811
 20
0.5198898425196851
 30
0
 11
2.7964966535433069
 21
0.5198898425196851
 31
0
  0
LINE
  5
D3
330
1A
100
AcDbEntity
  8
BLACK
  6
CONTINUOUS
100
AcDbLine
 10
2.7964966535433069
 20
0.5198898425196851
 30
0
 11
2.8098777165354329
 21
0.5183821653543307
 31
0
  0
LINE
  5
D4
330
1A
100
AcDbEntity
  8
BLACK
  6
CONTINUOUS
100
AcDbLine
 10
2.343745433070866
 20
0.4255194488188976
 30
0
 11
2.3443840551181103
 21
0.4250927165354331
 31
0
  0
LINE
  5
D5
330
1A
100
AcDbEntity
  8
BLACK
  6
CONTINUOUS
100
AcDbLine
 10
2.3443840551181103
 20
0.4250927165354331
 30
0
 11
2.3448107874015749
 21
0.424454094488189
 31
0
  0
LINE
  5
D6
330
1A
100
AcDbEntity
  8
BLACK
  6
CONTINUOUS
100
AcDbLine
 10
2.3448107874015749
 20
0.424454094488189
 30
0
 11
2.34496062992126
 21
0.4237007874015748
 31
0
  0
LINE
  5
D7
330
1A
100
AcDbEntity
  8
BLACK
  6
CONTINUOUS
100
AcDbLine
 10
2.34496062992126
 20
0.4237007874015748
 30
0
 11
2.34496062992126
 21
0.3637007874015748
 31
0
  0
LINE
  5
D8
330
1A
100
AcDbEntity
  8
BLACK
  6
CONTINUOUS
100
AcDbLine
 10
2.34496062992126
 20
0.3637007874015748
 30
0
 11
2.3448107874015749
 21
0.3629474803149606
 31
0
  0
LINE
  5
D9
330
1A
100
AcDbEntity
  8
BLACK
  6
CONTINUOUS
100
AcDbLine
 10
2.3448107874015749
 20
0.3629474803149606
 30
0
 11
2.3443840551181103
 21
0.3623088582677165
 31
0
  0
LINE
  5
DA
330
1A
100
AcDbEntity
  8
BLACK
  6
CONTINUOUS
100
AcDbLine
 10
2.3443840551181103
 20
0.3623088582677165
 30
0
 11
2.343745433070866
 21
0.361882125984252
 31
0
  0
LINE
  5
DB
330
1A
100
AcDbEntity
  8
BLACK
  6
CONTINUOUS
100
AcDbLine
 10
2.343745433070866
 20
0.361882125984252
 30
0
 11
2.3429921259842521
 21
0.3617322834645669
 31
0
  0
LINE
  5
DC
330
1A
100
AcDbEntity
  8
BLACK
  6
CONTINUOUS
100
AcDbLine
 10
2.3429921259842521
 20
0.3617322834645669
 30
0
 11
2.2829921259842521
 21
0.3617322834645669
 31
0
  0
LINE
  5
DD
330
1A
100
AcDbEntity
  8
BLACK
  6
CONTINUOUS
100
AcDbLine
 10
2.2829921259842521
 20
0.3617322834645669
 30
0
 11
2.2822388188976377
 21
0.361882125984252
 31
0
  0
LINE
  5
DE
330
1A
100
AcDbEntity
  8
BLACK
  6
CONTINUOUS
100
AcDbLine
 10
2.2822388188976377
 20
0.361882125984252
 30
0
 11
2.2816001968503938
 21
0.3623088582677165
 31
0
  0
LINE
  5
DF
330
1A
100
AcDbEntity
  8
BLACK
  6
CONTINUOUS
100
AcDbLine
 10
2.2816001968503938
 20
0.3623088582677165
 30
0
 11
2.2811734645669293
 21
0.3629474803149606
 31
0
  0
LINE
  5
E0
330
1A
100
AcDbEntity
  8
BLACK
  6
CONTINUOUS
100
AcDbLine
 10
2.2811734645669293
 20
0.3629474803149606
 30
0
 11
2.2810236220472442
 21
0.3637007874015748
 31
0
  0
LINE
  5
E1
330
1A
100
AcDbEntity
  8
BLACK
  6
CONTINUOUS
100
AcDbLine
 10
2.2810236220472442
 20
0.3637007874015748
 30
0
 11
2.2810236220472442
 21
0.4237007874015748
 31
0
  0
LINE
  5
E2
330
1A
100
AcDbEntity
  8
BLACK
  6
CONTINUOUS
100
AcDbLine
 10
2.2810236220472442
 20
0.4237007874015748
 30
0
 11
2.2811734645669293
 21
0.424454094488189
 31
0
  0
LINE
  5
E3
330
1A
100
AcDbEntity
  8
BLACK
  6
CONTINUOUS
100
AcDbLine
 10
2.2811734645669293
 20
0.424454094488189
 30
0
 11
2.2816001968503938
 21
0.4250927165354331
 31
0
  0
LINE
  5
E4
330
1A
100
AcDbEntity
  8
BLACK
  6
CONTINUOUS
100
AcDbLine
 10
2.2816001968503938
 20
0.4250927165354331
 30
0
 11
2.2822388188976377
 21
0.4255194488188976
 31
0
  0
LINE
  5
E5
330
1A
100
AcDbEntity
  8
BLACK
  6
CONTINUOUS
100
AcDbLine
 10
2.2822388188976377
 20
0.4255194488188976
 30
0
 11
2.2829921259842521
 21
0.4256692913385827
 31
0
  0
LINE
  5
E6
330
1A
100
AcDbEntity
  8
BLACK
  6
CONTINUOUS
100
AcDbLine
 10
2.2829921259842521
 20
0.4256692913385827
 30
0
 11
2.3429921259842521
 21
0.4256692913385827
 31
0
  0
LINE
  5
E7
330
1A
100
AcDbEntity
  8
BLACK
  6
CONTINUOUS
100
AcDbLine
 10
2.3429921259842521
 20
0.4256692913385827
 30
0
 11
2.343745433070866
 21
0.4255194488188976
 31
0
  0
LINE
  5
E8
330
1A
100
AcDbEntity
  8
BLACK
  6
CONTINUOUS
100
AcDbLine
 10
2.4437454330708661
 20
0.4255194488188976
 30
0
 11
2.44438405511811
 21
0.4250927165354331
 31
0
  0
LINE
  5
E9
330
1A
100
AcDbEntity
  8
BLACK
  6
CONTINUOUS
100
AcDbLine
 10
2.44438405511811
 20
0.4250927165354331
 30
0
 11
2.4448107874015745
 21
0.424454094488189
 31
0
  0
LINE
  5
EA
330
1A
100
AcDbEntity
  8
BLACK
  6
CONTINUOUS
100
AcDbLine
 10
2.4448107874015745
 20
0.424454094488189
 30
0
 11
2.4449606299212596
 21
0.4237007874015748
 31
0
  0
LINE
  5
EB
330
1A
100
AcDbEntity
  8
BLACK
  6
CONTINUOUS
100
AcDbLine
 10
2.4449606299212596
 20
0.4237007874015748
 30
0
 11
2.4449606299212596
 21
0.3637007874015748
 31
0
  0
LINE
  5
EC
330
1A
100
AcDbEntity
  8
BLACK
  6
CONTINUOUS
100
AcDbLine
 10
2.4449606299212596
 20
0.3637007874015748
 30
0
 11
2.4448107874015745
 21
0.3629474803149606
 31
0
  0
LINE
  5
ED
330
1A
100
AcDbEntity
  8
BLACK
  6
CONTINUOUS
100
AcDbLine
 10
2.4448107874015745
 20
0.3629474803149606
 30
0
 11
2.44438405511811
 21
0.3623088582677165
 31
0
  0
LINE
  5
EE
330
1A
100
AcDbEntity
  8
BLACK
  6
CONTINUOUS
100
AcDbLine
 10
2.44438405511811
 20
0.3623088582677165
 30
0
 11
2.4437454330708661
 21
0.361882125984252
 31
0
  0
LINE
  5
EF
330
1A
100
AcDbEntity
  8
BLACK
  6
CONTINUOUS
100
AcDbLine
 10
2.4437454330708661
 20
0.361882125984252
 30
0
 11
2.4429921259842518
 21
0.3617322834645669
 31
0
  0
LINE
  5
F0
330
1A
100
AcDbEntity
  8
BLACK
  6
CONTINUOUS
100
AcDbLine
 10
2.4429921259842518
 20
0.3617322834645669
 30
0
 11
2.3829921259842517
 21
0.3617322834645669
 31
0
  0
LINE
  5
F1
330
1A
100
AcDbEntity
  8
BLACK
  6
CONTINUOUS
100
AcDbLine
 10
2.3829921259842517
 20
0.3617322834645669
 30
0
 11
2.3822388188976378
 21
0.361882125984252
 31
0
  0
LINE
  5
F2
330
1A
100
AcDbEntity
  8
BLACK
  6
CONTINUOUS
100
AcDbLine
 10
2.3822388188976378
 20
0.361882125984252
 30
0
 11
2.3816001968503935
 21
0.3623088582677165
 31
0
  0
LINE
  5
F3
330
1A
100
AcDbEntity
  8
BLACK
  6
CONTINUOUS
100
AcDbLine
 10
2.3816001968503935
 20
0.3623088582677165
 30
0
 11
2.3811734645669289
 21
0.3629474803149606
 31
0
  0
LINE
  5
F4
330
1A
100
AcDbEntity
  8
BLACK
  6
CONTINUOUS
100
AcDbLine
 10
2.3811734645669289
 20
0.3629474803149606
 30
0
 11
2.3810236220472438
 21
0.3637007874015748
 31
0
  0
LINE
  5
F5
330
1A
100
AcDbEntity
  8
BLACK
  6
CONTINUOUS
100
AcDbLine
 10
2.3810236220472438
 20
0.3637007874015748
 30
0
 11
2.3810236220472438
 21
0.4237007874015748
 31
0
  0
LINE
  5
F6
330
1A
100
AcDbEntity
  8
BLACK
  6
CONTINUOUS
100
AcDbLine
 10
2.3810236220472438
 20
0.4237007874015748
 30
0
 11
2.3811734645669289
 21
0.424454094488189
 31
0
  0
LINE
  5
F7
330
1A
100
AcDbEntity
  8
BLACK
  6
CONTINUOUS
100
AcDbLine
 10
2.3811734645669289
 20
0.424454094488189
 30
0
 11
2.3816001968503935
 21
0.4250927165354331
 31
0
  0
LINE
  5
F8
330
1A
100
AcDbEntity
  8
BLACK
  6
CONTINUOUS
100
AcDbLine
 10
2.3816001968503935
 20
0.4250927165354331
 30
0
 11
2.3822388188976378
 21
0.4255194488188976
 31
0
  0
LINE
  5
F9
330
1A
100
AcDbEntity
  8
BLACK
  6
CONTINUOUS
100
AcDbLine
 10
2.3822388188976378
 20
0.4255194488188976
 30
0
 11
2.3829921259842517
 21
0.4256692913385827
 31
0
  0
LINE
  5
FA
330
1A
100
AcDbEntity
  8
BLACK
  6
CONTINUOUS
100
AcDbLine
 10
2.3829921259842517
 20
0.4256692913385827
 30
0
 11
2.4429921259842518
 21
0.4256692913385827
 31
0
  0
LINE
  5
FB
330
1A
100
AcDbEntity
  8
BLACK
  6
CONTINUOUS
100
AcDbLine
 10
2.4429921259842518
 20
0.4256692913385827
 30
0
 11
2.4437454330708661
 21
0.4255194488188976
 31
0
  0
LINE
  5
FC
330
1A
100
AcDbEntity
  8
BLACK
  6
CONTINUOUS
100
AcDbLine
 10
2.5437454330708662
 20
0.4255194488188976
 30
0
 11
2.5443840551181101
 21
0.4250927165354331
 31
0
  0
LINE
  5
FD
330
1A
100
AcDbEntity
  8
BLACK
  6
CONTINUOUS
100
AcDbLine
 10
2.5443840551181101
 20
0.4250927165354331
 30
0
 11
2.5448107874015746
 21
0.424454094488189
 31
0
  0
LINE
  5
FE
330
1A
100
AcDbEntity
  8
BLACK
  6
CONTINUOUS
100
AcDbLine
 10
2.5448107874015746
 20
0.424454094488189
 30
0
 11
2.5449606299212597
 21
0.4237007874015748
 31
0
  0
LINE
  5
FF
330
1A
100
AcDbEntity
  8
BLACK
  6
CONTINUOUS
100
AcDbLine
 10
2.5449606299212597
 20
0.4237007874015748
 30
0
 11
2.5449606299212597
 21
0.3637007874015748
 31
0
  0
LINE
  5
100
330
1A
100
AcDbEntity
  8
BLACK
  6
CONTINUOUS
100
AcDbLine
 10
2.5449606299212597
 20
0.3637007874015748
 30
0
 11
2.5448107874015746
 21
0.3629474803149606
 31
0
  0
LINE
  5
101
330
1A
100
AcDbEntity
  8
BLACK
  6
CONTINUOUS
100
AcDbLine
 10
2.5448107874015746
 20
0.3629474803149606
 30
0
 11
2.5443840551181101
 21
0.3623088582677165
 31
0
  0
LINE
  5
102
330
1A
100
AcDbEntity
  8
BLACK
  6
CONTINUOUS
100
AcDbLine
 10
2.5443840551181101
 20
0.3623088582677165
 30
0
 11
2.5437454330708662
 21
0.361882125984252
 31
0
  0
LINE
  5
103
330
1A
100
AcDbEntity
  8
BLACK
  6
CONTINUOUS
100
AcDbLine
 10
2.5437454330708662
 20
0.361882125984252
 30
0
 11
2.5429921259842518
 21
0.3617322834645669
 31
0
  0
LINE
  5
104
330
1A
100
AcDbEntity
  8
BLACK
  6
CONTINUOUS
100
AcDbLine
 10
2.5429921259842518
 20
0.3617322834645669
 30
0
 11
2.4829921259842518
 21
0.3617322834645669
 31
0
  0
LINE
  5
105
330
1A
100
AcDbEntity
  8
BLACK
  6
CONTINUOUS
100
AcDbLine
 10
2.4829921259842518
 20
0.3617322834645669
 30
0
 11
2.4822388188976379
 21
0.361882125984252
 31
0
  0
LINE
  5
106
330
1A
100
AcDbEntity
  8
BLACK
  6
CONTINUOUS
100
AcDbLine
 10
2.4822388188976379
 20
0.361882125984252
 30
0
 11
2.4816001968503936
 21
0.3623088582677165
 31
0
  0
LINE
  5
107
330
1A
100
AcDbEntity
  8
BLACK
  6
CONTINUOUS
100
AcDbLine
 10
2.4816001968503936
 20
0.3623088582677165
 30
0
 11
2.481173464566929
 21
0.3629474803149606
 31
0
  0
LINE
  5
108
330
1A
100
AcDbEntity
  8
BLACK
  6
CONTINUOUS
100
AcDbLine
 10
2.481173464566929
 20
0.3629474803149606
 30
0
 11
2.4810236220472439
 21
0.3637007874015748
 31
0
  0
LINE
  5
109
330
1A
100
AcDbEntity
  8
BLACK
  6
CONTINUOUS
100
AcDbLine
 10
2.4810236220472439
 20
0.3637007874015748
 30
0
 11
2.4810236220472439
 21
0.4237007874015748
 31
0
  0
LINE
  5
10A
330
1A
100
AcDbEntity
  8
BLACK
  6
CONTINUOUS
100
AcDbLine
 10
2.4810236220472439
 20
0.4237007874015748
 30
0
 11
2.481173464566929
 21
0.424454094488189
 31
0
  0
LINE
  5
10B
330
1A
100
AcDbEntity
  8
BLACK
  6
CONTINUOUS
100
AcDbLine
 10
2.481173464566929
 20
0.424454094488189
 30
0
 11
2.4816001968503936
 21
0.4250927165354331
 31
0
  0
LINE
  5
10C
330
1A
100
AcDbEntity
  8
BLACK
  6
CONTINUOUS
100
AcDbLine
 10
2.4816001968503936
 20
0.4250927165354331
 30
0
 11
2.4822388188976379
 21
0.4255194488188976
 31
0
  0
LINE
  5
10D
330
1A
100
AcDbEntity
  8
BLACK
  6
CONTINUOUS
100
AcDbLine
 10
2.4822388188976379
 20
0.4255194488188976
 30
0
 11
2.4829921259842518
 21
0.4256692913385827
 31
0
  0
LINE
  5
10E
330
1A
100
AcDbEntity
  8
BLACK
  6
CONTINUOUS
100
AcDbLine
 10
2.4829921259842518
 20
0.4256692913385827
 30
0
 11
2.5429921259842518
 21
0.4256692913385827
 31
0
  0
LINE
  5
10F
330
1A
100
AcDbEntity
  8
BLACK
  6
CONTINUOUS
100
AcDbLine
 10
2.5429921259842518
 20
0.4256692913385827
 30
0
 11
2.5437454330708662
 21
0.4255194488188976
 31
0
  0
LINE
  5
110
330
1A
100
AcDbEntity
  8
BLACK
  6
CONTINUOUS
100
AcDbLine
 10
2.7236666929133859
 20
0.6617399212598425
 30
0
 11
2.7243053149606298
 21
0.6613131889763779
 31
0
  0
LINE
  5
111
330
1A
100
AcDbEntity
  8
BLACK
  6
CONTINUOUS
100
AcDbLine
 10
2.7243053149606298
 20
0.6613131889763779
 30
0
 11
2.7247320472440943
 21
0.6606745669291338
 31
0
  0
LINE
  5
112
330
1A
100
AcDbEntity
  8
BLACK
  6
CONTINUOUS
100
AcDbLine
 10
2.7247320472440943
 20
0.6606745669291338
 30
0
 11
2.7248818897637794
 21
0.6599212598425197
 31
0
  0
LINE
  5
113
330
1A
100
AcDbEntity
  8
BLACK
  6
CONTINUOUS
100
AcDbLine
 10
2.7248818897637794
 20
0.6599212598425197
 30
0
 11
2.7248818897637794
 21
0.5999212598425196
 31
0
  0
LINE
  5
114
330
1A
100
AcDbEntity
  8
BLACK
  6
CONTINUOUS
100
AcDbLine
 10
2.7248818897637794
 20
0.5999212598425196
 30
0
 11
2.7247320472440943
 21
0.5991679527559055
 31
0
  0
LINE
  5
115
330
1A
100
AcDbEntity
  8
BLACK
  6
CONTINUOUS
100
AcDbLine
 10
2.7247320472440943
 20
0.5991679527559055
 30
0
 11
2.7243053149606298
 21
0.5985293307086614
 31
0
  0
LINE
  5
116
330
1A
100
AcDbEntity
  8
BLACK
  6
CONTINUOUS
100
AcDbLine
 10
2.7243053149606298
 20
0.5985293307086614
 30
0
 11
2.7236666929133859
 21
0.5981025984251969
 31
0
  0
LINE
  5
117
330
1A
100
AcDbEntity
  8
BLACK
  6
CONTINUOUS
100
AcDbLine
 10
2.7236666929133859
 20
0.5981025984251969
 30
0
 11
2.7229133858267716
 21
0.5979527559055118
 31
0
  0
LINE
  5
118
330
1A
100
AcDbEntity
  8
BLACK
  6
CONTINUOUS
100
AcDbLine
 10
2.7229133858267716
 20
0.5979527559055118
 30
0
 11
2.6629133858267715
 21
0.5979527559055118
 31
0
  0
LINE
  5
119
330
1A
100
AcDbEntity
  8
BLACK
  6
CONTINUOUS
100
AcDbLine
 10
2.6629133858267715
 20
0.5979527559055118
 30
0
 11
2.6621600787401576
 21
0.5981025984251969
 31
0
  0
LINE
  5
11A
330
1A
100
AcDbEntity
  8
BLACK
  6
CONTINUOUS
100
AcDbLine
 10
2.6621600787401576
 20
0.5981025984251969
 30
0
 11
2.6615214566929133
 21
0.5985293307086614
 31
0
  0
LINE
  5
11B
330
1A
100
AcDbEntity
  8
BLACK
  6
CONTINUOUS
100
AcDbLine
 10
2.6615214566929133
 20
0.5985293307086614
 30
0
 11
2.6610947244094487
 21
0.5991679527559055
 31
0
  0
LINE
  5
11C
330
1A
100
AcDbEntity
  8
BLACK
  6
CONTINUOUS
100
AcDbLine
 10
2.6610947244094487
 20
0.5991679527559055
 30
0
 11
2.6609448818897636
 21
0.5999212598425196
 31
0
  0
LINE
  5
11D
330
1A
100
AcDbEntity
  8
BLACK
  6
CONTINUOUS
100
AcDbLine
 10
2.6609448818897636
 20
0.5999212598425196
 30
0
 11
2.6609448818897636
 21
0.6599212598425197
 31
0
  0
LINE
  5
11E
330
1A
100
AcDbEntity
  8
BLACK
  6
CONTINUOUS
100
AcDbLine
 10
2.6609448818897636
 20
0.6599212598425197
 30
0
 11
2.6610947244094487
 21
0.6606745669291338
 31
0
  0
LINE
  5
11F
330
1A
100
AcDbEntity
  8
BLACK
  6
CONTINUOUS
100
AcDbLine
 10
2.6610947244094487
 20
0.6606745669291338
 30
0
 11
2.6615214566929133
 21
0.6613131889763779
 31
0
  0
LINE
  5
120
330
1A
100
AcDbEntity
  8
BLACK
  6
CONTINUOUS
100
AcDbLine
 10
2.6615214566929133
 20
0.6613131889763779
 30
0
 11
2.6621600787401576
 21
0.6617399212598425
 31
0
  0
LINE
  5
121
330
1A
100
AcDbEntity
  8
BLACK
  6
CONTINUOUS
100
AcDbLine
 10
2.6621600787401576
 20
0.6617399212598425
 30
0
 11
2.6629133858267715
 21
0.6618897637795276
 31
0
  0
LINE
  5
122
330
1A
100
AcDbEntity
  8
BLACK
  6
CONTINUOUS
100
AcDbLine
 10
2.6629133858267715
 20
0.6618897637795276
 30
0
 11
2.7229133858267716
 21
0.6618897637795276
 31
0
  0
LINE
  5
123
330
1A
100
AcDbEntity
  8
BLACK
  6
CONTINUOUS
100
AcDbLine
 10
2.7229133858267716
 20
0.6618897637795276
 30
0
 11
2.7236666929133859
 21
0.6617399212598425
 31
0
  0
LINE
  5
124
330
1A
100
AcDbEntity
  8
BLACK
  6
CONTINUOUS
100
AcDbLine
 10
2.8236666929133856
 20
0.6617399212598425
 30
0
 11
2.8243053149606299
 21
0.6613131889763779
 31
0
  0
LINE
  5
125
330
1A
100
AcDbEntity
  8
BLACK
  6
CONTINUOUS
100
AcDbLine
 10
2.8243053149606299
 20
0.6613131889763779
 30
0
 11
2.8247320472440944
 21
0.6606745669291338
 31
0
  0
LINE
  5
126
330
1A
100
AcDbEntity
  8
BLACK
  6
CONTINUOUS
100
AcDbLine
 10
2.8247320472440944
 20
0.6606745669291338
 30
0
 11
2.8248818897637795
 21
0.6599212598425197
 31
0
  0
LINE
  5
127
330
1A
100
AcDbEntity
  8
BLACK
  6
CONTINUOUS
100
AcDbLine
 10
2.8248818897637795
 20
0.6599212598425197
 30
0
 11
2.8248818897637795
 21
0.5999212598425196
 31
0
  0
LINE
  5
128
330
1A
100
AcDbEntity
  8
BLACK
  6
CONTINUOUS
100
AcDbLine
 10
2.8248818897637795
 20
0.5999212598425196
 30
0
 11
2.8247320472440944
 21
0.5991679527559055
 31
0
  0
LINE
  5
129
330
1A
100
AcDbEntity
  8
BLACK
  6
CONTINUOUS
100
AcDbLine
 10
2.8247320472440944
 20
0.5991679527559055
 30
0
 11
2.8243053149606299
 21
0.5985293307086614
 31
0
  0
LINE
  5
12A
330
1A
100
AcDbEntity
  8
BLACK
  6
CONTINUOUS
100
AcDbLine
 10
2.8243053149606299
 20
0.5985293307086614
 30
0
 11
2.8236666929133856
 21
0.5981025984251969
 31
0
  0
LINE
  5
12B
330
1A
100
AcDbEntity
  8
BLACK
  6
CONTINUOUS
100
AcDbLine
 10
2.8236666929133856
 20
0.5981025984251969
 30
0
 11
2.8229133858267716
 21
0.5979527559055118
 31
0
  0
LINE
  5
12C
330
1A
100
AcDbEntity
  8
BLACK
  6
CONTINUOUS
100
AcDbLine
 10
2.8229133858267716
 20
0.5979527559055118
 30
0
 11
2.7629133858267716
 21
0.5979527559055118
 31
0
  0
LINE
  5
12D
330
1A
100
AcDbEntity
  8
BLACK
  6
CONTINUOUS
100
AcDbLine
 10
2.7629133858267716
 20
0.5979527559055118
 30
0
 11
2.7621600787401572
 21
0.5981025984251969
 31
0
  0
LINE
  5
12E
330
1A
100
AcDbEntity
  8
BLACK
  6
CONTINUOUS
100
AcDbLine
 10
2.7621600787401572
 20
0.5981025984251969
 30
0
 11
2.7615214566929134
 21
0.5985293307086614
 31
0
  0
LINE
  5
12F
330
1A
100
AcDbEntity
  8
BLACK
  6
CONTINUOUS
100
AcDbLine
 10
2.7615214566929134
 20
0.5985293307086614
 30
0
 11
2.7610947244094488
 21
0.5991679527559055
 31
0
  0
LINE
  5
130
330
1A
100
AcDbEntity
  8
BLACK
  6
CONTINUOUS
100
AcDbLine
 10
2.7610947244094488
 20
0.5991679527559055
 30
0
 11
2.7609448818897637
 21
0.5999212598425196
 31
0
  0
LINE
  5
131
330
1A
100
AcDbEntity
  8
BLACK
  6
CONTINUOUS
100
AcDbLine
 10
2.7609448818897637
 20
0.5999212598425196
 30
0
 11
2.7609448818897637
 21
0.6599212598425197
 31
0
  0
LINE
  5
132
330
1A
100
AcDbEntity
  8
BLACK
  6
CONTINUOUS
100
AcDbLine
 10
2.7609448818897637
 20
0.6599212598425197
 30
0
 11
2.7610947244094488
 21
0.6606745669291338
 31
0
  0
LINE
  5
133
330
1A
100
AcDbEntity
  8
BLACK
  6
CONTINUOUS
100
AcDbLine
 10
2.7610947244094488
 20
0.6606745669291338
 30
0
 11
2.7615214566929134
 21
0.6613131889763779
 31
0
  0
LINE
  5
134
330
1A
100
AcDbEntity
  8
BLACK
  6
CONTINUOUS
100
AcDbLine
 10
2.7615214566929134
 20
0.6613131889763779
 30
0
 11
2.7621600787401572
 21
0.6617399212598425
 31
0
  0
LINE
  5
135
330
1A
100
AcDbEntity
  8
BLACK
  6
CONTINUOUS
100
AcDbLine
 10
2.7621600787401572
 20
0.6617399212598425
 30
0
 11
2.7629133858267716
 21
0.6618897637795276
 31
0
  0
LINE
  5
136
330
1A
100
AcDbEntity
  8
BLACK
  6
CONTINUOUS
100
AcDbLine
 10
2.7629133858267716
 20
0.6618897637795276
 30
0
 11
2.8229133858267716
 21
0.6618897637795276
 31
0
  0
LINE
  5
137
330
1A
100
AcDbEntity
  8
BLACK
  6
CONTINUOUS
100
AcDbLine
 10
2.8229133858267716
 20
0.6618897637795276
 30
0
 11
2.8236666929133856
 21
0.6617399212598425
 31
0
  0
LINE
  5
138
330
1A
100
AcDbEntity
  8
BLACK
  6
CONTINUOUS
100
AcDbLine
 10
0.4350840157480315
 20
0.7377241732283465
 30
0
 11
0.4357226377952756
 21
0.7372974409448819
 31
0
  0
LINE
  5
139
330
1A
100
AcDbEntity
  8
BLACK
  6
CONTINUOUS
100
AcDbLine
 10
0.4357226377952756
 20
0.7372974409448819
 30
0
 11
0.4361493700787402
 21
0.7366588188976377
 31
0
  0
LINE
  5
13A
330
1A
100
AcDbEntity
  8
BLACK
  6
CONTINUOUS
100
AcDbLine
 10
0.4361493700787402
 20
0.7366588188976377
 30
0
 11
0.4362992125984252
 21
0.7359055118110236
 31
0
  0
LINE
  5
13B
330
1A
100
AcDbEntity
  8
BLACK
  6
CONTINUOUS
100
AcDbLine
 10
0.4362992125984252
 20
0.7359055118110236
 30
0
 11
0.4362992125984252
 21
0.6759055118110237
 31
0
  0
LINE
  5
13C
330
1A
100
AcDbEntity
  8
BLACK
  6
CONTINUOUS
100
AcDbLine
 10
0.4362992125984252
 20
0.6759055118110237
 30
0
 11
0.4361493700787402
 21
0.6751522047244094
 31
0
  0
LINE
  5
13D
330
1A
100
AcDbEntity
  8
BLACK
  6
CONTINUOUS
100
AcDbLine
 10
0.4361493700787402
 20
0.6751522047244094
 30
0
 11
0.4357226377952756
 21
0.6745135826771653
 31
0
  0
LINE
  5
13E
330
1A
100
AcDbEntity
  8
BLACK
  6
CONTINUOUS
100
AcDbLine
 10
0.4357226377952756
 20
0.6745135826771653
 30
0
 11
0.4350840157480315
 21
0.6740868503937008
 31
0
  0
LINE
  5
13F
330
1A
100
AcDbEntity
  8
BLACK
  6
CONTINUOUS
100
AcDbLine
 10
0.4350840157480315
 20
0.6740868503937008
 30
0
 11
0.4343307086614173
 21
0.6739370078740158
 31
0
  0
LINE
  5
140
330
1A
100
AcDbEntity
  8
BLACK
  6
CONTINUOUS
100
AcDbLine
 10
0.4343307086614173
 20
0.6739370078740158
 30
0
 11
0.3743307086614173
 21
0.6739370078740158
 31
0
  0
LINE
  5
141
330
1A
100
AcDbEntity
  8
BLACK
  6
CONTINUOUS
100
AcDbLine
 10
0.3743307086614173
 20
0.6739370078740158
 30
0
 11
0.3735774015748031
 21
0.6740868503937008
 31
0
  0
LINE
  5
142
330
1A
100
AcDbEntity
  8
BLACK
  6
CONTINUOUS
100
AcDbLine
 10
0.3735774015748031
 20
0.6740868503937008
 30
0
 11
0.3729387795275591
 21
0.6745135826771653
 31
0
  0
LINE
  5
143
330
1A
100
AcDbEntity
  8
BLACK
  6
CONTINUOUS
100
AcDbLine
 10
0.3729387795275591
 20
0.6745135826771653
 30
0
 11
0.3725120472440945
 21
0.6751522047244094
 31
0
  0
LINE
  5
144
330
1A
100
AcDbEntity
  8
BLACK
  6
CONTINUOUS
100
AcDbLine
 10
0.3725120472440945
 20
0.6751522047244094
 30
0
 11
0.3723622047244095
 21
0.6759055118110237
 31
0
  0
LINE
  5
145
330
1A
100
AcDbEntity
  8
BLACK
  6
CONTINUOUS
100
AcDbLine
 10
0.3723622047244095
 20
0.6759055118110237
 30
0
 11
0.3723622047244095
 21
0.7359055118110236
 31
0
  0
LINE
  5
146
330
1A
100
AcDbEntity
  8
BLACK
  6
CONTINUOUS
100
AcDbLine
 10
0.3723622047244095
 20
0.7359055118110236
 30
0
 11
0.3725120472440945
 21
0.7366588188976377
 31
0
  0
LINE
  5
147
330
1A
100
AcDbEntity
  8
BLACK
  6
CONTINUOUS
100
AcDbLine
 10
0.3725120472440945
 20
0.7366588188976377
 30
0
 11
0.3729387795275591
 21
0.7372974409448819
 31
0
  0
LINE
  5
148
330
1A
100
AcDbEntity
  8
BLACK
  6
CONTINUOUS
100
AcDbLine
 10
0.3729387795275591
 20
0.7372974409448819
 30
0
 11
0.3735774015748031
 21
0.7377241732283465
 31
0
  0
LINE
  5
149
330
1A
100
AcDbEntity
  8
BLACK
  6
CONTINUOUS
100
AcDbLine
 10
0.3735774015748031
 20
0.7377241732283465
 30
0
 11
0.3743307086614173
 21
0.7378740157480315
 31
0
  0
LINE
  5
14A
330
1A
100
AcDbEntity
  8
BLACK
  6
CONTINUOUS
100
AcDbLine
 10
0.3743307086614173
 20
0.7378740157480315
 30
0
 11
0.4343307086614173
 21
0.7378740157480315
 31
0
  0
LINE
  5
14B
330
1A
100
AcDbEntity
  8
BLACK
  6
CONTINUOUS
100
AcDbLine
 10
0.4343307086614173
 20
0.7378740157480315
 30
0
 11
0.4350840157480315
 21
0.7377241732283465
 31
0
  0
LINE
  5
14C
330
1A
100
AcDbEntity
  8
BLACK
  6
CONTINUOUS
100
AcDbLine
 10
0.5350840157480314
 20
0.7377241732283465
 30
0
 11
0.5357226377952756
 21
0.7372974409448819
 31
0
  0
LINE
  5
14D
330
1A
100
AcDbEntity
  8
BLACK
  6
CONTINUOUS
100
AcDbLine
 10
0.5357226377952756
 20
0.7372974409448819
 30
0
 11
0.5361493700787402
 21
0.7366588188976377
 31
0
  0
LINE
  5
14E
330
1A
100
AcDbEntity
  8
BLACK
  6
CONTINUOUS
100
AcDbLine
 10
0.5361493700787402
 20
0.7366588188976377
 30
0
 11
0.5362992125984252
 21
0.7359055118110236
 31
0
  0
LINE
  5
14F
330
1A
100
AcDbEntity
  8
BLACK
  6
CONTINUOUS
100
AcDbLine
 10
0.5362992125984252
 20
0.7359055118110236
 30
0
 11
0.5362992125984252
 21
0.6759055118110237
 31
0
  0
LINE
  5
150
330
1A
100
AcDbEntity
  8
BLACK
  6
CONTINUOUS
100
AcDbLine
 10
0.5362992125984252
 20
0.6759055118110237
 30
0
 11
0.5361493700787402
 21
0.6751522047244094
 31
0
  0
LINE
  5
151
330
1A
100
AcDbEntity
  8
BLACK
  6
CONTINUOUS
100
AcDbLine
 10
0.5361493700787402
 20
0.6751522047244094
 30
0
 11
0.5357226377952756
 21
0.6745135826771653
 31
0
  0
LINE
  5
152
330
1A
100
AcDbEntity
  8
BLACK
  6
CONTINUOUS
100
AcDbLine
 10
0.5357226377952756
 20
0.6745135826771653
 30
0
 11
0.5350840157480314
 21
0.6740868503937008
 31
0
  0
LINE
  5
153
330
1A
100
AcDbEntity
  8
BLACK
  6
CONTINUOUS
100
AcDbLine
 10
0.5350840157480314
 20
0.6740868503937008
 30
0
 11
0.5343307086614173
 21
0.6739370078740158
 31
0
  0
LINE
  5
154
330
1A
100
AcDbEntity
  8
BLACK
  6
CONTINUOUS
100
AcDbLine
 10
0.5343307086614173
 20
0.6739370078740158
 30
0
 11
0.4743307086614173
 21
0.6739370078740158
 31
0
  0
LINE
  5
155
330
1A
100
AcDbEntity
  8
BLACK
  6
CONTINUOUS
100
AcDbLine
 10
0.4743307086614173
 20
0.6739370078740158
 30
0
 11
0.4735774015748032
 21
0.6740868503937008
 31
0
  0
LINE
  5
156
330
1A
100
AcDbEntity
  8
BLACK
  6
CONTINUOUS
100
AcDbLine
 10
0.4735774015748032
 20
0.6740868503937008
 30
0
 11
0.472938779527559
 21
0.6745135826771653
 31
0
  0
LINE
  5
157
330
1A
100
AcDbEntity
  8
BLACK
  6
CONTINUOUS
100
AcDbLine
 10
0.472938779527559
 20
0.6745135826771653
 30
0
 11
0.4725120472440945
 21
0.6751522047244094
 31
0
  0
LINE
  5
158
330
1A
100
AcDbEntity
  8
BLACK
  6
CONTINUOUS
100
AcDbLine
 10
0.4725120472440945
 20
0.6751522047244094
 30
0
 11
0.4723622047244094
 21
0.6759055118110237
 31
0
  0
LINE
  5
159
330
1A
100
AcDbEntity
  8
BLACK
  6
CONTINUOUS
100
AcDbLine
 10
0.4723622047244094
 20
0.6759055118110237
 30
0
 11
0.4723622047244094
 21
0.7359055118110236
 31
0
  0
LINE
  5
15A
330
1A
100
AcDbEntity
  8
BLACK
  6
CONTINUOUS
100
AcDbLine
 10
0.4723622047244094
 20
0.7359055118110236
 30
0
 11
0.4725120472440945
 21
0.7366588188976377
 31
0
  0
LINE
  5
15B
330
1A
100
AcDbEntity
  8
BLACK
  6
CONTINUOUS
100
AcDbLine
 10
0.4725120472440945
 20
0.7366588188976377
 30
0
 11
0.472938779527559
 21
0.7372974409448819
 31
0
  0
LINE
  5
15C
330
1A
100
AcDbEntity
  8
BLACK
  6
CONTINUOUS
100
AcDbLine
 10
0.472938779527559
 20
0.7372974409448819
 30
0
 11
0.4735774015748032
 21
0.7377241732283465
 31
0
  0
LINE
  5
15D
330
1A
100
AcDbEntity
  8
BLACK
  6
CONTINUOUS
100
AcDbLine
 10
0.4735774015748032
 20
0.7377241732283465
 30
0
 11
0.4743307086614173
 21
0.7378740157480315
 31
0
  0
LINE
  5
15E
330
1A
100
AcDbEntity
  8
BLACK
  6
CONTINUOUS
100
AcDbLine
 10
0.4743307086614173
 20
0.7378740157480315
 30
0
 11
0.5343307086614173
 21
0.7378740157480315
 31
0
  0
LINE
  5
15F
330
1A
100
AcDbEntity
  8
BLACK
  6
CONTINUOUS
100
AcDbLine
 10
0.5343307086614173
 20
0.7378740157480315
 30
0
 11
0.5350840157480314
 21
0.7377241732283465
 31
0
  0
LINE
  5
160
330
1A
100
AcDbEntity
  8
BLACK
  6
CONTINUOUS
100
AcDbLine
 10
2.7236666929133859
 20
0.7617399212598425
 30
0
 11
2.7243053149606298
 21
0.7613131889763779
 31
0
  0
LINE
  5
161
330
1A
100
AcDbEntity
  8
BLACK
  6
CONTINUOUS
100
AcDbLine
 10
2.7243053149606298
 20
0.7613131889763779
 30
0
 11
2.7247320472440943
 21
0.7606745669291338
 31
0
  0
LINE
  5
162
330
1A
100
AcDbEntity
  8
BLACK
  6
CONTINUOUS
100
AcDbLine
 10
2.7247320472440943
 20
0.7606745669291338
 30
0
 11
2.7248818897637794
 21
0.7599212598425197
 31
0
  0
LINE
  5
163
330
1A
100
AcDbEntity
  8
BLACK
  6
CONTINUOUS
100
AcDbLine
 10
2.7248818897637794
 20
0.7599212598425197
 30
0
 11
2.7248818897637794
 21
0.6999212598425196
 31
0
  0
LINE
  5
164
330
1A
100
AcDbEntity
  8
BLACK
  6
CONTINUOUS
100
AcDbLine
 10
2.7248818897637794
 20
0.6999212598425196
 30
0
 11
2.7247320472440943
 21
0.6991679527559055
 31
0
  0
LINE
  5
165
330
1A
100
AcDbEntity
  8
BLACK
  6
CONTINUOUS
100
AcDbLine
 10
2.7247320472440943
 20
0.6991679527559055
 30
0
 11
2.7243053149606298
 21
0.6985293307086614
 31
0
  0
LINE
  5
166
330
1A
100
AcDbEntity
  8
BLACK
  6
CONTINUOUS
100
AcDbLine
 10
2.7243053149606298
 20
0.6985293307086614
 30
0
 11
2.7236666929133859
 21
0.6981025984251968
 31
0
  0
LINE
  5
167
330
1A
100
AcDbEntity
  8
BLACK
  6
CONTINUOUS
100
AcDbLine
 10
2.7236666929133859
 20
0.6981025984251968
 30
0
 11
2.7229133858267716
 21
0.6979527559055118
 31
0
  0
LINE
  5
168
330
1A
100
AcDbEntity
  8
BLACK
  6
CONTINUOUS
100
AcDbLine
 10
2.7229133858267716
 20
0.6979527559055118
 30
0
 11
2.6629133858267715
 21
0.6979527559055118
 31
0
  0
LINE
  5
169
330
1A
100
AcDbEntity
  8
BLACK
  6
CONTINUOUS
100
AcDbLine
 10
2.6629133858267715
 20
0.6979527559055118
 30
0
 11
2.6621600787401576
 21
0.6981025984251968
 31
0
  0
LINE
  5
16A
330
1A
100
AcDbEntity
  8
BLACK
  6
CONTINUOUS
100
AcDbLine
 10
2.6621600787401576
 20
0.6981025984251968
 30
0
 11
2.6615214566929133
 21
0.6985293307086614
 31
0
  0
LINE
  5
16B
330
1A
100
AcDbEntity
  8
BLACK
  6
CONTINUOUS
100
AcDbLine
 10
2.6615214566929133
 20
0.6985293307086614
 30
0
 11
2.6610947244094487
 21
0.6991679527559055
 31
0
  0
LINE
  5
16C
330
1A
100
AcDbEntity
  8
BLACK
  6
CONTINUOUS
100
AcDbLine
 10
2.6610947244094487
 20
0.6991679527559055
 30
0
 11
2.6609448818897636
 21
0.6999212598425196
 31
0
  0
LINE
  5
16D
330
1A
100
AcDbEntity
  8
BLACK
  6
CONTINUOUS
100
AcDbLine
 10
2.6609448818897636
 20
0.6999212598425196
 30
0
 11
2.6609448818897636
 21
0.7599212598425197
 31
0
  0
LINE
  5
16E
330
1A
100
AcDbEntity
  8
BLACK
  6
CONTINUOUS
100
AcDbLine
 10
2.6609448818897636
 20
0.7599212598425197
 30
0
 11
2.6610947244094487
 21
0.7606745669291338
 31
0
  0
LINE
  5
16F
330
1A
100
AcDbEntity
  8
BLACK
  6
CONTINUOUS
100
AcDbLine
 10
2.6610947244094487
 20
0.7606745669291338
 30
0
 11
2.6615214566929133
 21
0.7613131889763779
 31
0
  0
LINE
  5
170
330
1A
100
AcDbEntity
  8
BLACK
  6
CONTINUOUS
100
AcDbLine
 10
2.6615214566929133
 20
0.7613131889763779
 30
0
 11
2.6621600787401576
 21
0.7617399212598425
 31
0
  0
LINE
  5
171
330
1A
100
AcDbEntity
  8
BLACK
  6
CONTINUOUS
100
AcDbLine
 10
2.6621600787401576
 20
0.7617399212598425
 30
0
 11
2.6629133858267715
 21
0.7618897637795276
 31
0
  0
LINE
  5
172
330
1A
100
AcDbEntity
  8
BLACK
  6
CONTINUOUS
100
AcDbLine
 10
2.6629133858267715
 20
0.7618897637795276
 30
0
 11
2.7229133858267716
 21
0.7618897637795276
 31
0
  0
LINE
  5
173
330
1A
100
AcDbEntity
  8
BLACK
  6
CONTINUOUS
100
AcDbLine
 10
2.7229133858267716
 20
0.7618897637795276
 30
0
 11
2.7236666929133859
 21
0.7617399212598425
 31
0
  0
LINE
  5
174
330
1A
100
AcDbEntity
  8
BLACK
  6
CONTINUOUS
100
AcDbLine
 10
2.8236666929133856
 20
0.7617399212598425
 30
0
 11
2.8243053149606299
 21
0.7613131889763779
 31
0
  0
LINE
  5
175
330
1A
100
AcDbEntity
  8
BLACK
  6
CONTINUOUS
100
AcDbLine
 10
2.8243053149606299
 20
0.7613131889763779
 30
0
 11
2.8247320472440944
 21
0.7606745669291338
 31
0
  0
LINE
  5
176
330
1A
100
AcDbEntity
  8
BLACK
  6
CONTINUOUS
100
AcDbLine
 10
2.8247320472440944
 20
0.7606745669291338
 30
0
 11
2.8248818897637795
 21
0.7599212598425197
 31
0
  0
LINE
  5
177
330
1A
100
AcDbEntity
  8
BLACK
  6
CONTINUOUS
100
AcDbLine
 10
2.8248818897637795
 20
0.7599212598425197
 30
0
 11
2.8248818897637795
 21
0.6999212598425196
 31
0
  0
LINE
  5
178
330
1A
100
AcDbEntity
  8
BLACK
  6
CONTINUOUS
100
AcDbLine
 10
2.8248818897637795
 20
0.6999212598425196
 30
0
 11
2.8247320472440944
 21
0.6991679527559055
 31
0
  0
LINE
  5
179
330
1A
100
AcDbEntity
  8
BLACK
  6
CONTINUOUS
100
AcDbLine
 10
2.8247320472440944
 20
0.6991679527559055
 30
0
 11
2.8243053149606299
 21
0.6985293307086614
 31
0
  0
LINE
  5
17A
330
1A
100
AcDbEntity
  8
BLACK
  6
CONTINUOUS
100
AcDbLine
 10
2.8243053149606299
 20
0.6985293307086614
 30
0
 11
2.8236666929133856
 21
0.6981025984251968
 31
0
  0
LINE
  5
17B
330
1A
100
AcDbEntity
  8
BLACK
  6
CONTINUOUS
100
AcDbLine
 10
2.8236666929133856
 20
0.6981025984251968
 30
0
 11
2.8229133858267716
 21
0.6979527559055118
 31
0
  0
LINE
  5
17C
330
1A
100
AcDbEntity
  8
BLACK
  6
CONTINUOUS
100
AcDbLine
 10
2.8229133858267716
 20
0.6979527559055118
 30
0
 11
2.7629133858267716
 21
0.6979527559055118
 31
0
  0
LINE
  5
17D
330
1A
100
AcDbEntity
  8
BLACK
  6
CONTINUOUS
100
AcDbLine
 10
2.7629133858267716
 20
0.6979527559055118
 30
0
 11
2.7621600787401572
 21
0.6981025984251968
 31
0
  0
LINE
  5
17E
330
1A
100
AcDbEntity
  8
BLACK
  6
CONTINUOUS
100
AcDbLine
 10
2.7621600787401572
 20
0.6981025984251968
 30
0
 11
2.7615214566929134
 21
0.6985293307086614
 31
0
  0
LINE
  5
17F
330
1A
100
AcDbEntity
  8
BLACK
  6
CONTINUOUS
100
AcDbLine
 10
2.7615214566929134
 20
0.6985293307086614
 30
0
 11
2.7610947244094488
 21
0.6991679527559055
 31
0
  0
LINE
  5
180
330
1A
100
AcDbEntity
  8
BLACK
  6
CONTINUOUS
100
AcDbLine
 10
2.7610947244094488
 20
0.6991679527559055
 30
0
 11
2.7609448818897637
 21
0.6999212598425196
 31
0
  0
LINE
  5
181
330
1A
100
AcDbEntity
  8
BLACK
  6
CONTINUOUS
100
AcDbLine
 10
2.7609448818897637
 20
0.6999212598425196
 30
0
 11
2.7609448818897637
 21
0.7599212598425197
 31
0
  0
LINE
  5
182
330
1A
100
AcDbEntity
  8
BLACK
  6
CONTINUOUS
100
AcDbLine
 10
2.7609448818897637
 20
0.7599212598425197
 30
0
 11
2.7610947244094488
 21
0.7606745669291338
 31
0
  0
LINE
  5
183
330
1A
100
AcDbEntity
  8
BLACK
  6
CONTINUOUS
100
AcDbLine
 10
2.7610947244094488
 20
0.7606745669291338
 30
0
 11
2.7615214566929134
 21
0.7613131889763779
 31
0
  0
LINE
  5
184
330
1A
100
AcDbEntity
  8
BLACK
  6
CONTINUOUS
100
AcDbLine
 10
2.7615214566929134
 20
0.7613131889763779
 30
0
 11
2.7621600787401572
 21
0.7617399212598425
 31
0
  0
LINE
  5
185
330
1A
100
AcDbEntity
  8
BLACK
  6
CONTINUOUS
100
AcDbLine
 10
2.7621600787401572
 20
0.7617399212598425
 30
0
 11
2.7629133858267716
 21
0.7618897637795276
 31
0
  0
LINE
  5
186
330
1A
100
AcDbEntity
  8
BLACK
  6
CONTINUOUS
100
AcDbLine
 10
2.7629133858267716
 20
0.7618897637795276
 30
0
 11
2.8229133858267716
 21
0.7618897637795276
 31
0
  0
LINE
  5
187
330
1A
100
AcDbEntity
  8
BLACK
  6
CONTINUOUS
100
AcDbLine
 10
2.8229133858267716
 20
0.7618897637795276
 30
0
 11
2.8236666929133856
 21
0.7617399212598425
 31
0
  0
LINE
  5
188
330
1A
100
AcDbEntity
  8
BLACK
  6
CONTINUOUS
100
AcDbLine
 10
2.7236666929133859
 20
0.8617399212598424
 30
0
 11
2.7243053149606298
 21
0.861313188976378
 31
0
  0
LINE
  5
189
330
1A
100
AcDbEntity
  8
BLACK
  6
CONTINUOUS
100
AcDbLine
 10
2.7243053149606298
 20
0.861313188976378
 30
0
 11
2.7247320472440943
 21
0.8606745669291338
 31
0
  0
LINE
  5
18A
330
1A
100
AcDbEntity
  8
BLACK
  6
CONTINUOUS
100
AcDbLine
 10
2.7247320472440943
 20
0.8606745669291338
 30
0
 11
2.7248818897637794
 21
0.8599212598425197
 31
0
  0
LINE
  5
18B
330
1A
100
AcDbEntity
  8
BLACK
  6
CONTINUOUS
100
AcDbLine
 10
2.7248818897637794
 20
0.8599212598425197
 30
0
 11
2.7248818897637794
 21
0.7999212598425197
 31
0
  0
LINE
  5
18C
330
1A
100
AcDbEntity
  8
BLACK
  6
CONTINUOUS
100
AcDbLine
 10
2.7248818897637794
 20
0.7999212598425197
 30
0
 11
2.7247320472440943
 21
0.7991679527559055
 31
0
  0
LINE
  5
18D
330
1A
100
AcDbEntity
  8
BLACK
  6
CONTINUOUS
100
AcDbLine
 10
2.7247320472440943
 20
0.7991679527559055
 30
0
 11
2.7243053149606298
 21
0.7985293307086614
 31
0
  0
LINE
  5
18E
330
1A
100
AcDbEntity
  8
BLACK
  6
CONTINUOUS
100
AcDbLine
 10
2.7243053149606298
 20
0.7985293307086614
 30
0
 11
2.7236666929133859
 21
0.7981025984251968
 31
0
  0
LINE
  5
18F
330
1A
100
AcDbEntity
  8
BLACK
  6
CONTINUOUS
100
AcDbLine
 10
2.7236666929133859
 20
0.7981025984251968
 30
0
 11
2.7229133858267716
 21
0.7979527559055118
 31
0
  0
LINE
  5
190
330
1A
100
AcDbEntity
  8
BLACK
  6
CONTINUOUS
100
AcDbLine
 10
2.7229133858267716
 20
0.7979527559055118
 30
0
 11
2.6629133858267715
 21
0.7979527559055118
 31
0
  0
LINE
  5
191
330
1A
100
AcDbEntity
  8
BLACK
  6
CONTINUOUS
100
AcDbLine
 10
2.6629133858267715
 20
0.7979527559055118
 30
0
 11
2.6621600787401576
 21
0.7981025984251968
 31
0
  0
LINE
  5
192
330
1A
100
AcDbEntity
  8
BLACK
  6
CONTINUOUS
100
AcDbLine
 10
2.6621600787401576
 20
0.7981025984251968
 30
0
 11
2.6615214566929133
 21
0.7985293307086614
 31
0
  0
LINE
  5
193
330
1A
100
AcDbEntity
  8
BLACK
  6
CONTINUOUS
100
AcDbLine
 10
2.6615214566929133
 20
0.7985293307086614
 30
0
 11
2.6610947244094487
 21
0.7991679527559055
 31
0
  0
LINE
  5
194
330
1A
100
AcDbEntity
  8
BLACK
  6
CONTINUOUS
100
AcDbLine
 10
2.6610947244094487
 20
0.7991679527559055
 30
0
 11
2.6609448818897636
 21
0.7999212598425197
 31
0
  0
LINE
  5
195
330
1A
100
AcDbEntity
  8
BLACK
  6
CONTINUOUS
100
AcDbLine
 10
2.6609448818897636
 20
0.7999212598425197
 30
0
 11
2.6609448818897636
 21
0.8599212598425197
 31
0
  0
LINE
  5
196
330
1A
100
AcDbEntity
  8
BLACK
  6
CONTINUOUS
100
AcDbLine
 10
2.6609448818897636
 20
0.8599212598425197
 30
0
 11
2.6610947244094487
 21
0.8606745669291338
 31
0
  0
LINE
  5
197
330
1A
100
AcDbEntity
  8
BLACK
  6
CONTINUOUS
100
AcDbLine
 10
2.6610947244094487
 20
0.8606745669291338
 30
0
 11
2.6615214566929133
 21
0.861313188976378
 31
0
  0
LINE
  5
198
330
1A
100
AcDbEntity
  8
BLACK
  6
CONTINUOUS
100
AcDbLine
 10
2.6615214566929133
 20
0.861313188976378
 30
0
 11
2.6621600787401576
 21
0.8617399212598424
 31
0
  0
LINE
  5
199
330
1A
100
AcDbEntity
  8
BLACK
  6
CONTINUOUS
100
AcDbLine
 10
2.6621600787401576
 20
0.8617399212598424
 30
0
 11
2.6629133858267715
 21
0.8618897637795275
 31
0
  0
LINE
  5
19A
330
1A
100
AcDbEntity
  8
BLACK
  6
CONTINUOUS
100
AcDbLine
 10
2.6629133858267715
 20
0.8618897637795275
 30
0
 11
2.7229133858267716
 21
0.8618897637795275
 31
0
  0
LINE
  5
19B
330
1A
100
AcDbEntity
  8
BLACK
  6
CONTINUOUS
100
AcDbLine
 10
2.7229133858267716
 20
0.8618897637795275
 30
0
 11
2.7236666929133859
 21
0.8617399212598424
 31
0
  0
LINE
  5
19C
330
1A
100
AcDbEntity
  8
BLACK
  6
CONTINUOUS
100
AcDbLine
 10
2.8236666929133856
 20
0.8617399212598424
 30
0
 11
2.8243053149606299
 21
0.861313188976378
 31
0
  0
LINE
  5
19D
330
1A
100
AcDbEntity
  8
BLACK
  6
CONTINUOUS
100
AcDbLine
 10
2.8243053149606299
 20
0.861313188976378
 30
0
 11
2.8247320472440944
 21
0.8606745669291338
 31
0
  0
LINE
  5
19E
330
1A
100
AcDbEntity
  8
BLACK
  6
CONTINUOUS
100
AcDbLine
 10
2.8247320472440944
 20
0.8606745669291338
 30
0
 11
2.8248818897637795
 21
0.8599212598425197
 31
0
  0
LINE
  5
19F
330
1A
100
AcDbEntity
  8
BLACK
  6
CONTINUOUS
100
AcDbLine
 10
2.8248818897637795
 20
0.8599212598425197
 30
0
 11
2.8248818897637795
 21
0.7999212598425197
 31
0
  0
LINE
  5
1A0
330
1A
100
AcDbEntity
  8
BLACK
  6
CONTINUOUS
100
AcDbLine
 10
2.8248818897637795
 20
0.7999212598425197
 30
0
 11
2.8247320472440944
 21
0.7991679527559055
 31
0
  0
LINE
  5
1A1
330
1A
100
AcDbEntity
  8
BLACK
  6
CONTINUOUS
100
AcDbLine
 10
2.8247320472440944
 20
0.7991679527559055
 30
0
 11
2.8243053149606299
 21
0.7985293307086614
 31
0
  0
LINE
  5
1A2
330
1A
100
AcDbEntity
  8
BLACK
  6
CONTINUOUS
100
AcDbLine
 10
2.8243053149606299
 20
0.7985293307086614
 30
0
 11
2.8236666929133856
 21
0.7981025984251968
 31
0
  0
LINE
  5
1A3
330
1A
100
AcDbEntity
  8
BLACK
  6
CONTINUOUS
100
AcDbLine
 10
2.8236666929133856
 20
0.7981025984251968
 30
0
 11
2.8229133858267716
 21
0.7979527559055118
 31
0
  0
LINE
  5
1A4
330
1A
100
AcDbEntity
  8
BLACK
  6
CONTINUOUS
100
AcDbLine
 10
2.8229133858267716
 20
0.7979527559055118
 30
0
 11
2.7629133858267716
 21
0.7979527559055118
 31
0
  0
LINE
  5
1A5
330
1A
100
AcDbEntity
  8
BLACK
  6
CONTINUOUS
100
AcDbLine
 10
2.7629133858267716
 20
0.7979527559055118
 30
0
 11
2.7621600787401572
 21
0.7981025984251968
 31
0
  0
LINE
  5
1A6
330
1A
100
AcDbEntity
  8
BLACK
  6
CONTINUOUS
100
AcDbLine
 10
2.7621600787401572
 20
0.7981025984251968
 30
0
 11
2.7615214566929134
 21
0.7985293307086614
 31
0
  0
LINE
  5
1A7
330
1A
100
AcDbEntity
  8
BLACK
  6
CONTINUOUS
100
AcDbLine
 10
2.7615214566929134
 20
0.7985293307086614
 30
0
 11
2.7610947244094488
 21
0.7991679527559055
 31
0
  0
LINE
  5
1A8
330
1A
100
AcDbEntity
  8
BLACK
  6
CONTINUOUS
100
AcDbLine
 10
2.7610947244094488
 20
0.7991679527559055
 30
0
 11
2.7609448818897637
 21
0.7999212598425197
 31
0
  0
LINE
  5
1A9
330
1A
100
AcDbEntity
  8
BLACK
  6
CONTINUOUS
100
AcDbLine
 10
2.7609448818897637
 20
0.7999212598425197
 30
0
 11
2.7609448818897637
 21
0.8599212598425197
 31
0
  0
LINE
  5
1AA
330
1A
100
AcDbEntity
  8
BLACK
  6
CONTINUOUS
100
AcDbLine
 10
2.7609448818897637
 20
0.8599212598425197
 30
0
 11
2.7610947244094488
 21
0.8606745669291338
 31
0
  0
LINE
  5
1AB
330
1A
100
AcDbEntity
  8
BLACK
  6
CONTINUOUS
100
AcDbLine
 10
2.7610947244094488
 20
0.8606745669291338
 30
0
 11
2.7615214566929134
 21
0.861313188976378
 31
0
  0
LINE
  5
1AC
330
1A
100
AcDbEntity
  8
BLACK
  6
CONTINUOUS
100
AcDbLine
 10
2.7615214566929134
 20
0.861313188976378
 30
0
 11
2.7621600787401572
 21
0.8617399212598424
 31
0
  0
LINE
  5
1AD
330
1A
100
AcDbEntity
  8
BLACK
  6
CONTINUOUS
100
AcDbLine
 10
2.7621600787401572
 20
0.8617399212598424
 30
0
 11
2.7629133858267716
 21
0.8618897637795275
 31
0
  0
LINE
  5
1AE
330
1A
100
AcDbEntity
  8
BLACK
  6
CONTINUOUS
100
AcDbLine
 10
2.7629133858267716
 20
0.8618897637795275
 30
0
 11
2.8229133858267716
 21
0.8618897637795275
 31
0
  0
LINE
  5
1AF
330
1A
100
AcDbEntity
  8
BLACK
  6
CONTINUOUS
100
AcDbLine
 10
2.8229133858267716
 20
0.8618897637795275
 30
0
 11
2.8236666929133856
 21
0.8617399212598424
 31
0
  0
LINE
  5
1B0
330
1A
100
AcDbEntity
  8
BLACK
  6
CONTINUOUS
100
AcDbLine
 10
2.7236666929133859
 20
0.9617399212598425
 30
0
 11
2.7243053149606298
 21
0.961313188976378
 31
0
  0
LINE
  5
1B1
330
1A
100
AcDbEntity
  8
BLACK
  6
CONTINUOUS
100
AcDbLine
 10
2.7243053149606298
 20
0.961313188976378
 30
0
 11
2.7247320472440943
 21
0.9606745669291339
 31
0
  0
LINE
  5
1B2
330
1A
100
AcDbEntity
  8
BLACK
  6
CONTINUOUS
100
AcDbLine
 10
2.7247320472440943
 20
0.9606745669291339
 30
0
 11
2.7248818897637794
 21
0.9599212598425196
 31
0
  0
LINE
  5
1B3
330
1A
100
AcDbEntity
  8
BLACK
  6
CONTINUOUS
100
AcDbLine
 10
2.7248818897637794
 20
0.9599212598425196
 30
0
 11
2.7248818897637794
 21
0.8999212598425197
 31
0
  0
LINE
  5
1B4
330
1A
100
AcDbEntity
  8
BLACK
  6
CONTINUOUS
100
AcDbLine
 10
2.7248818897637794
 20
0.8999212598425197
 30
0
 11
2.7247320472440943
 21
0.8991679527559054
 31
0
  0
LINE
  5
1B5
330
1A
100
AcDbEntity
  8
BLACK
  6
CONTINUOUS
100
AcDbLine
 10
2.7247320472440943
 20
0.8991679527559054
 30
0
 11
2.7243053149606298
 21
0.8985293307086614
 31
0
  0
LINE
  5
1B6
330
1A
100
AcDbEntity
  8
BLACK
  6
CONTINUOUS
100
AcDbLine
 10
2.7243053149606298
 20
0.8985293307086614
 30
0
 11
2.7236666929133859
 21
0.8981025984251968
 31
0
  0
LINE
  5
1B7
330
1A
100
AcDbEntity
  8
BLACK
  6
CONTINUOUS
100
AcDbLine
 10
2.7236666929133859
 20
0.8981025984251968
 30
0
 11
2.7229133858267716
 21
0.8979527559055118
 31
0
  0
LINE
  5
1B8
330
1A
100
AcDbEntity
  8
BLACK
  6
CONTINUOUS
100
AcDbLine
 10
2.7229133858267716
 20
0.8979527559055118
 30
0
 11
2.6629133858267715
 21
0.8979527559055118
 31
0
  0
LINE
  5
1B9
330
1A
100
AcDbEntity
  8
BLACK
  6
CONTINUOUS
100
AcDbLine
 10
2.6629133858267715
 20
0.8979527559055118
 30
0
 11
2.6621600787401576
 21
0.8981025984251968
 31
0
  0
LINE
  5
1BA
330
1A
100
AcDbEntity
  8
BLACK
  6
CONTINUOUS
100
AcDbLine
 10
2.6621600787401576
 20
0.8981025984251968
 30
0
 11
2.6615214566929133
 21
0.8985293307086614
 31
0
  0
LINE
  5
1BB
330
1A
100
AcDbEntity
  8
BLACK
  6
CONTINUOUS
100
AcDbLine
 10
2.6615214566929133
 20
0.8985293307086614
 30
0
 11
2.6610947244094487
 21
0.8991679527559054
 31
0
  0
LINE
  5
1BC
330
1A
100
AcDbEntity
  8
BLACK
  6
CONTINUOUS
100
AcDbLine
 10
2.6610947244094487
 20
0.8991679527559054
 30
0
 11
2.6609448818897636
 21
0.8999212598425197
 31
0
  0
LINE
  5
1BD
330
1A
100
AcDbEntity
  8
BLACK
  6
CONTINUOUS
100
AcDbLine
 10
2.6609448818897636
 20
0.8999212598425197
 30
0
 11
2.6609448818897636
 21
0.9599212598425196
 31
0
  0
LINE
  5
1BE
330
1A
100
AcDbEntity
  8
BLACK
  6
CONTINUOUS
100
AcDbLine
 10
2.6609448818897636
 20
0.9599212598425196
 30
0
 11
2.6610947244094487
 21
0.9606745669291339
 31
0
  0
LINE
  5
1BF
330
1A
100
AcDbEntity
  8
BLACK
  6
CONTINUOUS
100
AcDbLine
 10
2.6610947244094487
 20
0.9606745669291339
 30
0
 11
2.6615214566929133
 21
0.961313188976378
 31
0
  0
LINE
  5
1C0
330
1A
100
AcDbEntity
  8
BLACK
  6
CONTINUOUS
100
AcDbLine
 10
2.6615214566929133
 20
0.961313188976378
 30
0
 11
2.6621600787401576
 21
0.9617399212598425
 31
0
  0
LINE
  5
1C1
330
1A
100
AcDbEntity
  8
BLACK
  6
CONTINUOUS
100
AcDbLine
 10
2.6621600787401576
 20
0.9617399212598425
 30
0
 11
2.6629133858267715
 21
0.9618897637795275
 31
0
  0
LINE
  5
1C2
330
1A
100
AcDbEntity
  8
BLACK
  6
CONTINUOUS
100
AcDbLine
 10
2.6629133858267715
 20
0.9618897637795275
 30
0
 11
2.7229133858267716
 21
0.9618897637795275
 31
0
  0
LINE
  5
1C3
330
1A
100
AcDbEntity
  8
BLACK
  6
CONTINUOUS
100
AcDbLine
 10
2.7229133858267716
 20
0.9618897637795275
 30
0
 11
2.7236666929133859
 21
0.9617399212598425
 31
0
  0
LINE
  5
1C4
330
1A
100
AcDbEntity
  8
BLACK
  6
CONTINUOUS
100
AcDbLine
 10
2.8236666929133856
 20
0.9617399212598425
 30
0
 11
2.8243053149606299
 21
0.961313188976378
 31
0
  0
LINE
  5
1C5
330
1A
100
AcDbEntity
  8
BLACK
  6
CONTINUOUS
100
AcDbLine
 10
2.8243053149606299
 20
0.961313188976378
 30
0
 11
2.8247320472440944
 21
0.9606745669291339
 31
0
  0
LINE
  5
1C6
330
1A
100
AcDbEntity
  8
BLACK
  6
CONTINUOUS
100
AcDbLine
 10
2.8247320472440944
 20
0.9606745669291339
 30
0
 11
2.8248818897637795
 21
0.9599212598425196
 31
0
  0
LINE
  5
1C7
330
1A
100
AcDbEntity
  8
BLACK
  6
CONTINUOUS
100
AcDbLine
 10
2.8248818897637795
 20
0.9599212598425196
 30
0
 11
2.8248818897637795
 21
0.8999212598425197
 31
0
  0
LINE
  5
1C8
330
1A
100
AcDbEntity
  8
BLACK
  6
CONTINUOUS
100
AcDbLine
 10
2.8248818897637795
 20
0.8999212598425197
 30
0
 11
2.8247320472440944
 21
0.8991679527559054
 31
0
  0
LINE
  5
1C9
330
1A
100
AcDbEntity
  8
BLACK
  6
CONTINUOUS
100
AcDbLine
 10
2.8247320472440944
 20
0.8991679527559054
 30
0
 11
2.8243053149606299
 21
0.8985293307086614
 31
0
  0
LINE
  5
1CA
330
1A
100
AcDbEntity
  8
BLACK
  6
CONTINUOUS
100
AcDbLine
 10
2.8243053149606299
 20
0.8985293307086614
 30
0
 11
2.8236666929133856
 21
0.8981025984251968
 31
0
  0
LINE
  5
1CB
330
1A
100
AcDbEntity
  8
BLACK
  6
CONTINUOUS
100
AcDbLine
 10
2.8236666929133856
 20
0.8981025984251968
 30
0
 11
2.8229133858267716
 21
0.8979527559055118
 31
0
  0
LINE
  5
1CC
330
1A
100
AcDbEntity
  8
BLACK
  6
CONTINUOUS
100
AcDbLine
 10
2.8229133858267716
 20
0.8979527559055118
 30
0
 11
2.7629133858267716
 21
0.8979527559055118
 31
0
  0
LINE
  5
1CD
330
1A
100
AcDbEntity
  8
BLACK
  6
CONTINUOUS
100
AcDbLine
 10
2.7629133858267716
 20
0.8979527559055118
 30
0
 11
2.7621600787401572
 21
0.8981025984251968
 31
0
  0
LINE
  5
1CE
330
1A
100
AcDbEntity
  8
BLACK
  6
CONTINUOUS
100
AcDbLine
 10
2.7621600787401572
 20
0.8981025984251968
 30
0
 11
2.7615214566929134
 21
0.8985293307086614
 31
0
  0
LINE
  5
1CF
330
1A
100
AcDbEntity
  8
BLACK
  6
CONTINUOUS
100
AcDbLine
 10
2.7615214566929134
 20
0.8985293307086614
 30
0
 11
2.7610947244094488
 21
0.8991679527559054
 31
0
  0
LINE
  5
1D0
330
1A
100
AcDbEntity
  8
BLACK
  6
CONTINUOUS
100
AcDbLine
 10
2.7610947244094488
 20
0.8991679527559054
 30
0
 11
2.7609448818897637
 21
0.8999212598425197
 31
0
  0
LINE
  5
1D1
330
1A
100
AcDbEntity
  8
BLACK
  6
CONTINUOUS
100
AcDbLine
 10
2.7609448818897637
 20
0.8999212598425197
 30
0
 11
2.7609448818897637
 21
0.9599212598425196
 31
0
  0
LINE
  5
1D2
330
1A
100
AcDbEntity
  8
BLACK
  6
CONTINUOUS
100
AcDbLine
 10
2.7609448818897637
 20
0.9599212598425196
 30
0
 11
2.7610947244094488
 21
0.9606745669291339
 31
0
  0
LINE
  5
1D3
330
1A
100
AcDbEntity
  8
BLACK
  6
CONTINUOUS
100
AcDbLine
 10
2.7610947244094488
 20
0.9606745669291339
 30
0
 11
2.7615214566929134
 21
0.961313188976378
 31
0
  0
LINE
  5
1D4
330
1A
100
AcDbEntity
  8
BLACK
  6
CONTINUOUS
100
AcDbLine
 10
2.7615214566929134
 20
0.961313188976378
 30
0
 11
2.7621600787401572
 21
0.9617399212598425
 31
0
  0
LINE
  5
1D5
330
1A
100
AcDbEntity
  8
BLACK
  6
CONTINUOUS
100
AcDbLine
 10
2.7621600787401572
 20
0.9617399212598425
 30
0
 11
2.7629133858267716
 21
0.9618897637795275
 31
0
  0
LINE
  5
1D6
330
1A
100
AcDbEntity
  8
BLACK
  6
CONTINUOUS
100
AcDbLine
 10
2.7629133858267716
 20
0.9618897637795275
 30
0
 11
2.8229133858267716
 21
0.9618897637795275
 31
0
  0
LINE
  5
1D7
330
1A
100
AcDbEntity
  8
BLACK
  6
CONTINUOUS
100
AcDbLine
 10
2.8229133858267716
 20
0.9618897637795275
 30
0
 11
2.8236666929133856
 21
0.9617399212598425
 31
0
  0
LINE
  5
1D8
330
1A
100
AcDbEntity
  8
BLACK
  6
CONTINUOUS
100
AcDbLine
 10
2.7236666929133859
 20
1.0617399212598424
 30
0
 11
2.7243053149606298
 21
1.0613131889763778
 31
0
  0
LINE
  5
1D9
330
1A
100
AcDbEntity
  8
BLACK
  6
CONTINUOUS
100
AcDbLine
 10
2.7243053149606298
 20
1.0613131889763778
 30
0
 11
2.7247320472440943
 21
1.0606745669291338
 31
0
  0
LINE
  5
1DA
330
1A
100
AcDbEntity
  8
BLACK
  6
CONTINUOUS
100
AcDbLine
 10
2.7247320472440943
 20
1.0606745669291338
 30
0
 11
2.7248818897637794
 21
1.0599212598425196
 31
0
  0
LINE
  5
1DB
330
1A
100
AcDbEntity
  8
BLACK
  6
CONTINUOUS
100
AcDbLine
 10
2.7248818897637794
 20
1.0599212598425196
 30
0
 11
2.7248818897637794
 21
0.9999212598425197
 31
0
  0
LINE
  5
1DC
330
1A
100
AcDbEntity
  8
BLACK
  6
CONTINUOUS
100
AcDbLine
 10
2.7248818897637794
 20
0.9999212598425197
 30
0
 11
2.7247320472440943
 21
0.9991679527559055
 31
0
  0
LINE
  5
1DD
330
1A
100
AcDbEntity
  8
BLACK
  6
CONTINUOUS
100
AcDbLine
 10
2.7247320472440943
 20
0.9991679527559055
 30
0
 11
2.7243053149606298
 21
0.9985293307086613
 31
0
  0
LINE
  5
1DE
330
1A
100
AcDbEntity
  8
BLACK
  6
CONTINUOUS
100
AcDbLine
 10
2.7243053149606298
 20
0.9985293307086613
 30
0
 11
2.7236666929133859
 21
0.9981025984251968
 31
0
  0
LINE
  5
1DF
330
1A
100
AcDbEntity
  8
BLACK
  6
CONTINUOUS
100
AcDbLine
 10
2.7236666929133859
 20
0.9981025984251968
 30
0
 11
2.7229133858267716
 21
0.9979527559055118
 31
0
  0
LINE
  5
1E0
330
1A
100
AcDbEntity
  8
BLACK
  6
CONTINUOUS
100
AcDbLine
 10
2.7229133858267716
 20
0.9979527559055118
 30
0
 11
2.6629133858267715
 21
0.9979527559055118
 31
0
  0
LINE
  5
1E1
330
1A
100
AcDbEntity
  8
BLACK
  6
CONTINUOUS
100
AcDbLine
 10
2.6629133858267715
 20
0.9979527559055118
 30
0
 11
2.6621600787401576
 21
0.9981025984251968
 31
0
  0
LINE
  5
1E2
330
1A
100
AcDbEntity
  8
BLACK
  6
CONTINUOUS
100
AcDbLine
 10
2.6621600787401576
 20
0.9981025984251968
 30
0
 11
2.6615214566929133
 21
0.9985293307086613
 31
0
  0
LINE
  5
1E3
330
1A
100
AcDbEntity
  8
BLACK
  6
CONTINUOUS
100
AcDbLine
 10
2.6615214566929133
 20
0.9985293307086613
 30
0
 11
2.6610947244094487
 21
0.9991679527559055
 31
0
  0
LINE
  5
1E4
330
1A
100
AcDbEntity
  8
BLACK
  6
CONTINUOUS
100
AcDbLine
 10
2.6610947244094487
 20
0.9991679527559055
 30
0
 11
2.6609448818897636
 21
0.9999212598425197
 31
0
  0
LINE
  5
1E5
330
1A
100
AcDbEntity
  8
BLACK
  6
CONTINUOUS
100
AcDbLine
 10
2.6609448818897636
 20
0.9999212598425197
 30
0
 11
2.6609448818897636
 21
1.0599212598425196
 31
0
  0
LINE
  5
1E6
330
1A
100
AcDbEntity
  8
BLACK
  6
CONTINUOUS
100
AcDbLine
 10
2.6609448818897636
 20
1.0599212598425196
 30
0
 11
2.6610947244094487
 21
1.0606745669291338
 31
0
  0
LINE
  5
1E7
330
1A
100
AcDbEntity
  8
BLACK
  6
CONTINUOUS
100
AcDbLine
 10
2.6610947244094487
 20
1.0606745669291338
 30
0
 11
2.6615214566929133
 21
1.0613131889763778
 31
0
  0
LINE
  5
1E8
330
1A
100
AcDbEntity
  8
BLACK
  6
CONTINUOUS
100
AcDbLine
 10
2.6615214566929133
 20
1.0613131889763778
 30
0
 11
2.6621600787401576
 21
1.0617399212598424
 31
0
  0
LINE
  5
1E9
330
1A
100
AcDbEntity
  8
BLACK
  6
CONTINUOUS
100
AcDbLine
 10
2.6621600787401576
 20
1.0617399212598424
 30
0
 11
2.6629133858267715
 21
1.0618897637795275
 31
0
  0
LINE
  5
1EA
330
1A
100
AcDbEntity
  8
BLACK
  6
CONTINUOUS
100
AcDbLine
 10
2.6629133858267715
 20
1.0618897637795275
 30
0
 11
2.7229133858267716
 21
1.0618897637795275
 31
0
  0
LINE
  5
1EB
330
1A
100
AcDbEntity
  8
BLACK
  6
CONTINUOUS
100
AcDbLine
 10
2.7229133858267716
 20
1.0618897637795275
 30
0
 11
2.7236666929133859
 21
1.0617399212598424
 31
0
  0
LINE
  5
1EC
330
1A
100
AcDbEntity
  8
BLACK
  6
CONTINUOUS
100
AcDbLine
 10
2.8236666929133856
 20
1.0617399212598424
 30
0
 11
2.8243053149606299
 21
1.0613131889763778
 31
0
  0
LINE
  5
1ED
330
1A
100
AcDbEntity
  8
BLACK
  6
CONTINUOUS
100
AcDbLine
 10
2.8243053149606299
 20
1.0613131889763778
 30
0
 11
2.8247320472440944
 21
1.0606745669291338
 31
0
  0
LINE
  5
1EE
330
1A
100
AcDbEntity
  8
BLACK
  6
CONTINUOUS
100
AcDbLine
 10
2.8247320472440944
 20
1.0606745669291338
 30
0
 11
2.8248818897637795
 21
1.0599212598425196
 31
0
  0
LINE
  5
1EF
330
1A
100
AcDbEntity
  8
BLACK
  6
CONTINUOUS
100
AcDbLine
 10
2.8248818897637795
 20
1.0599212598425196
 30
0
 11
2.8248818897637795
 21
0.9999212598425197
 31
0
  0
LINE
  5
1F0
330
1A
100
AcDbEntity
  8
BLACK
  6
CONTINUOUS
100
AcDbLine
 10
2.8248818897637795
 20
0.9999212598425197
 30
0
 11
2.8247320472440944
 21
0.9991679527559055
 31
0
  0
LINE
  5
1F1
330
1A
100
AcDbEntity
  8
BLACK
  6
CONTINUOUS
100
AcDbLine
 10
2.8247320472440944
 20
0.9991679527559055
 30
0
 11
2.8243053149606299
 21
0.9985293307086613
 31
0
  0
LINE
  5
1F2
330
1A
100
AcDbEntity
  8
BLACK
  6
CONTINUOUS
100
AcDbLine
 10
2.8243053149606299
 20
0.9985293307086613
 30
0
 11
2.8236666929133856
 21
0.9981025984251968
 31
0
  0
LINE
  5
1F3
330
1A
100
AcDbEntity
  8
BLACK
  6
CONTINUOUS
100
AcDbLine
 10
2.8236666929133856
 20
0.9981025984251968
 30
0
 11
2.8229133858267716
 21
0.9979527559055118
 31
0
  0
LINE
  5
1F4
330
1A
100
AcDbEntity
  8
BLACK
  6
CONTINUOUS
100
AcDbLine
 10
2.8229133858267716
 20
0.9979527559055118
 30
0
 11
2.7629133858267716
 21
0.9979527559055118
 31
0
  0
LINE
  5
1F5
330
1A
100
AcDbEntity
  8
BLACK
  6
CONTINUOUS
100
AcDbLine
 10
2.7629133858267716
 20
0.9979527559055118
 30
0
 11
2.7621600787401572
 21
0.9981025984251968
 31
0
  0
LINE
  5
1F6
330
1A
100
AcDbEntity
  8
BLACK
  6
CONTINUOUS
100
AcDbLine
 10
2.7621600787401572
 20
0.9981025984251968
 30
0
 11
2.7615214566929134
 21
0.9985293307086613
 31
0
  0
LINE
  5
1F7
330
1A
100
AcDbEntity
  8
BLACK
  6
CONTINUOUS
100
AcDbLine
 10
2.7615214566929134
 20
0.9985293307086613
 30
0
 11
2.7610947244094488
 21
0.9991679527559055
 31
0
  0
LINE
  5
1F8
330
1A
100
AcDbEntity
  8
BLACK
  6
CONTINUOUS
100
AcDbLine
 10
2.7610947244094488
 20
0.9991679527559055
 30
0
 11
2.7609448818897637
 21
0.9999212598425197
 31
0
  0
LINE
  5
1F9
330
1A
100
AcDbEntity
  8
BLACK
  6
CONTINUOUS
100
AcDbLine
 10
2.7609448818897637
 20
0.9999212598425197
 30
0
 11
2.7609448818897637
 21
1.0599212598425196
 31
0
  0
LINE
  5
1FA
330
1A
100
AcDbEntity
  8
BLACK
  6
CONTINUOUS
100
AcDbLine
 10
2.7609448818897637
 20
1.0599212598425196
 30
0
 11
2.7610947244094488
 21
1.0606745669291338
 31
0
  0
LINE
  5
1FB
330
1A
100
AcDbEntity
  8
BLACK
  6
CONTINUOUS
100
AcDbLine
 10
2.7610947244094488
 20
1.0606745669291338
 30
0
 11
2.7615214566929134
 21
1.0613131889763778
 31
0
  0
LINE
  5
1FC
330
1A
100
AcDbEntity
  8
BLACK
  6
CONTINUOUS
100
AcDbLine
 10
2.7615214566929134
 20
1.0613131889763778
 30
0
 11
2.7621600787401572
 21
1.0617399212598424
 31
0
  0
LINE
  5
1FD
330
1A
100
AcDbEntity
  8
BLACK
  6
CONTINUOUS
100
AcDbLine
 10
2.7621600787401572
 20
1.0617399212598424
 30
0
 11
2.7629133858267716
 21
1.0618897637795275
 31
0
  0
LINE
  5
1FE
330
1A
100
AcDbEntity
  8
BLACK
  6
CONTINUOUS
100
AcDbLine
 10
2.7629133858267716
 20
1.0618897637795275
 30
0
 11
2.8229133858267716
 21
1.0618897637795275
 31
0
  0
LINE
  5
1FF
330
1A
100
AcDbEntity
  8
BLACK
  6
CONTINUOUS
100
AcDbLine
 10
2.8229133858267716
 20
1.0618897637795275
 30
0
 11
2.8236666929133856
 21
1.0617399212598424
 31
0
  0
LINE
  5
200
330
1A
100
AcDbEntity
  8
BLACK
  6
CONTINUOUS
100
AcDbLine
 10
0.3316652755905512
 20
1.1193911417322835
 30
0
 11
0.3385690157480315
 21
1.1171479527559054
 31
0
  0
LINE
  5
201
330
1A
100
AcDbEntity
  8
BLACK
  6
CONTINUOUS
100
AcDbLine
 10
0.3385690157480315
 20
1.1171479527559054
 30
0
 11
0.3450368503937008
 21
1.1138524409448818
 31
0
  0
LINE
  5
202
330
1A
100
AcDbEntity
  8
BLACK
  6
CONTINUOUS
100
AcDbLine
 10
0.3450368503937008
 20
1.1138524409448818
 30
0
 11
0.3509094881889764
 21
1.1095857086614174
 31
0
  0
LINE
  5
203
330
1A
100
AcDbEntity
  8
BLACK
  6
CONTINUOUS
100
AcDbLine
 10
0.3509094881889764
 20
1.1095857086614174
 30
0
 11
0.3560424015748032
 21
1.1044527952755905
 31
0
  0
LINE
  5
204
330
1A
100
AcDbEntity
  8
BLACK
  6
CONTINUOUS
100
AcDbLine
 10
0.3560424015748032
 20
1.1044527952755905
 30
0
 11
0.3603091338582677
 21
1.0985801574803149
 31
0
  0
LINE
  5
205
330
1A
100
AcDbEntity
  8
BLACK
  6
CONTINUOUS
100
AcDbLine
 10
0.3603091338582677
 20
1.0985801574803149
 30
0
 11
0.3636046456692913
 21
1.0921123228346457
 31
0
  0
LINE
  5
206
330
1A
100
AcDbEntity
  8
BLACK
  6
CONTINUOUS
100
AcDbLine
 10
0.3636046456692913
 20
1.0921123228346457
 30
0
 11
0.3658478346456693
 21
1.0852085826771654
 31
0
  0
LINE
  5
207
330
1A
100
AcDbEntity
  8
BLACK
  6
CONTINUOUS
100
AcDbLine
 10
0.3658478346456693
 20
1.0852085826771654
 30
0
 11
0.3669833858267716
 21
1.078038937007874
 31
0
  0
LINE
  5
208
330
1A
100
AcDbEntity
  8
BLACK
  6
CONTINUOUS
100
AcDbLine
 10
0.3669833858267716
 20
1.078038937007874
 30
0
 11
0.3669833858267716
 21
1.0707799606299213
 31
0
  0
LINE
  5
209
330
1A
100
AcDbEntity
  8
BLACK
  6
CONTINUOUS
100
AcDbLine
 10
0.3669833858267716
 20
1.0707799606299213
 30
0
 11
0.3658478346456693
 21
1.06361031496063
 31
0
  0
LINE
  5
20A
330
1A
100
AcDbEntity
  8
BLACK
  6
CONTINUOUS
100
AcDbLine
 10
0.3658478346456693
 20
1.06361031496063
 30
0
 11
0.3636046456692913
 21
1.0567065748031497
 31
0
  0
LINE
  5
20B
330
1A
100
AcDbEntity
  8
BLACK
  6
CONTINUOUS
100
AcDbLine
 10
0.3636046456692913
 20
1.0567065748031497
 30
0
 11
0.3603091338582677
 21
1.0502387401574802
 31
0
  0
LINE
  5
20C
330
1A
100
AcDbEntity
  8
BLACK
  6
CONTINUOUS
100
AcDbLine
 10
0.3603091338582677
 20
1.0502387401574802
 30
0
 11
0.3560424015748032
 21
1.0443661023622046
 31
0
  0
LINE
  5
20D
330
1A
100
AcDbEntity
  8
BLACK
  6
CONTINUOUS
100
AcDbLine
 10
0.3560424015748032
 20
1.0443661023622046
 30
0
 11
0.3509094881889764
 21
1.039233188976378
 31
0
  0
LINE
  5
20E
330
1A
100
AcDbEntity
  8
BLACK
  6
CONTINUOUS
100
AcDbLine
 10
0.3509094881889764
 20
1.039233188976378
 30
0
 11
0.3450368503937008
 21
1.0349664566929133
 31
0
  0
LINE
  5
20F
330
1A
100
AcDbEntity
  8
BLACK
  6
CONTINUOUS
100
AcDbLine
 10
0.3450368503937008
 20
1.0349664566929133
 30
0
 11
0.3385690157480315
 21
1.0316709448818897
 31
0
  0
LINE
  5
210
330
1A
100
AcDbEntity
  8
BLACK
  6
CONTINUOUS
100
AcDbLine
 10
0.3385690157480315
 20
1.0316709448818897
 30
0
 11
0.3316652755905512
 21
1.0294277559055118
 31
0
  0
LINE
  5
211
330
1A
100
AcDbEntity
  8
BLACK
  6
CONTINUOUS
100
AcDbLine
 10
0.3316652755905512
 20
1.0294277559055118
 30
0
 11
0.3244956299212599
 21
1.0282922047244094
 31
0
  0
LINE
  5
212
330
1A
100
AcDbEntity
  8
BLACK
  6
CONTINUOUS
100
AcDbLine
 10
0.3244956299212599
 20
1.0282922047244094
 30
0
 11
0.3172366535433071
 21
1.0282922047244094
 31
0
  0
LINE
  5
213
330
1A
100
AcDbEntity
  8
BLACK
  6
CONTINUOUS
100
AcDbLine
 10
0.3172366535433071
 20
1.0282922047244094
 30
0
 11
0.3100670078740158
 21
1.0294277559055118
 31
0
  0
LINE
  5
214
330
1A
100
AcDbEntity
  8
BLACK
  6
CONTINUOUS
100
AcDbLine
 10
0.3100670078740158
 20
1.0294277559055118
 30
0
 11
0.3031632677165354
 21
1.0316709448818897
 31
0
  0
LINE
  5
215
330
1A
100
AcDbEntity
  8
BLACK
  6
CONTINUOUS
100
AcDbLine
 10
0.3031632677165354
 20
1.0316709448818897
 30
0
 11
0.2966954330708662
 21
1.0349664566929133
 31
0
  0
LINE
  5
216
330
1A
100
AcDbEntity
  8
BLACK
  6
CONTINUOUS
100
AcDbLine
 10
0.2966954330708662
 20
1.0349664566929133
 30
0
 11
0.2908227952755905
 21
1.039233188976378
 31
0
  0
LINE
  5
217
330
1A
100
AcDbEntity
  8
BLACK
  6
CONTINUOUS
100
AcDbLine
 10
0.2908227952755905
 20
1.039233188976378
 30
0
 11
0.2856898818897638
 21
1.0443661023622046
 31
0
  0
LINE
  5
218
330
1A
100
AcDbEntity
  8
BLACK
  6
CONTINUOUS
100
AcDbLine
 10
0.2856898818897638
 20
1.0443661023622046
 30
0
 11
0.2814231496062992
 21
1.0502387401574802
 31
0
  0
LINE
  5
219
330
1A
100
AcDbEntity
  8
BLACK
  6
CONTINUOUS
100
AcDbLine
 10
0.2814231496062992
 20
1.0502387401574802
 30
0
 11
0.2781276377952756
 21
1.0567065748031497
 31
0
  0
LINE
  5
21A
330
1A
100
AcDbEntity
  8
BLACK
  6
CONTINUOUS
100
AcDbLine
 10
0.2781276377952756
 20
1.0567065748031497
 30
0
 11
0.2758844488188976
 21
1.06361031496063
 31
0
  0
LINE
  5
21B
330
1A
100
AcDbEntity
  8
BLACK
  6
CONTINUOUS
100
AcDbLine
 10
0.2758844488188976
 20
1.06361031496063
 30
0
 11
0.2747488976377953
 21
1.0707799606299213
 31
0
  0
LINE
  5
21C
330
1A
100
AcDbEntity
  8
BLACK
  6
CONTINUOUS
100
AcDbLine
 10
0.2747488976377953
 20
1.0707799606299213
 30
0
 11
0.2747488976377953
 21
1.078038937007874
 31
0
  0
LINE
  5
21D
330
1A
100
AcDbEntity
  8
BLACK
  6
CONTINUOUS
100
AcDbLine
 10
0.2747488976377953
 20
1.078038937007874
 30
0
 11
0.2758844488188976
 21
1.0852085826771654
 31
0
  0
LINE
  5
21E
330
1A
100
AcDbEntity
  8
BLACK
  6
CONTINUOUS
100
AcDbLine
 10
0.2758844488188976
 20
1.0852085826771654
 30
0
 11
0.2781276377952756
 21
1.0921123228346457
 31
0
  0
LINE
  5
21F
330
1A
100
AcDbEntity
  8
BLACK
  6
CONTINUOUS
100
AcDbLine
 10
0.2781276377952756
 20
1.0921123228346457
 30
0
 11
0.2814231496062992
 21
1.0985801574803149
 31
0
  0
LINE
  5
220
330
1A
100
AcDbEntity
  8
BLACK
  6
CONTINUOUS
100
AcDbLine
 10
0.2814231496062992
 20
1.0985801574803149
 30
0
 11
0.2856898818897638
 21
1.1044527952755905
 31
0
  0
LINE
  5
221
330
1A
100
AcDbEntity
  8
BLACK
  6
CONTINUOUS
100
AcDbLine
 10
0.2856898818897638
 20
1.1044527952755905
 30
0
 11
0.2908227952755905
 21
1.1095857086614174
 31
0
  0
LINE
  5
222
330
1A
100
AcDbEntity
  8
BLACK
  6
CONTINUOUS
100
AcDbLine
 10
0.2908227952755905
 20
1.1095857086614174
 30
0
 11
0.2966954330708662
 21
1.1138524409448818
 31
0
  0
LINE
  5
223
330
1A
100
AcDbEntity
  8
BLACK
  6
CONTINUOUS
100
AcDbLine
 10
0.2966954330708662
 20
1.1138524409448818
 30
0
 11
0.3031632677165354
 21
1.1171479527559054
 31
0
  0
LINE
  5
224
330
1A
100
AcDbEntity
  8
BLACK
  6
CONTINUOUS
100
AcDbLine
 10
0.3031632677165354
 20
1.1171479527559054
 30
0
 11
0.3100670078740158
 21
1.1193911417322835
 31
0
  0
LINE
  5
225
330
1A
100
AcDbEntity
  8
BLACK
  6
CONTINUOUS
100
AcDbLine
 10
0.3100670078740158
 20
1.1193911417322835
 30
0
 11
0.3172366535433071
 21
1.1205266929133857
 31
0
  0
LINE
  5
226
330
1A
100
AcDbEntity
  8
BLACK
  6
CONTINUOUS
100
AcDbLine
 10
0.3172366535433071
 20
1.1205266929133857
 30
0
 11
0.3244956299212599
 21
1.1205266929133857
 31
0
  0
LINE
  5
227
330
1A
100
AcDbEntity
  8
BLACK
  6
CONTINUOUS
100
AcDbLine
 10
0.3244956299212599
 20
1.1205266929133857
 30
0
 11
0.3316652755905512
 21
1.1193911417322835
 31
0
  0
LINE
  5
228
330
1A
100
AcDbEntity
  8
BLACK
  6
CONTINUOUS
100
AcDbLine
 10
0.5316652755905512
 20
1.1193911417322835
 30
0
 11
0.5385690157480315
 21
1.1171479527559054
 31
0
  0
LINE
  5
229
330
1A
100
AcDbEntity
  8
BLACK
  6
CONTINUOUS
100
AcDbLine
 10
0.5385690157480315
 20
1.1171479527559054
 30
0
 11
0.5450368503937008
 21
1.1138524409448818
 31
0
  0
LINE
  5
22A
330
1A
100
AcDbEntity
  8
BLACK
  6
CONTINUOUS
100
AcDbLine
 10
0.5450368503937008
 20
1.1138524409448818
 30
0
 11
0.5509094881889763
 21
1.1095857086614174
 31
0
  0
LINE
  5
22B
330
1A
100
AcDbEntity
  8
BLACK
  6
CONTINUOUS
100
AcDbLine
 10
0.5509094881889763
 20
1.1095857086614174
 30
0
 11
0.5560424015748031
 21
1.1044527952755905
 31
0
  0
LINE
  5
22C
330
1A
100
AcDbEntity
  8
BLACK
  6
CONTINUOUS
100
AcDbLine
 10
0.5560424015748031
 20
1.1044527952755905
 30
0
 11
0.5603091338582677
 21
1.0985801574803149
 31
0
  0
LINE
  5
22D
330
1A
100
AcDbEntity
  8
BLACK
  6
CONTINUOUS
100
AcDbLine
 10
0.5603091338582677
 20
1.0985801574803149
 30
0
 11
0.5636046456692914
 21
1.0921123228346457
 31
0
  0
LINE
  5
22E
330
1A
100
AcDbEntity
  8
BLACK
  6
CONTINUOUS
100
AcDbLine
 10
0.5636046456692914
 20
1.0921123228346457
 30
0
 11
0.5658478346456692
 21
1.0852085826771654
 31
0
  0
LINE
  5
22F
330
1A
100
AcDbEntity
  8
BLACK
  6
CONTINUOUS
100
AcDbLine
 10
0.5658478346456692
 20
1.0852085826771654
 30
0
 11
0.5669833858267717
 21
1.078038937007874
 31
0
  0
LINE
  5
230
330
1A
100
AcDbEntity
  8
BLACK
  6
CONTINUOUS
100
AcDbLine
 10
0.5669833858267717
 20
1.078038937007874
 30
0
 11
0.5669833858267717
 21
1.0707799606299213
 31
0
  0
LINE
  5
231
330
1A
100
AcDbEntity
  8
BLACK
  6
CONTINUOUS
100
AcDbLine
 10
0.5669833858267717
 20
1.0707799606299213
 30
0
 11
0.5658478346456692
 21
1.06361031496063
 31
0
  0
LINE
  5
232
330
1A
100
AcDbEntity
  8
BLACK
  6
CONTINUOUS
100
AcDbLine
 10
0.5658478346456692
 20
1.06361031496063
 30
0
 11
0.5636046456692914
 21
1.0567065748031497
 31
0
  0
LINE
  5
233
330
1A
100
AcDbEntity
  8
BLACK
  6
CONTINUOUS
100
AcDbLine
 10
0.5636046456692914
 20
1.0567065748031497
 30
0
 11
0.5603091338582677
 21
1.0502387401574802
 31
0
  0
LINE
  5
234
330
1A
100
AcDbEntity
  8
BLACK
  6
CONTINUOUS
100
AcDbLine
 10
0.5603091338582677
 20
1.0502387401574802
 30
0
 11
0.5560424015748031
 21
1.0443661023622046
 31
0
  0
LINE
  5
235
330
1A
100
AcDbEntity
  8
BLACK
  6
CONTINUOUS
100
AcDbLine
 10
0.5560424015748031
 20
1.0443661023622046
 30
0
 11
0.5509094881889763
 21
1.039233188976378
 31
0
  0
LINE
  5
236
330
1A
100
AcDbEntity
  8
BLACK
  6
CONTINUOUS
100
AcDbLine
 10
0.5509094881889763
 20
1.039233188976378
 30
0
 11
0.5450368503937008
 21
1.0349664566929133
 31
0
  0
LINE
  5
237
330
1A
100
AcDbEntity
  8
BLACK
  6
CONTINUOUS
100
AcDbLine
 10
0.5450368503937008
 20
1.0349664566929133
 30
0
 11
0.5385690157480315
 21
1.0316709448818897
 31
0
  0
LINE
  5
238
330
1A
100
AcDbEntity
  8
BLACK
  6
CONTINUOUS
100
AcDbLine
 10
0.5385690157480315
 20
1.0316709448818897
 30
0
 11
0.5316652755905512
 21
1.0294277559055118
 31
0
  0
LINE
  5
239
330
1A
100
AcDbEntity
  8
BLACK
  6
CONTINUOUS
100
AcDbLine
 10
0.5316652755905512
 20
1.0294277559055118
 30
0
 11
0.5244956299212599
 21
1.0282922047244094
 31
0
  0
LINE
  5
23A
330
1A
100
AcDbEntity
  8
BLACK
  6
CONTINUOUS
100
AcDbLine
 10
0.5244956299212599
 20
1.0282922047244094
 30
0
 11
0.5172366535433071
 21
1.0282922047244094
 31
0
  0
LINE
  5
23B
330
1A
100
AcDbEntity
  8
BLACK
  6
CONTINUOUS
100
AcDbLine
 10
0.5172366535433071
 20
1.0282922047244094
 30
0
 11
0.5100670078740157
 21
1.0294277559055118
 31
0
  0
LINE
  5
23C
330
1A
100
AcDbEntity
  8
BLACK
  6
CONTINUOUS
100
AcDbLine
 10
0.5100670078740157
 20
1.0294277559055118
 30
0
 11
0.5031632677165354
 21
1.0316709448818897
 31
0
  0
LINE
  5
23D
330
1A
100
AcDbEntity
  8
BLACK
  6
CONTINUOUS
100
AcDbLine
 10
0.5031632677165354
 20
1.0316709448818897
 30
0
 11
0.4966954330708661
 21
1.0349664566929133
 31
0
  0
LINE
  5
23E
330
1A
100
AcDbEntity
  8
BLACK
  6
CONTINUOUS
100
AcDbLine
 10
0.4966954330708661
 20
1.0349664566929133
 30
0
 11
0.4908227952755905
 21
1.039233188976378
 31
0
  0
LINE
  5
23F
330
1A
100
AcDbEntity
  8
BLACK
  6
CONTINUOUS
100
AcDbLine
 10
0.4908227952755905
 20
1.039233188976378
 30
0
 11
0.4856898818897638
 21
1.0443661023622046
 31
0
  0
LINE
  5
240
330
1A
100
AcDbEntity
  8
BLACK
  6
CONTINUOUS
100
AcDbLine
 10
0.4856898818897638
 20
1.0443661023622046
 30
0
 11
0.4814231496062992
 21
1.0502387401574802
 31
0
  0
LINE
  5
241
330
1A
100
AcDbEntity
  8
BLACK
  6
CONTINUOUS
100
AcDbLine
 10
0.4814231496062992
 20
1.0502387401574802
 30
0
 11
0.4781276377952756
 21
1.0567065748031497
 31
0
  0
LINE
  5
242
330
1A
100
AcDbEntity
  8
BLACK
  6
CONTINUOUS
100
AcDbLine
 10
0.4781276377952756
 20
1.0567065748031497
 30
0
 11
0.4758844488188976
 21
1.06361031496063
 31
0
  0
LINE
  5
243
330
1A
100
AcDbEntity
  8
BLACK
  6
CONTINUOUS
100
AcDbLine
 10
0.4758844488188976
 20
1.06361031496063
 30
0
 11
0.4747488976377953
 21
1.0707799606299213
 31
0
  0
LINE
  5
244
330
1A
100
AcDbEntity
  8
BLACK
  6
CONTINUOUS
100
AcDbLine
 10
0.4747488976377953
 20
1.0707799606299213
 30
0
 11
0.4747488976377953
 21
1.078038937007874
 31
0
  0
LINE
  5
245
330
1A
100
AcDbEntity
  8
BLACK
  6
CONTINUOUS
100
AcDbLine
 10
0.4747488976377953
 20
1.078038937007874
 30
0
 11
0.4758844488188976
 21
1.0852085826771654
 31
0
  0
LINE
  5
246
330
1A
100
AcDbEntity
  8
BLACK
  6
CONTINUOUS
100
AcDbLine
 10
0.4758844488188976
 20
1.0852085826771654
 30
0
 11
0.4781276377952756
 21
1.0921123228346457
 31
0
  0
LINE
  5
247
330
1A
100
AcDbEntity
  8
BLACK
  6
CONTINUOUS
100
AcDbLine
 10
0.4781276377952756
 20
1.0921123228346457
 30
0
 11
0.4814231496062992
 21
1.0985801574803149
 31
0
  0
LINE
  5
248
330
1A
100
AcDbEntity
  8
BLACK
  6
CONTINUOUS
100
AcDbLine
 10
0.4814231496062992
 20
1.0985801574803149
 30
0
 11
0.4856898818897638
 21
1.1044527952755905
 31
0
  0
LINE
  5
249
330
1A
100
AcDbEntity
  8
BLACK
  6
CONTINUOUS
100
AcDbLine
 10
0.4856898818897638
 20
1.1044527952755905
 30
0
 11
0.4908227952755905
 21
1.1095857086614174
 31
0
  0
LINE
  5
24A
330
1A
100
AcDbEntity
  8
BLACK
  6
CONTINUOUS
100
AcDbLine
 10
0.4908227952755905
 20
1.1095857086614174
 30
0
 11
0.4966954330708661
 21
1.1138524409448818
 31
0
  0
LINE
  5
24B
330
1A
100
AcDbEntity
  8
BLACK
  6
CONTINUOUS
100
AcDbLine
 10
0.4966954330708661
 20
1.1138524409448818
 30
0
 11
0.5031632677165354
 21
1.1171479527559054
 31
0
  0
LINE
  5
24C
330
1A
100
AcDbEntity
  8
BLACK
  6
CONTINUOUS
100
AcDbLine
 10
0.5031632677165354
 20
1.1171479527559054
 30
0
 11
0.5100670078740157
 21
1.1193911417322835
 31
0
  0
LINE
  5
24D
330
1A
100
AcDbEntity
  8
BLACK
  6
CONTINUOUS
100
AcDbLine
 10
0.5100670078740157
 20
1.1193911417322835
 30
0
 11
0.5172366535433071
 21
1.1205266929133857
 31
0
  0
LINE
  5
24E
330
1A
100
AcDbEntity
  8
BLACK
  6
CONTINUOUS
100
AcDbLine
 10
0.5172366535433071
 20
1.1205266929133857
 30
0
 11
0.5244956299212599
 21
1.1205266929133857
 31
0
  0
LINE
  5
24F
330
1A
100
AcDbEntity
  8
BLACK
  6
CONTINUOUS
100
AcDbLine
 10
0.5244956299212599
 20
1.1205266929133857
 30
0
 11
0.5316652755905512
 21
1.1193911417322835
 31
0
  0
LINE
  5
250
330
1A
100
AcDbEntity
  8
BLACK
  6
CONTINUOUS
100
AcDbLine
 10
2.7236666929133859
 20
1.1617399212598425
 30
0
 11
2.7243053149606298
 21
1.1613131889763779
 31
0
  0
LINE
  5
251
330
1A
100
AcDbEntity
  8
BLACK
  6
CONTINUOUS
100
AcDbLine
 10
2.7243053149606298
 20
1.1613131889763779
 30
0
 11
2.7247320472440943
 21
1.1606745669291338
 31
0
  0
LINE
  5
252
330
1A
100
AcDbEntity
  8
BLACK
  6
CONTINUOUS
100
AcDbLine
 10
2.7247320472440943
 20
1.1606745669291338
 30
0
 11
2.7248818897637794
 21
1.1599212598425197
 31
0
  0
LINE
  5
253
330
1A
100
AcDbEntity
  8
BLACK
  6
CONTINUOUS
100
AcDbLine
 10
2.7248818897637794
 20
1.1599212598425197
 30
0
 11
2.7248818897637794
 21
1.0999212598425196
 31
0
  0
LINE
  5
254
330
1A
100
AcDbEntity
  8
BLACK
  6
CONTINUOUS
100
AcDbLine
 10
2.7248818897637794
 20
1.0999212598425196
 30
0
 11
2.7247320472440943
 21
1.0991679527559055
 31
0
  0
LINE
  5
255
330
1A
100
AcDbEntity
  8
BLACK
  6
CONTINUOUS
100
AcDbLine
 10
2.7247320472440943
 20
1.0991679527559055
 30
0
 11
2.7243053149606298
 21
1.0985293307086614
 31
0
  0
LINE
  5
256
330
1A
100
AcDbEntity
  8
BLACK
  6
CONTINUOUS
100
AcDbLine
 10
2.7243053149606298
 20
1.0985293307086614
 30
0
 11
2.7236666929133859
 21
1.0981025984251969
 31
0
  0
LINE
  5
257
330
1A
100
AcDbEntity
  8
BLACK
  6
CONTINUOUS
100
AcDbLine
 10
2.7236666929133859
 20
1.0981025984251969
 30
0
 11
2.7229133858267716
 21
1.0979527559055118
 31
0
  0
LINE
  5
258
330
1A
100
AcDbEntity
  8
BLACK
  6
CONTINUOUS
100
AcDbLine
 10
2.7229133858267716
 20
1.0979527559055118
 30
0
 11
2.6629133858267715
 21
1.0979527559055118
 31
0
  0
LINE
  5
259
330
1A
100
AcDbEntity
  8
BLACK
  6
CONTINUOUS
100
AcDbLine
 10
2.6629133858267715
 20
1.0979527559055118
 30
0
 11
2.6621600787401576
 21
1.0981025984251969
 31
0
  0
LINE
  5
25A
330
1A
100
AcDbEntity
  8
BLACK
  6
CONTINUOUS
100
AcDbLine
 10
2.6621600787401576
 20
1.0981025984251969
 30
0
 11
2.6615214566929133
 21
1.0985293307086614
 31
0
  0
LINE
  5
25B
330
1A
100
AcDbEntity
  8
BLACK
  6
CONTINUOUS
100
AcDbLine
 10
2.6615214566929133
 20
1.0985293307086614
 30
0
 11
2.6610947244094487
 21
1.0991679527559055
 31
0
  0
LINE
  5
25C
330
1A
100
AcDbEntity
  8
BLACK
  6
CONTINUOUS
100
AcDbLine
 10
2.6610947244094487
 20
1.0991679527559055
 30
0
 11
2.6609448818897636
 21
1.0999212598425196
 31
0
  0
LINE
  5
25D
330
1A
100
AcDbEntity
  8
BLACK
  6
CONTINUOUS
100
AcDbLine
 10
2.6609448818897636
 20
1.0999212598425196
 30
0
 11
2.6609448818897636
 21
1.1599212598425197
 31
0
  0
LINE
  5
25E
330
1A
100
AcDbEntity
  8
BLACK
  6
CONTINUOUS
100
AcDbLine
 10
2.6609448818897636
 20
1.1599212598425197
 30
0
 11
2.6610947244094487
 21
1.1606745669291338
 31
0
  0
LINE
  5
25F
330
1A
100
AcDbEntity
  8
BLACK
  6
CONTINUOUS
100
AcDbLine
 10
2.6610947244094487
 20
1.1606745669291338
 30
0
 11
2.6615214566929133
 21
1.1613131889763779
 31
0
  0
LINE
  5
260
330
1A
100
AcDbEntity
  8
BLACK
  6
CONTINUOUS
100
AcDbLine
 10
2.6615214566929133
 20
1.1613131889763779
 30
0
 11
2.6621600787401576
 21
1.1617399212598425
 31
0
  0
LINE
  5
261
330
1A
100
AcDbEntity
  8
BLACK
  6
CONTINUOUS
100
AcDbLine
 10
2.6621600787401576
 20
1.1617399212598425
 30
0
 11
2.6629133858267715
 21
1.1618897637795276
 31
0
  0
LINE
  5
262
330
1A
100
AcDbEntity
  8
BLACK
  6
CONTINUOUS
100
AcDbLine
 10
2.6629133858267715
 20
1.1618897637795276
 30
0
 11
2.7229133858267716
 21
1.1618897637795276
 31
0
  0
LINE
  5
263
330
1A
100
AcDbEntity
  8
BLACK
  6
CONTINUOUS
100
AcDbLine
 10
2.7229133858267716
 20
1.1618897637795276
 30
0
 11
2.7236666929133859
 21
1.1617399212598425
 31
0
  0
LINE
  5
264
330
1A
100
AcDbEntity
  8
BLACK
  6
CONTINUOUS
100
AcDbLine
 10
2.8236666929133856
 20
1.1617399212598425
 30
0
 11
2.8243053149606299
 21
1.1613131889763779
 31
0
  0
LINE
  5
265
330
1A
100
AcDbEntity
  8
BLACK
  6
CONTINUOUS
100
AcDbLine
 10
2.8243053149606299
 20
1.1613131889763779
 30
0
 11
2.8247320472440944
 21
1.1606745669291338
 31
0
  0
LINE
  5
266
330
1A
100
AcDbEntity
  8
BLACK
  6
CONTINUOUS
100
AcDbLine
 10
2.8247320472440944
 20
1.1606745669291338
 30
0
 11
2.8248818897637795
 21
1.1599212598425197
 31
0
  0
LINE
  5
267
330
1A
100
AcDbEntity
  8
BLACK
  6
CONTINUOUS
100
AcDbLine
 10
2.8248818897637795
 20
1.1599212598425197
 30
0
 11
2.8248818897637795
 21
1.0999212598425196
 31
0
  0
LINE
  5
268
330
1A
100
AcDbEntity
  8
BLACK
  6
CONTINUOUS
100
AcDbLine
 10
2.8248818897637795
 20
1.0999212598425196
 30
0
 11
2.8247320472440944
 21
1.0991679527559055
 31
0
  0
LINE
  5
269
330
1A
100
AcDbEntity
  8
BLACK
  6
CONTINUOUS
100
AcDbLine
 10
2.8247320472440944
 20
1.0991679527559055
 30
0
 11
2.8243053149606299
 21
1.0985293307086614
 31
0
  0
LINE
  5
26A
330
1A
100
AcDbEntity
  8
BLACK
  6
CONTINUOUS
100
AcDbLine
 10
2.8243053149606299
 20
1.0985293307086614
 30
0
 11
2.8236666929133856
 21
1.0981025984251969
 31
0
  0
LINE
  5
26B
330
1A
100
AcDbEntity
  8
BLACK
  6
CONTINUOUS
100
AcDbLine
 10
2.8236666929133856
 20
1.0981025984251969
 30
0
 11
2.8229133858267716
 21
1.0979527559055118
 31
0
  0
LINE
  5
26C
330
1A
100
AcDbEntity
  8
BLACK
  6
CONTINUOUS
100
AcDbLine
 10
2.8229133858267716
 20
1.0979527559055118
 30
0
 11
2.7629133858267716
 21
1.0979527559055118
 31
0
  0
LINE
  5
26D
330
1A
100
AcDbEntity
  8
BLACK
  6
CONTINUOUS
100
AcDbLine
 10
2.7629133858267716
 20
1.0979527559055118
 30
0
 11
2.7621600787401572
 21
1.0981025984251969
 31
0
  0
LINE
  5
26E
330
1A
100
AcDbEntity
  8
BLACK
  6
CONTINUOUS
100
AcDbLine
 10
2.7621600787401572
 20
1.0981025984251969
 30
0
 11
2.7615214566929134
 21
1.0985293307086614
 31
0
  0
LINE
  5
26F
330
1A
100
AcDbEntity
  8
BLACK
  6
CONTINUOUS
100
AcDbLine
 10
2.7615214566929134
 20
1.0985293307086614
 30
0
 11
2.7610947244094488
 21
1.0991679527559055
 31
0
  0
LINE
  5
270
330
1A
100
AcDbEntity
  8
BLACK
  6
CONTINUOUS
100
AcDbLine
 10
2.7610947244094488
 20
1.0991679527559055
 30
0
 11
2.7609448818897637
 21
1.0999212598425196
 31
0
  0
LINE
  5
271
330
1A
100
AcDbEntity
  8
BLACK
  6
CONTINUOUS
100
AcDbLine
 10
2.7609448818897637
 20
1.0999212598425196
 30
0
 11
2.7609448818897637
 21
1.1599212598425197
 31
0
  0
LINE
  5
272
330
1A
100
AcDbEntity
  8
BLACK
  6
CONTINUOUS
100
AcDbLine
 10
2.7609448818897637
 20
1.1599212598425197
 30
0
 11
2.7610947244094488
 21
1.1606745669291338
 31
0
  0
LINE
  5
273
330
1A
100
AcDbEntity
  8
BLACK
  6
CONTINUOUS
100
AcDbLine
 10
2.7610947244094488
 20
1.1606745669291338
 30
0
 11
2.7615214566929134
 21
1.1613131889763779
 31
0
  0
LINE
  5
274
330
1A
100
AcDbEntity
  8
BLACK
  6
CONTINUOUS
100
AcDbLine
 10
2.7615214566929134
 20
1.1613131889763779
 30
0
 11
2.7621600787401572
 21
1.1617399212598425
 31
0
  0
LINE
  5
275
330
1A
100
AcDbEntity
  8
BLACK
  6
CONTINUOUS
100
AcDbLine
 10
2.7621600787401572
 20
1.1617399212598425
 30
0
 11
2.7629133858267716
 21
1.1618897637795276
 31
0
  0
LINE
  5
276
330
1A
100
AcDbEntity
  8
BLACK
  6
CONTINUOUS
100
AcDbLine
 10
2.7629133858267716
 20
1.1618897637795276
 30
0
 11
2.8229133858267716
 21
1.1618897637795276
 31
0
  0
LINE
  5
277
330
1A
100
AcDbEntity
  8
BLACK
  6
CONTINUOUS
100
AcDbLine
 10
2.8229133858267716
 20
1.1618897637795276
 30
0
 11
2.8236666929133856
 21
1.1617399212598425
 31
0
  0
LINE
  5
278
330
1A
100
AcDbEntity
  8
BLACK
  6
CONTINUOUS
100
AcDbLine
 10
0.4307462204724409
 20
1.2155629133858268
 30
0
 11
0.4370624015748031
 21
1.2135106299212599
 31
0
  0
LINE
  5
279
330
1A
100
AcDbEntity
  8
BLACK
  6
CONTINUOUS
100
AcDbLine
 10
0.4370624015748031
 20
1.2135106299212599
 30
0
 11
0.4429797637795275
 21
1.2104955905511812
 31
0
  0
LINE
  5
27A
330
1A
100
AcDbEntity
  8
BLACK
  6
CONTINUOUS
100
AcDbLine
 10
0.4429797637795275
 20
1.2104955905511812
 30
0
 11
0.4483526377952756
 21
1.206591968503937
 31
0
  0
LINE
  5
27B
330
1A
100
AcDbEntity
  8
BLACK
  6
CONTINUOUS
100
AcDbLine
 10
0.4483526377952756
 20
1.206591968503937
 30
0
 11
0.4530486614173228
 21
1.2018959448818898
 31
0
  0
LINE
  5
27C
330
1A
100
AcDbEntity
  8
BLACK
  6
CONTINUOUS
100
AcDbLine
 10
0.4530486614173228
 20
1.2018959448818898
 30
0
 11
0.4569522834645669
 21
1.1965230708661416
 31
0
  0
LINE
  5
27D
330
1A
100
AcDbEntity
  8
BLACK
  6
CONTINUOUS
100
AcDbLine
 10
0.4569522834645669
 20
1.1965230708661416
 30
0
 11
0.4599673228346456
 21
1.1906057086614172
 31
0
  0
LINE
  5
27E
330
1A
100
AcDbEntity
  8
BLACK
  6
CONTINUOUS
100
AcDbLine
 10
0.4599673228346456
 20
1.1906057086614172
 30
0
 11
0.4620196062992126
 21
1.184289527559055
 31
0
  0
LINE
  5
27F
330
1A
100
AcDbEntity
  8
BLACK
  6
CONTINUOUS
100
AcDbLine
 10
0.4620196062992126
 20
1.184289527559055
 30
0
 11
0.4630585039370079
 21
1.1777300787401574
 31
0
  0
LINE
  5
280
330
1A
100
AcDbEntity
  8
BLACK
  6
CONTINUOUS
100
AcDbLine
 10
0.4630585039370079
 20
1.1777300787401574
 30
0
 11
0.4630585039370079
 21
1.1710888188976378
 31
0
  0
LINE
  5
281
330
1A
100
AcDbEntity
  8
BLACK
  6
CONTINUOUS
100
AcDbLine
 10
0.4630585039370079
 20
1.1710888188976378
 30
0
 11
0.4620196062992126
 21
1.16452937007874
 31
0
  0
LINE
  5
282
330
1A
100
AcDbEntity
  8
BLACK
  6
CONTINUOUS
100
AcDbLine
 10
0.4620196062992126
 20
1.16452937007874
 30
0
 11
0.4599673228346456
 21
1.1582131889763778
 31
0
  0
LINE
  5
283
330
1A
100
AcDbEntity
  8
BLACK
  6
CONTINUOUS
100
AcDbLine
 10
0.4599673228346456
 20
1.1582131889763778
 30
0
 11
0.4569522834645669
 21
1.1522958267716534
 31
0
  0
LINE
  5
284
330
1A
100
AcDbEntity
  8
BLACK
  6
CONTINUOUS
100
AcDbLine
 10
0.4569522834645669
 20
1.1522958267716534
 30
0
 11
0.4530486614173228
 21
1.1469229527559055
 31
0
  0
LINE
  5
285
330
1A
100
AcDbEntity
  8
BLACK
  6
CONTINUOUS
100
AcDbLine
 10
0.4530486614173228
 20
1.1469229527559055
 30
0
 11
0.4483526377952756
 21
1.1422269291338583
 31
0
  0
LINE
  5
286
330
1A
100
AcDbEntity
  8
BLACK
  6
CONTINUOUS
100
AcDbLine
 10
0.4483526377952756
 20
1.1422269291338583
 30
0
 11
0.4429797637795275
 21
1.1383233070866141
 31
0
  0
LINE
  5
287
330
1A
100
AcDbEntity
  8
BLACK
  6
CONTINUOUS
100
AcDbLine
 10
0.4429797637795275
 20
1.1383233070866141
 30
0
 11
0.4370624015748031
 21
1.1353082677165354
 31
0
  0
LINE
  5
288
330
1A
100
AcDbEntity
  8
BLACK
  6
CONTINUOUS
100
AcDbLine
 10
0.4370624015748031
 20
1.1353082677165354
 30
0
 11
0.4307462204724409
 21
1.1332559842519685
 31
0
  0
LINE
  5
289
330
1A
100
AcDbEntity
  8
BLACK
  6
CONTINUOUS
100
AcDbLine
 10
0.4307462204724409
 20
1.1332559842519685
 30
0
 11
0.4241867716535433
 21
1.1322170866141732
 31
0
  0
LINE
  5
28A
330
1A
100
AcDbEntity
  8
BLACK
  6
CONTINUOUS
100
AcDbLine
 10
0.4241867716535433
 20
1.1322170866141732
 30
0
 11
0.4175455118110236
 21
1.1322170866141732
 31
0
  0
LINE
  5
28B
330
1A
100
AcDbEntity
  8
BLACK
  6
CONTINUOUS
100
AcDbLine
 10
0.4175455118110236
 20
1.1322170866141732
 30
0
 11
0.410986062992126
 21
1.1332559842519685
 31
0
  0
LINE
  5
28C
330
1A
100
AcDbEntity
  8
BLACK
  6
CONTINUOUS
100
AcDbLine
 10
0.410986062992126
 20
1.1332559842519685
 30
0
 11
0.4046698818897638
 21
1.1353082677165354
 31
0
  0
LINE
  5
28D
330
1A
100
AcDbEntity
  8
BLACK
  6
CONTINUOUS
100
AcDbLine
 10
0.4046698818897638
 20
1.1353082677165354
 30
0
 11
0.3987525196850394
 21
1.1383233070866141
 31
0
  0
LINE
  5
28E
330
1A
100
AcDbEntity
  8
BLACK
  6
CONTINUOUS
100
AcDbLine
 10
0.3987525196850394
 20
1.1383233070866141
 30
0
 11
0.3933796456692913
 21
1.1422269291338583
 31
0
  0
LINE
  5
28F
330
1A
100
AcDbEntity
  8
BLACK
  6
CONTINUOUS
100
AcDbLine
 10
0.3933796456692913
 20
1.1422269291338583
 30
0
 11
0.3886836220472441
 21
1.1469229527559055
 31
0
  0
LINE
  5
290
330
1A
100
AcDbEntity
  8
BLACK
  6
CONTINUOUS
100
AcDbLine
 10
0.3886836220472441
 20
1.1469229527559055
 30
0
 11
0.38478
 21
1.1522958267716534
 31
0
  0
LINE
  5
291
330
1A
100
AcDbEntity
  8
BLACK
  6
CONTINUOUS
100
AcDbLine
 10
0.38478
 20
1.1522958267716534
 30
0
 11
0.3817649606299213
 21
1.1582131889763778
 31
0
  0
LINE
  5
292
330
1A
100
AcDbEntity
  8
BLACK
  6
CONTINUOUS
100
AcDbLine
 10
0.3817649606299213
 20
1.1582131889763778
 30
0
 11
0.3797126771653543
 21
1.16452937007874
 31
0
  0
LINE
  5
293
330
1A
100
AcDbEntity
  8
BLACK
  6
CONTINUOUS
100
AcDbLine
 10
0.3797126771653543
 20
1.16452937007874
 30
0
 11
0.378673779527559
 21
1.1710888188976378
 31
0
  0
LINE
  5
294
330
1A
100
AcDbEntity
  8
BLACK
  6
CONTINUOUS
100
AcDbLine
 10
0.378673779527559
 20
1.1710888188976378
 30
0
 11
0.378673779527559
 21
1.1777300787401574
 31
0
  0
LINE
  5
295
330
1A
100
AcDbEntity
  8
BLACK
  6
CONTINUOUS
100
AcDbLine
 10
0.378673779527559
 20
1.1777300787401574
 30
0
 11
0.3797126771653543
 21
1.184289527559055
 31
0
  0
LINE
  5
296
330
1A
100
AcDbEntity
  8
BLACK
  6
CONTINUOUS
100
AcDbLine
 10
0.3797126771653543
 20
1.184289527559055
 30
0
 11
0.3817649606299213
 21
1.1906057086614172
 31
0
  0
LINE
  5
297
330
1A
100
AcDbEntity
  8
BLACK
  6
CONTINUOUS
100
AcDbLine
 10
0.3817649606299213
 20
1.1906057086614172
 30
0
 11
0.38478
 21
1.1965230708661416
 31
0
  0
LINE
  5
298
330
1A
100
AcDbEntity
  8
BLACK
  6
CONTINUOUS
100
AcDbLine
 10
0.38478
 20
1.1965230708661416
 30
0
 11
0.3886836220472441
 21
1.2018959448818898
 31
0
  0
LINE
  5
299
330
1A
100
AcDbEntity
  8
BLACK
  6
CONTINUOUS
100
AcDbLine
 10
0.3886836220472441
 20
1.2018959448818898
 30
0
 11
0.3933796456692913
 21
1.206591968503937
 31
0
  0
LINE
  5
29A
330
1A
100
AcDbEntity
  8
BLACK
  6
CONTINUOUS
100
AcDbLine
 10
0.3933796456692913
 20
1.206591968503937
 30
0
 11
0.3987525196850394
 21
1.2104955905511812
 31
0
  0
LINE
  5
29B
330
1A
100
AcDbEntity
  8
BLACK
  6
CONTINUOUS
100
AcDbLine
 10
0.3987525196850394
 20
1.2104955905511812
 30
0
 11
0.4046698818897638
 21
1.2135106299212599
 31
0
  0
LINE
  5
29C
330
1A
100
AcDbEntity
  8
BLACK
  6
CONTINUOUS
100
AcDbLine
 10
0.4046698818897638
 20
1.2135106299212599
 30
0
 11
0.410986062992126
 21
1.2155629133858268
 31
0
  0
LINE
  5
29D
330
1A
100
AcDbEntity
  8
BLACK
  6
CONTINUOUS
100
AcDbLine
 10
0.410986062992126
 20
1.2155629133858268
 30
0
 11
0.4175455118110236
 21
1.2166018110236221
 31
0
  0
LINE
  5
29E
330
1A
100
AcDbEntity
  8
BLACK
  6
CONTINUOUS
100
AcDbLine
 10
0.4175455118110236
 20
1.2166018110236221
 30
0
 11
0.4241867716535433
 21
1.2166018110236221
 31
0
  0
LINE
  5
29F
330
1A
100
AcDbEntity
  8
BLACK
  6
CONTINUOUS
100
AcDbLine
 10
0.4241867716535433
 20
1.2166018110236221
 30
0
 11
0.4307462204724409
 21
1.2155629133858268
 31
0
  0
LINE
  5
2A0
330
1A
100
AcDbEntity
  8
BLACK
  6
CONTINUOUS
100
AcDbLine
 10
2.7236666929133859
 20
1.2617399212598426
 30
0
 11
2.7243053149606298
 21
1.261313188976378
 31
0
  0
LINE
  5
2A1
330
1A
100
AcDbEntity
  8
BLACK
  6
CONTINUOUS
100
AcDbLine
 10
2.7243053149606298
 20
1.261313188976378
 30
0
 11
2.7247320472440943
 21
1.2606745669291339
 31
0
  0
LINE
  5
2A2
330
1A
100
AcDbEntity
  8
BLACK
  6
CONTINUOUS
100
AcDbLine
 10
2.7247320472440943
 20
1.2606745669291339
 30
0
 11
2.7248818897637794
 21
1.2599212598425196
 31
0
  0
LINE
  5
2A3
330
1A
100
AcDbEntity
  8
BLACK
  6
CONTINUOUS
100
AcDbLine
 10
2.7248818897637794
 20
1.2599212598425196
 30
0
 11
2.7248818897637794
 21
1.1999212598425197
 31
0
  0
LINE
  5
2A4
330
1A
100
AcDbEntity
  8
BLACK
  6
CONTINUOUS
100
AcDbLine
 10
2.7248818897637794
 20
1.1999212598425197
 30
0
 11
2.7247320472440943
 21
1.1991679527559054
 31
0
  0
LINE
  5
2A5
330
1A
100
AcDbEntity
  8
BLACK
  6
CONTINUOUS
100
AcDbLine
 10
2.7247320472440943
 20
1.1991679527559054
 30
0
 11
2.7243053149606298
 21
1.1985293307086613
 31
0
  0
LINE
  5
2A6
330
1A
100
AcDbEntity
  8
BLACK
  6
CONTINUOUS
100
AcDbLine
 10
2.7243053149606298
 20
1.1985293307086613
 30
0
 11
2.7236666929133859
 21
1.1981025984251967
 31
0
  0
LINE
  5
2A7
330
1A
100
AcDbEntity
  8
BLACK
  6
CONTINUOUS
100
AcDbLine
 10
2.7236666929133859
 20
1.1981025984251967
 30
0
 11
2.7229133858267716
 21
1.1979527559055119
 31
0
  0
LINE
  5
2A8
330
1A
100
AcDbEntity
  8
BLACK
  6
CONTINUOUS
100
AcDbLine
 10
2.7229133858267716
 20
1.1979527559055119
 30
0
 11
2.6629133858267715
 21
1.1979527559055119
 31
0
  0
LINE
  5
2A9
330
1A
100
AcDbEntity
  8
BLACK
  6
CONTINUOUS
100
AcDbLine
 10
2.6629133858267715
 20
1.1979527559055119
 30
0
 11
2.6621600787401576
 21
1.1981025984251967
 31
0
  0
LINE
  5
2AA
330
1A
100
AcDbEntity
  8
BLACK
  6
CONTINUOUS
100
AcDbLine
 10
2.6621600787401576
 20
1.1981025984251967
 30
0
 11
2.6615214566929133
 21
1.1985293307086613
 31
0
  0
LINE
  5
2AB
330
1A
100
AcDbEntity
  8
BLACK
  6
CONTINUOUS
100
AcDbLine
 10
2.6615214566929133
 20
1.1985293307086613
 30
0
 11
2.6610947244094487
 21
1.1991679527559054
 31
0
  0
LINE
  5
2AC
330
1A
100
AcDbEntity
  8
BLACK
  6
CONTINUOUS
100
AcDbLine
 10
2.6610947244094487
 20
1.1991679527559054
 30
0
 11
2.6609448818897636
 21
1.1999212598425197
 31
0
  0
LINE
  5
2AD
330
1A
100
AcDbEntity
  8
BLACK
  6
CONTINUOUS
100
AcDbLine
 10
2.6609448818897636
 20
1.1999212598425197
 30
0
 11
2.6609448818897636
 21
1.2599212598425196
 31
0
  0
LINE
  5
2AE
330
1A
100
AcDbEntity
  8
BLACK
  6
CONTINUOUS
100
AcDbLine
 10
2.6609448818897636
 20
1.2599212598425196
 30
0
 11
2.6610947244094487
 21
1.2606745669291339
 31
0
  0
LINE
  5
2AF
330
1A
100
AcDbEntity
  8
BLACK
  6
CONTINUOUS
100
AcDbLine
 10
2.6610947244094487
 20
1.2606745669291339
 30
0
 11
2.6615214566929133
 21
1.261313188976378
 31
0
  0
LINE
  5
2B0
330
1A
100
AcDbEntity
  8
BLACK
  6
CONTINUOUS
100
AcDbLine
 10
2.6615214566929133
 20
1.261313188976378
 30
0
 11
2.6621600787401576
 21
1.2617399212598426
 31
0
  0
LINE
  5
2B1
330
1A
100
AcDbEntity
  8
BLACK
  6
CONTINUOUS
100
AcDbLine
 10
2.6621600787401576
 20
1.2617399212598426
 30
0
 11
2.6629133858267715
 21
1.2618897637795274
 31
0
  0
LINE
  5
2B2
330
1A
100
AcDbEntity
  8
BLACK
  6
CONTINUOUS
100
AcDbLine
 10
2.6629133858267715
 20
1.2618897637795274
 30
0
 11
2.7229133858267716
 21
1.2618897637795274
 31
0
  0
LINE
  5
2B3
330
1A
100
AcDbEntity
  8
BLACK
  6
CONTINUOUS
100
AcDbLine
 10
2.7229133858267716
 20
1.2618897637795274
 30
0
 11
2.7236666929133859
 21
1.2617399212598426
 31
0
  0
LINE
  5
2B4
330
1A
100
AcDbEntity
  8
BLACK
  6
CONTINUOUS
100
AcDbLine
 10
2.8236666929133856
 20
1.2617399212598426
 30
0
 11
2.8243053149606299
 21
1.261313188976378
 31
0
  0
LINE
  5
2B5
330
1A
100
AcDbEntity
  8
BLACK
  6
CONTINUOUS
100
AcDbLine
 10
2.8243053149606299
 20
1.261313188976378
 30
0
 11
2.8247320472440944
 21
1.2606745669291339
 31
0
  0
LINE
  5
2B6
330
1A
100
AcDbEntity
  8
BLACK
  6
CONTINUOUS
100
AcDbLine
 10
2.8247320472440944
 20
1.2606745669291339
 30
0
 11
2.8248818897637795
 21
1.2599212598425196
 31
0
  0
LINE
  5
2B7
330
1A
100
AcDbEntity
  8
BLACK
  6
CONTINUOUS
100
AcDbLine
 10
2.8248818897637795
 20
1.2599212598425196
 30
0
 11
2.8248818897637795
 21
1.1999212598425197
 31
0
  0
LINE
  5
2B8
330
1A
100
AcDbEntity
  8
BLACK
  6
CONTINUOUS
100
AcDbLine
 10
2.8248818897637795
 20
1.1999212598425197
 30
0
 11
2.8247320472440944
 21
1.1991679527559054
 31
0
  0
LINE
  5
2B9
330
1A
100
AcDbEntity
  8
BLACK
  6
CONTINUOUS
100
AcDbLine
 10
2.8247320472440944
 20
1.1991679527559054
 30
0
 11
2.8243053149606299
 21
1.1985293307086613
 31
0
  0
LINE
  5
2BA
330
1A
100
AcDbEntity
  8
BLACK
  6
CONTINUOUS
100
AcDbLine
 10
2.8243053149606299
 20
1.1985293307086613
 30
0
 11
2.8236666929133856
 21
1.1981025984251967
 31
0
  0
LINE
  5
2BB
330
1A
100
AcDbEntity
  8
BLACK
  6
CONTINUOUS
100
AcDbLine
 10
2.8236666929133856
 20
1.1981025984251967
 30
0
 11
2.8229133858267716
 21
1.1979527559055119
 31
0
  0
LINE
  5
2BC
330
1A
100
AcDbEntity
  8
BLACK
  6
CONTINUOUS
100
AcDbLine
 10
2.8229133858267716
 20
1.1979527559055119
 30
0
 11
2.7629133858267716
 21
1.1979527559055119
 31
0
  0
LINE
  5
2BD
330
1A
100
AcDbEntity
  8
BLACK
  6
CONTINUOUS
100
AcDbLine
 10
2.7629133858267716
 20
1.1979527559055119
 30
0
 11
2.7621600787401572
 21
1.1981025984251967
 31
0
  0
LINE
  5
2BE
330
1A
100
AcDbEntity
  8
BLACK
  6
CONTINUOUS
100
AcDbLine
 10
2.7621600787401572
 20
1.1981025984251967
 30
0
 11
2.7615214566929134
 21
1.1985293307086613
 31
0
  0
LINE
  5
2BF
330
1A
100
AcDbEntity
  8
BLACK
  6
CONTINUOUS
100
AcDbLine
 10
2.7615214566929134
 20
1.1985293307086613
 30
0
 11
2.7610947244094488
 21
1.1991679527559054
 31
0
  0
LINE
  5
2C0
330
1A
100
AcDbEntity
  8
BLACK
  6
CONTINUOUS
100
AcDbLine
 10
2.7610947244094488
 20
1.1991679527559054
 30
0
 11
2.7609448818897637
 21
1.1999212598425197
 31
0
  0
LINE
  5
2C1
330
1A
100
AcDbEntity
  8
BLACK
  6
CONTINUOUS
100
AcDbLine
 10
2.7609448818897637
 20
1.1999212598425197
 30
0
 11
2.7609448818897637
 21
1.2599212598425196
 31
0
  0
LINE
  5
2C2
330
1A
100
AcDbEntity
  8
BLACK
  6
CONTINUOUS
100
AcDbLine
 10
2.7609448818897637
 20
1.2599212598425196
 30
0
 11
2.7610947244094488
 21
1.2606745669291339
 31
0
  0
LINE
  5
2C3
330
1A
100
AcDbEntity
  8
BLACK
  6
CONTINUOUS
100
AcDbLine
 10
2.7610947244094488
 20
1.2606745669291339
 30
0
 11
2.7615214566929134
 21
1.261313188976378
 31
0
  0
LINE
  5
2C4
330
1A
100
AcDbEntity
  8
BLACK
  6
CONTINUOUS
100
AcDbLine
 10
2.7615214566929134
 20
1.261313188976378
 30
0
 11
2.7621600787401572
 21
1.2617399212598426
 31
0
  0
LINE
  5
2C5
330
1A
100
AcDbEntity
  8
BLACK
  6
CONTINUOUS
100
AcDbLine
 10
2.7621600787401572
 20
1.2617399212598426
 30
0
 11
2.7629133858267716
 21
1.2618897637795274
 31
0
  0
LINE
  5
2C6
330
1A
100
AcDbEntity
  8
BLACK
  6
CONTINUOUS
100
AcDbLine
 10
2.7629133858267716
 20
1.2618897637795274
 30
0
 11
2.8229133858267716
 21
1.2618897637795274
 31
0
  0
LINE
  5
2C7
330
1A
100
AcDbEntity
  8
BLACK
  6
CONTINUOUS
100
AcDbLine
 10
2.8229133858267716
 20
1.2618897637795274
 30
0
 11
2.8236666929133856
 21
1.2617399212598426
 31
0
  0
LINE
  5
2C8
330
1A
100
AcDbEntity
  8
BLACK
  6
CONTINUOUS
100
AcDbLine
 10
0.3316652755905512
 20
1.3193911417322834
 30
0
 11
0.3385690157480315
 21
1.3171479527559056
 31
0
  0
LINE
  5
2C9
330
1A
100
AcDbEntity
  8
BLACK
  6
CONTINUOUS
100
AcDbLine
 10
0.3385690157480315
 20
1.3171479527559056
 30
0
 11
0.3450368503937008
 21
1.313852440944882
 31
0
  0
LINE
  5
2CA
330
1A
100
AcDbEntity
  8
BLACK
  6
CONTINUOUS
100
AcDbLine
 10
0.3450368503937008
 20
1.313852440944882
 30
0
 11
0.3509094881889764
 21
1.3095857086614173
 31
0
  0
LINE
  5
2CB
330
1A
100
AcDbEntity
  8
BLACK
  6
CONTINUOUS
100
AcDbLine
 10
0.3509094881889764
 20
1.3095857086614173
 30
0
 11
0.3560424015748032
 21
1.3044527952755904
 31
0
  0
LINE
  5
2CC
330
1A
100
AcDbEntity
  8
BLACK
  6
CONTINUOUS
100
AcDbLine
 10
0.3560424015748032
 20
1.3044527952755904
 30
0
 11
0.3603091338582677
 21
1.2985801574803149
 31
0
  0
LINE
  5
2CD
330
1A
100
AcDbEntity
  8
BLACK
  6
CONTINUOUS
100
AcDbLine
 10
0.3603091338582677
 20
1.2985801574803149
 30
0
 11
0.3636046456692913
 21
1.2921123228346456
 31
0
  0
LINE
  5
2CE
330
1A
100
AcDbEntity
  8
BLACK
  6
CONTINUOUS
100
AcDbLine
 10
0.3636046456692913
 20
1.2921123228346456
 30
0
 11
0.3658478346456693
 21
1.2852085826771653
 31
0
  0
LINE
  5
2CF
330
1A
100
AcDbEntity
  8
BLACK
  6
CONTINUOUS
100
AcDbLine
 10
0.3658478346456693
 20
1.2852085826771653
 30
0
 11
0.3669833858267716
 21
1.278038937007874
 31
0
  0
LINE
  5
2D0
330
1A
100
AcDbEntity
  8
BLACK
  6
CONTINUOUS
100
AcDbLine
 10
0.3669833858267716
 20
1.278038937007874
 30
0
 11
0.3669833858267716
 21
1.2707799606299213
 31
0
  0
LINE
  5
2D1
330
1A
100
AcDbEntity
  8
BLACK
  6
CONTINUOUS
100
AcDbLine
 10
0.3669833858267716
 20
1.2707799606299213
 30
0
 11
0.3658478346456693
 21
1.2636103149606299
 31
0
  0
LINE
  5
2D2
330
1A
100
AcDbEntity
  8
BLACK
  6
CONTINUOUS
100
AcDbLine
 10
0.3658478346456693
 20
1.2636103149606299
 30
0
 11
0.3636046456692913
 21
1.2567065748031496
 31
0
  0
LINE
  5
2D3
330
1A
100
AcDbEntity
  8
BLACK
  6
CONTINUOUS
100
AcDbLine
 10
0.3636046456692913
 20
1.2567065748031496
 30
0
 11
0.3603091338582677
 21
1.2502387401574804
 31
0
  0
LINE
  5
2D4
330
1A
100
AcDbEntity
  8
BLACK
  6
CONTINUOUS
100
AcDbLine
 10
0.3603091338582677
 20
1.2502387401574804
 30
0
 11
0.3560424015748032
 21
1.2443661023622048
 31
0
  0
LINE
  5
2D5
330
1A
100
AcDbEntity
  8
BLACK
  6
CONTINUOUS
100
AcDbLine
 10
0.3560424015748032
 20
1.2443661023622048
 30
0
 11
0.3509094881889764
 21
1.2392331889763779
 31
0
  0
LINE
  5
2D6
330
1A
100
AcDbEntity
  8
BLACK
  6
CONTINUOUS
100
AcDbLine
 10
0.3509094881889764
 20
1.2392331889763779
 30
0
 11
0.3450368503937008
 21
1.2349664566929133
 31
0
  0
LINE
  5
2D7
330
1A
100
AcDbEntity
  8
BLACK
  6
CONTINUOUS
100
AcDbLine
 10
0.3450368503937008
 20
1.2349664566929133
 30
0
 11
0.3385690157480315
 21
1.2316709448818897
 31
0
  0
LINE
  5
2D8
330
1A
100
AcDbEntity
  8
BLACK
  6
CONTINUOUS
100
AcDbLine
 10
0.3385690157480315
 20
1.2316709448818897
 30
0
 11
0.3316652755905512
 21
1.2294277559055118
 31
0
  0
LINE
  5
2D9
330
1A
100
AcDbEntity
  8
BLACK
  6
CONTINUOUS
100
AcDbLine
 10
0.3316652755905512
 20
1.2294277559055118
 30
0
 11
0.3244956299212599
 21
1.2282922047244094
 31
0
  0
LINE
  5
2DA
330
1A
100
AcDbEntity
  8
BLACK
  6
CONTINUOUS
100
AcDbLine
 10
0.3244956299212599
 20
1.2282922047244094
 30
0
 11
0.3172366535433071
 21
1.2282922047244094
 31
0
  0
LINE
  5
2DB
330
1A
100
AcDbEntity
  8
BLACK
  6
CONTINUOUS
100
AcDbLine
 10
0.3172366535433071
 20
1.2282922047244094
 30
0
 11
0.3100670078740158
 21
1.2294277559055118
 31
0
  0
LINE
  5
2DC
330
1A
100
AcDbEntity
  8
BLACK
  6
CONTINUOUS
100
AcDbLine
 10
0.3100670078740158
 20
1.2294277559055118
 30
0
 11
0.3031632677165354
 21
1.2316709448818897
 31
0
  0
LINE
  5
2DD
330
1A
100
AcDbEntity
  8
BLACK
  6
CONTINUOUS
100
AcDbLine
 10
0.3031632677165354
 20
1.2316709448818897
 30
0
 11
0.2966954330708662
 21
1.2349664566929133
 31
0
  0
LINE
  5
2DE
330
1A
100
AcDbEntity
  8
BLACK
  6
CONTINUOUS
100
AcDbLine
 10
0.2966954330708662
 20
1.2349664566929133
 30
0
 11
0.2908227952755905
 21
1.2392331889763779
 31
0
  0
LINE
  5
2DF
330
1A
100
AcDbEntity
  8
BLACK
  6
CONTINUOUS
100
AcDbLine
 10
0.2908227952755905
 20
1.2392331889763779
 30
0
 11
0.2856898818897638
 21
1.2443661023622048
 31
0
  0
LINE
  5
2E0
330
1A
100
AcDbEntity
  8
BLACK
  6
CONTINUOUS
100
AcDbLine
 10
0.2856898818897638
 20
1.2443661023622048
 30
0
 11
0.2814231496062992
 21
1.2502387401574804
 31
0
  0
LINE
  5
2E1
330
1A
100
AcDbEntity
  8
BLACK
  6
CONTINUOUS
100
AcDbLine
 10
0.2814231496062992
 20
1.2502387401574804
 30
0
 11
0.2781276377952756
 21
1.2567065748031496
 31
0
  0
LINE
  5
2E2
330
1A
100
AcDbEntity
  8
BLACK
  6
CONTINUOUS
100
AcDbLine
 10
0.2781276377952756
 20
1.2567065748031496
 30
0
 11
0.2758844488188976
 21
1.2636103149606299
 31
0
  0
LINE
  5
2E3
330
1A
100
AcDbEntity
  8
BLACK
  6
CONTINUOUS
100
AcDbLine
 10
0.2758844488188976
 20
1.2636103149606299
 30
0
 11
0.2747488976377953
 21
1.2707799606299213
 31
0
  0
LINE
  5
2E4
330
1A
100
AcDbEntity
  8
BLACK
  6
CONTINUOUS
100
AcDbLine
 10
0.2747488976377953
 20
1.2707799606299213
 30
0
 11
0.2747488976377953
 21
1.278038937007874
 31
0
  0
LINE
  5
2E5
330
1A
100
AcDbEntity
  8
BLACK
  6
CONTINUOUS
100
AcDbLine
 10
0.2747488976377953
 20
1.278038937007874
 30
0
 11
0.2758844488188976
 21
1.2852085826771653
 31
0
  0
LINE
  5
2E6
330
1A
100
AcDbEntity
  8
BLACK
  6
CONTINUOUS
100
AcDbLine
 10
0.2758844488188976
 20
1.2852085826771653
 30
0
 11
0.2781276377952756
 21
1.2921123228346456
 31
0
  0
LINE
  5
2E7
330
1A
100
AcDbEntity
  8
BLACK
  6
CONTINUOUS
100
AcDbLine
 10
0.2781276377952756
 20
1.2921123228346456
 30
0
 11
0.2814231496062992
 21
1.2985801574803149
 31
0
  0
LINE
  5
2E8
330
1A
100
AcDbEntity
  8
BLACK
  6
CONTINUOUS
100
AcDbLine
 10
0.2814231496062992
 20
1.2985801574803149
 30
0
 11
0.2856898818897638
 21
1.3044527952755904
 31
0
  0
LINE
  5
2E9
330
1A
100
AcDbEntity
  8
BLACK
  6
CONTINUOUS
100
AcDbLine
 10
0.2856898818897638
 20
1.3044527952755904
 30
0
 11
0.2908227952755905
 21
1.3095857086614173
 31
0
  0
LINE
  5
2EA
330
1A
100
AcDbEntity
  8
BLACK
  6
CONTINUOUS
100
AcDbLine
 10
0.2908227952755905
 20
1.3095857086614173
 30
0
 11
0.2966954330708662
 21
1.313852440944882
 31
0
  0
LINE
  5
2EB
330
1A
100
AcDbEntity
  8
BLACK
  6
CONTINUOUS
100
AcDbLine
 10
0.2966954330708662
 20
1.313852440944882
 30
0
 11
0.3031632677165354
 21
1.3171479527559056
 31
0
  0
LINE
  5
2EC
330
1A
100
AcDbEntity
  8
BLACK
  6
CONTINUOUS
100
AcDbLine
 10
0.3031632677165354
 20
1.3171479527559056
 30
0
 11
0.3100670078740158
 21
1.3193911417322834
 31
0
  0
LINE
  5
2ED
330
1A
100
AcDbEntity
  8
BLACK
  6
CONTINUOUS
100
AcDbLine
 10
0.3100670078740158
 20
1.3193911417322834
 30
0
 11
0.3172366535433071
 21
1.3205266929133859
 31
0
  0
LINE
  5
2EE
330
1A
100
AcDbEntity
  8
BLACK
  6
CONTINUOUS
100
AcDbLine
 10
0.3172366535433071
 20
1.3205266929133859
 30
0
 11
0.3244956299212599
 21
1.3205266929133859
 31
0
  0
LINE
  5
2EF
330
1A
100
AcDbEntity
  8
BLACK
  6
CONTINUOUS
100
AcDbLine
 10
0.3244956299212599
 20
1.3205266929133859
 30
0
 11
0.3316652755905512
 21
1.3193911417322834
 31
0
  0
LINE
  5
2F0
330
1A
100
AcDbEntity
  8
BLACK
  6
CONTINUOUS
100
AcDbLine
 10
0.5316652755905512
 20
1.3193911417322834
 30
0
 11
0.5385690157480315
 21
1.3171479527559056
 31
0
  0
LINE
  5
2F1
330
1A
100
AcDbEntity
  8
BLACK
  6
CONTINUOUS
100
AcDbLine
 10
0.5385690157480315
 20
1.3171479527559056
 30
0
 11
0.5450368503937008
 21
1.313852440944882
 31
0
  0
LINE
  5
2F2
330
1A
100
AcDbEntity
  8
BLACK
  6
CONTINUOUS
100
AcDbLine
 10
0.5450368503937008
 20
1.313852440944882
 30
0
 11
0.5509094881889763
 21
1.3095857086614173
 31
0
  0
LINE
  5
2F3
330
1A
100
AcDbEntity
  8
BLACK
  6
CONTINUOUS
100
AcDbLine
 10
0.5509094881889763
 20
1.3095857086614173
 30
0
 11
0.5560424015748031
 21
1.3044527952755904
 31
0
  0
LINE
  5
2F4
330
1A
100
AcDbEntity
  8
BLACK
  6
CONTINUOUS
100
AcDbLine
 10
0.5560424015748031
 20
1.3044527952755904
 30
0
 11
0.5603091338582677
 21
1.2985801574803149
 31
0
  0
LINE
  5
2F5
330
1A
100
AcDbEntity
  8
BLACK
  6
CONTINUOUS
100
AcDbLine
 10
0.5603091338582677
 20
1.2985801574803149
 30
0
 11
0.5636046456692914
 21
1.2921123228346456
 31
0
  0
LINE
  5
2F6
330
1A
100
AcDbEntity
  8
BLACK
  6
CONTINUOUS
100
AcDbLine
 10
0.5636046456692914
 20
1.2921123228346456
 30
0
 11
0.5658478346456692
 21
1.2852085826771653
 31
0
  0
LINE
  5
2F7
330
1A
100
AcDbEntity
  8
BLACK
  6
CONTINUOUS
100
AcDbLine
 10
0.5658478346456692
 20
1.2852085826771653
 30
0
 11
0.5669833858267717
 21
1.278038937007874
 31
0
  0
LINE
  5
2F8
330
1A
100
AcDbEntity
  8
BLACK
  6
CONTINUOUS
100
AcDbLine
 10
0.5669833858267717
 20
1.278038937007874
 30
0
 11
0.5669833858267717
 21
1.2707799606299213
 31
0
  0
LINE
  5
2F9
330
1A
100
AcDbEntity
  8
BLACK
  6
CONTINUOUS
100
AcDbLine
 10
0.5669833858267717
 20
1.2707799606299213
 30
0
 11
0.5658478346456692
 21
1.2636103149606299
 31
0
  0
LINE
  5
2FA
330
1A
100
AcDbEntity
  8
BLACK
  6
CONTINUOUS
100
AcDbLine
 10
0.5658478346456692
 20
1.2636103149606299
 30
0
 11
0.5636046456692914
 21
1.2567065748031496
 31
0
  0
LINE
  5
2FB
330
1A
100
AcDbEntity
  8
BLACK
  6
CONTINUOUS
100
AcDbLine
 10
0.5636046456692914
 20
1.2567065748031496
 30
0
 11
0.5603091338582677
 21
1.2502387401574804
 31
0
  0
LINE
  5
2FC
330
1A
100
AcDbEntity
  8
BLACK
  6
CONTINUOUS
100
AcDbLine
 10
0.5603091338582677
 20
1.2502387401574804
 30
0
 11
0.5560424015748031
 21
1.2443661023622048
 31
0
  0
LINE
  5
2FD
330
1A
100
AcDbEntity
  8
BLACK
  6
CONTINUOUS
100
AcDbLine
 10
0.5560424015748031
 20
1.2443661023622048
 30
0
 11
0.5509094881889763
 21
1.2392331889763779
 31
0
  0
LINE
  5
2FE
330
1A
100
AcDbEntity
  8
BLACK
  6
CONTINUOUS
100
AcDbLine
 10
0.5509094881889763
 20
1.2392331889763779
 30
0
 11
0.5450368503937008
 21
1.2349664566929133
 31
0
  0
LINE
  5
2FF
330
1A
100
AcDbEntity
  8
BLACK
  6
CONTINUOUS
100
AcDbLine
 10
0.5450368503937008
 20
1.2349664566929133
 30
0
 11
0.5385690157480315
 21
1.2316709448818897
 31
0
  0
LINE
  5
300
330
1A
100
AcDbEntity
  8
BLACK
  6
CONTINUOUS
100
AcDbLine
 10
0.5385690157480315
 20
1.2316709448818897
 30
0
 11
0.5316652755905512
 21
1.2294277559055118
 31
0
  0
LINE
  5
301
330
1A
100
AcDbEntity
  8
BLACK
  6
CONTINUOUS
100
AcDbLine
 10
0.5316652755905512
 20
1.2294277559055118
 30
0
 11
0.5244956299212599
 21
1.2282922047244094
 31
0
  0
LINE
  5
302
330
1A
100
AcDbEntity
  8
BLACK
  6
CONTINUOUS
100
AcDbLine
 10
0.5244956299212599
 20
1.2282922047244094
 30
0
 11
0.5172366535433071
 21
1.2282922047244094
 31
0
  0
LINE
  5
303
330
1A
100
AcDbEntity
  8
BLACK
  6
CONTINUOUS
100
AcDbLine
 10
0.5172366535433071
 20
1.2282922047244094
 30
0
 11
0.5100670078740157
 21
1.2294277559055118
 31
0
  0
LINE
  5
304
330
1A
100
AcDbEntity
  8
BLACK
  6
CONTINUOUS
100
AcDbLine
 10
0.5100670078740157
 20
1.2294277559055118
 30
0
 11
0.5031632677165354
 21
1.2316709448818897
 31
0
  0
LINE
  5
305
330
1A
100
AcDbEntity
  8
BLACK
  6
CONTINUOUS
100
AcDbLine
 10
0.5031632677165354
 20
1.2316709448818897
 30
0
 11
0.4966954330708661
 21
1.2349664566929133
 31
0
  0
LINE
  5
306
330
1A
100
AcDbEntity
  8
BLACK
  6
CONTINUOUS
100
AcDbLine
 10
0.4966954330708661
 20
1.2349664566929133
 30
0
 11
0.4908227952755905
 21
1.2392331889763779
 31
0
  0
LINE
  5
307
330
1A
100
AcDbEntity
  8
BLACK
  6
CONTINUOUS
100
AcDbLine
 10
0.4908227952755905
 20
1.2392331889763779
 30
0
 11
0.4856898818897638
 21
1.2443661023622048
 31
0
  0
LINE
  5
308
330
1A
100
AcDbEntity
  8
BLACK
  6
CONTINUOUS
100
AcDbLine
 10
0.4856898818897638
 20
1.2443661023622048
 30
0
 11
0.4814231496062992
 21
1.2502387401574804
 31
0
  0
LINE
  5
309
330
1A
100
AcDbEntity
  8
BLACK
  6
CONTINUOUS
100
AcDbLine
 10
0.4814231496062992
 20
1.2502387401574804
 30
0
 11
0.4781276377952756
 21
1.2567065748031496
 31
0
  0
LINE
  5
30A
330
1A
100
AcDbEntity
  8
BLACK
  6
CONTINUOUS
100
AcDbLine
 10
0.4781276377952756
 20
1.2567065748031496
 30
0
 11
0.4758844488188976
 21
1.2636103149606299
 31
0
  0
LINE
  5
30B
330
1A
100
AcDbEntity
  8
BLACK
  6
CONTINUOUS
100
AcDbLine
 10
0.4758844488188976
 20
1.2636103149606299
 30
0
 11
0.4747488976377953
 21
1.2707799606299213
 31
0
  0
LINE
  5
30C
330
1A
100
AcDbEntity
  8
BLACK
  6
CONTINUOUS
100
AcDbLine
 10
0.4747488976377953
 20
1.2707799606299213
 30
0
 11
0.4747488976377953
 21
1.278038937007874
 31
0
  0
LINE
  5
30D
330
1A
100
AcDbEntity
  8
BLACK
  6
CONTINUOUS
100
AcDbLine
 10
0.4747488976377953
 20
1.278038937007874
 30
0
 11
0.4758844488188976
 21
1.2852085826771653
 31
0
  0
LINE
  5
30E
330
1A
100
AcDbEntity
  8
BLACK
  6
CONTINUOUS
100
AcDbLine
 10
0.4758844488188976
 20
1.2852085826771653
 30
0
 11
0.4781276377952756
 21
1.2921123228346456
 31
0
  0
LINE
  5
30F
330
1A
100
AcDbEntity
  8
BLACK
  6
CONTINUOUS
100
AcDbLine
 10
0.4781276377952756
 20
1.2921123228346456
 30
0
 11
0.4814231496062992
 21
1.2985801574803149
 31
0
  0
LINE
  5
310
330
1A
100
AcDbEntity
  8
BLACK
  6
CONTINUOUS
100
AcDbLine
 10
0.4814231496062992
 20
1.2985801574803149
 30
0
 11
0.4856898818897638
 21
1.3044527952755904
 31
0
  0
LINE
  5
311
330
1A
100
AcDbEntity
  8
BLACK
  6
CONTINUOUS
100
AcDbLine
 10
0.4856898818897638
 20
1.3044527952755904
 30
0
 11
0.4908227952755905
 21
1.3095857086614173
 31
0
  0
LINE
  5
312
330
1A
100
AcDbEntity
  8
BLACK
  6
CONTINUOUS
100
AcDbLine
 10
0.4908227952755905
 20
1.3095857086614173
 30
0
 11
0.4966954330708661
 21
1.313852440944882
 31
0
  0
LINE
  5
313
330
1A
100
AcDbEntity
  8
BLACK
  6
CONTINUOUS
100
AcDbLine
 10
0.4966954330708661
 20
1.313852440944882
 30
0
 11
0.5031632677165354
 21
1.3171479527559056
 31
0
  0
LINE
  5
314
330
1A
100
AcDbEntity
  8
BLACK
  6
CONTINUOUS
100
AcDbLine
 10
0.5031632677165354
 20
1.3171479527559056
 30
0
 11
0.5100670078740157
 21
1.3193911417322834
 31
0
  0
LINE
  5
315
330
1A
100
AcDbEntity
  8
BLACK
  6
CONTINUOUS
100
AcDbLine
 10
0.5100670078740157
 20
1.3193911417322834
 30
0
 11
0.5172366535433071
 21
1.3205266929133859
 31
0
  0
LINE
  5
316
330
1A
100
AcDbEntity
  8
BLACK
  6
CONTINUOUS
100
AcDbLine
 10
0.5172366535433071
 20
1.3205266929133859
 30
0
 11
0.5244956299212599
 21
1.3205266929133859
 31
0
  0
LINE
  5
317
330
1A
100
AcDbEntity
  8
BLACK
  6
CONTINUOUS
100
AcDbLine
 10
0.5244956299212599
 20
1.3205266929133859
 30
0
 11
0.5316652755905512
 21
1.3193911417322834
 31
0
  0
LINE
  5
318
330
1A
100
AcDbEntity
  8
BLACK
  6
CONTINUOUS
100
AcDbLine
 10
2.7236666929133859
 20
1.3617399212598424
 30
0
 11
2.7243053149606298
 21
1.3613131889763779
 31
0
  0
LINE
  5
319
330
1A
100
AcDbEntity
  8
BLACK
  6
CONTINUOUS
100
AcDbLine
 10
2.7243053149606298
 20
1.3613131889763779
 30
0
 11
2.7247320472440943
 21
1.3606745669291338
 31
0
  0
LINE
  5
31A
330
1A
100
AcDbEntity
  8
BLACK
  6
CONTINUOUS
100
AcDbLine
 10
2.7247320472440943
 20
1.3606745669291338
 30
0
 11
2.7248818897637794
 21
1.3599212598425197
 31
0
  0
LINE
  5
31B
330
1A
100
AcDbEntity
  8
BLACK
  6
CONTINUOUS
100
AcDbLine
 10
2.7248818897637794
 20
1.3599212598425197
 30
0
 11
2.7248818897637794
 21
1.2999212598425196
 31
0
  0
LINE
  5
31C
330
1A
100
AcDbEntity
  8
BLACK
  6
CONTINUOUS
100
AcDbLine
 10
2.7248818897637794
 20
1.2999212598425196
 30
0
 11
2.7247320472440943
 21
1.2991679527559055
 31
0
  0
LINE
  5
31D
330
1A
100
AcDbEntity
  8
BLACK
  6
CONTINUOUS
100
AcDbLine
 10
2.7247320472440943
 20
1.2991679527559055
 30
0
 11
2.7243053149606298
 21
1.2985293307086614
 31
0
  0
LINE
  5
31E
330
1A
100
AcDbEntity
  8
BLACK
  6
CONTINUOUS
100
AcDbLine
 10
2.7243053149606298
 20
1.2985293307086614
 30
0
 11
2.7236666929133859
 21
1.2981025984251968
 31
0
  0
LINE
  5
31F
330
1A
100
AcDbEntity
  8
BLACK
  6
CONTINUOUS
100
AcDbLine
 10
2.7236666929133859
 20
1.2981025984251968
 30
0
 11
2.7229133858267716
 21
1.2979527559055117
 31
0
  0
LINE
  5
320
330
1A
100
AcDbEntity
  8
BLACK
  6
CONTINUOUS
100
AcDbLine
 10
2.7229133858267716
 20
1.2979527559055117
 30
0
 11
2.6629133858267715
 21
1.2979527559055117
 31
0
  0
LINE
  5
321
330
1A
100
AcDbEntity
  8
BLACK
  6
CONTINUOUS
100
AcDbLine
 10
2.6629133858267715
 20
1.2979527559055117
 30
0
 11
2.6621600787401576
 21
1.2981025984251968
 31
0
  0
LINE
  5
322
330
1A
100
AcDbEntity
  8
BLACK
  6
CONTINUOUS
100
AcDbLine
 10
2.6621600787401576
 20
1.2981025984251968
 30
0
 11
2.6615214566929133
 21
1.2985293307086614
 31
0
  0
LINE
  5
323
330
1A
100
AcDbEntity
  8
BLACK
  6
CONTINUOUS
100
AcDbLine
 10
2.6615214566929133
 20
1.2985293307086614
 30
0
 11
2.6610947244094487
 21
1.2991679527559055
 31
0
  0
LINE
  5
324
330
1A
100
AcDbEntity
  8
BLACK
  6
CONTINUOUS
100
AcDbLine
 10
2.6610947244094487
 20
1.2991679527559055
 30
0
 11
2.6609448818897636
 21
1.2999212598425196
 31
0
  0
LINE
  5
325
330
1A
100
AcDbEntity
  8
BLACK
  6
CONTINUOUS
100
AcDbLine
 10
2.6609448818897636
 20
1.2999212598425196
 30
0
 11
2.6609448818897636
 21
1.3599212598425197
 31
0
  0
LINE
  5
326
330
1A
100
AcDbEntity
  8
BLACK
  6
CONTINUOUS
100
AcDbLine
 10
2.6609448818897636
 20
1.3599212598425197
 30
0
 11
2.6610947244094487
 21
1.3606745669291338
 31
0
  0
LINE
  5
327
330
1A
100
AcDbEntity
  8
BLACK
  6
CONTINUOUS
100
AcDbLine
 10
2.6610947244094487
 20
1.3606745669291338
 30
0
 11
2.6615214566929133
 21
1.3613131889763779
 31
0
  0
LINE
  5
328
330
1A
100
AcDbEntity
  8
BLACK
  6
CONTINUOUS
100
AcDbLine
 10
2.6615214566929133
 20
1.3613131889763779
 30
0
 11
2.6621600787401576
 21
1.3617399212598424
 31
0
  0
LINE
  5
329
330
1A
100
AcDbEntity
  8
BLACK
  6
CONTINUOUS
100
AcDbLine
 10
2.6621600787401576
 20
1.3617399212598424
 30
0
 11
2.6629133858267715
 21
1.3618897637795275
 31
0
  0
LINE
  5
32A
330
1A
100
AcDbEntity
  8
BLACK
  6
CONTINUOUS
100
AcDbLine
 10
2.6629133858267715
 20
1.3618897637795275
 30
0
 11
2.7229133858267716
 21
1.3618897637795275
 31
0
  0
LINE
  5
32B
330
1A
100
AcDbEntity
  8
BLACK
  6
CONTINUOUS
100
AcDbLine
 10
2.7229133858267716
 20
1.3618897637795275
 30
0
 11
2.7236666929133859
 21
1.3617399212598424
 31
0
  0
LINE
  5
32C
330
1A
100
AcDbEntity
  8
BLACK
  6
CONTINUOUS
100
AcDbLine
 10
2.8236666929133856
 20
1.3617399212598424
 30
0
 11
2.8243053149606299
 21
1.3613131889763779
 31
0
  0
LINE
  5
32D
330
1A
100
AcDbEntity
  8
BLACK
  6
CONTINUOUS
100
AcDbLine
 10
2.8243053149606299
 20
1.3613131889763779
 30
0
 11
2.8247320472440944
 21
1.3606745669291338
 31
0
  0
LINE
  5
32E
330
1A
100
AcDbEntity
  8
BLACK
  6
CONTINUOUS
100
AcDbLine
 10
2.8247320472440944
 20
1.3606745669291338
 30
0
 11
2.8248818897637795
 21
1.3599212598425197
 31
0
  0
LINE
  5
32F
330
1A
100
AcDbEntity
  8
BLACK
  6
CONTINUOUS
100
AcDbLine
 10
2.8248818897637795
 20
1.3599212598425197
 30
0
 11
2.8248818897637795
 21
1.2999212598425196
 31
0
  0
LINE
  5
330
330
1A
100
AcDbEntity
  8
BLACK
  6
CONTINUOUS
100
AcDbLine
 10
2.8248818897637795
 20
1.2999212598425196
 30
0
 11
2.8247320472440944
 21
1.2991679527559055
 31
0
  0
LINE
  5
331
330
1A
100
AcDbEntity
  8
BLACK
  6
CONTINUOUS
100
AcDbLine
 10
2.8247320472440944
 20
1.2991679527559055
 30
0
 11
2.8243053149606299
 21
1.2985293307086614
 31
0
  0
LINE
  5
332
330
1A
100
AcDbEntity
  8
BLACK
  6
CONTINUOUS
100
AcDbLine
 10
2.8243053149606299
 20
1.2985293307086614
 30
0
 11
2.8236666929133856
 21
1.2981025984251968
 31
0
  0
LINE
  5
333
330
1A
100
AcDbEntity
  8
BLACK
  6
CONTINUOUS
100
AcDbLine
 10
2.8236666929133856
 20
1.2981025984251968
 30
0
 11
2.8229133858267716
 21
1.2979527559055117
 31
0
  0
LINE
  5
334
330
1A
100
AcDbEntity
  8
BLACK
  6
CONTINUOUS
100
AcDbLine
 10
2.8229133858267716
 20
1.2979527559055117
 30
0
 11
2.7629133858267716
 21
1.2979527559055117
 31
0
  0
LINE
  5
335
330
1A
100
AcDbEntity
  8
BLACK
  6
CONTINUOUS
100
AcDbLine
 10
2.7629133858267716
 20
1.2979527559055117
 30
0
 11
2.7621600787401572
 21
1.2981025984251968
 31
0
  0
LINE
  5
336
330
1A
100
AcDbEntity
  8
BLACK
  6
CONTINUOUS
100
AcDbLine
 10
2.7621600787401572
 20
1.2981025984251968
 30
0
 11
2.7615214566929134
 21
1.2985293307086614
 31
0
  0
LINE
  5
337
330
1A
100
AcDbEntity
  8
BLACK
  6
CONTINUOUS
100
AcDbLine
 10
2.7615214566929134
 20
1.2985293307086614
 30
0
 11
2.7610947244094488
 21
1.2991679527559055
 31
0
  0
LINE
  5
338
330
1A
100
AcDbEntity
  8
BLACK
  6
CONTINUOUS
100
AcDbLine
 10
2.7610947244094488
 20
1.2991679527559055
 30
0
 11
2.7609448818897637
 21
1.2999212598425196
 31
0
  0
LINE
  5
339
330
1A
100
AcDbEntity
  8
BLACK
  6
CONTINUOUS
100
AcDbLine
 10
2.7609448818897637
 20
1.2999212598425196
 30
0
 11
2.7609448818897637
 21
1.3599212598425197
 31
0
  0
LINE
  5
33A
330
1A
100
AcDbEntity
  8
BLACK
  6
CONTINUOUS
100
AcDbLine
 10
2.7609448818897637
 20
1.3599212598425197
 30
0
 11
2.7610947244094488
 21
1.3606745669291338
 31
0
  0
LINE
  5
33B
330
1A
100
AcDbEntity
  8
BLACK
  6
CONTINUOUS
100
AcDbLine
 10
2.7610947244094488
 20
1.3606745669291338
 30
0
 11
2.7615214566929134
 21
1.3613131889763779
 31
0
  0
LINE
  5
33C
330
1A
100
AcDbEntity
  8
BLACK
  6
CONTINUOUS
100
AcDbLine
 10
2.7615214566929134
 20
1.3613131889763779
 30
0
 11
2.7621600787401572
 21
1.3617399212598424
 31
0
  0
LINE
  5
33D
330
1A
100
AcDbEntity
  8
BLACK
  6
CONTINUOUS
100
AcDbLine
 10
2.7621600787401572
 20
1.3617399212598424
 30
0
 11
2.7629133858267716
 21
1.3618897637795275
 31
0
  0
LINE
  5
33E
330
1A
100
AcDbEntity
  8
BLACK
  6
CONTINUOUS
100
AcDbLine
 10
2.7629133858267716
 20
1.3618897637795275
 30
0
 11
2.8229133858267716
 21
1.3618897637795275
 31
0
  0
LINE
  5
33F
330
1A
100
AcDbEntity
  8
BLACK
  6
CONTINUOUS
100
AcDbLine
 10
2.8229133858267716
 20
1.3618897637795275
 30
0
 11
2.8236666929133856
 21
1.3617399212598424
 31
0
  0
LINE
  5
340
330
1A
100
AcDbEntity
  8
BLACK
  6
CONTINUOUS
100
AcDbLine
 10
0.420113937007874
 20
1.7183821653543307
 30
0
 11
0.4332420472440945
 21
1.715385748031496
 31
0
  0
LINE
  5
341
330
1A
100
AcDbEntity
  8
BLACK
  6
CONTINUOUS
100
AcDbLine
 10
0.4332420472440945
 20
1.715385748031496
 30
0
 11
0.4459521259842519
 21
1.7109383070866142
 31
0
  0
LINE
  5
342
330
1A
100
AcDbEntity
  8
BLACK
  6
CONTINUOUS
100
AcDbLine
 10
0.4459521259842519
 20
1.7109383070866142
 30
0
 11
0.4580843700787401
 21
1.7050957086614174
 31
0
  0
LINE
  5
343
330
1A
100
AcDbEntity
  8
BLACK
  6
CONTINUOUS
100
AcDbLine
 10
0.4580843700787401
 20
1.7050957086614174
 30
0
 11
0.4694861023622047
 21
1.6979315354330708
 31
0
  0
LINE
  5
344
330
1A
100
AcDbEntity
  8
BLACK
  6
CONTINUOUS
100
AcDbLine
 10
0.4694861023622047
 20
1.6979315354330708
 30
0
 11
0.4800140551181102
 21
1.6895357874015748
 31
0
  0
LINE
  5
345
330
1A
100
AcDbEntity
  8
BLACK
  6
CONTINUOUS
100
AcDbLine
 10
0.4800140551181102
 20
1.6895357874015748
 30
0
 11
0.4895357874015748
 21
1.6800140551181102
 31
0
  0
LINE
  5
346
330
1A
100
AcDbEntity
  8
BLACK
  6
CONTINUOUS
100
AcDbLine
 10
0.4895357874015748
 20
1.6800140551181102
 30
0
 11
0.4979315354330708
 21
1.6694861023622047
 31
0
  0
LINE
  5
347
330
1A
100
AcDbEntity
  8
BLACK
  6
CONTINUOUS
100
AcDbLine
 10
0.4979315354330708
 20
1.6694861023622047
 30
0
 11
0.5050957086614173
 21
1.6580843700787402
 31
0
  0
LINE
  5
348
330
1A
100
AcDbEntity
  8
BLACK
  6
CONTINUOUS
100
AcDbLine
 10
0.5050957086614173
 20
1.6580843700787402
 30
0
 11
0.5109383070866141
 21
1.645952125984252
 31
0
  0
LINE
  5
349
330
1A
100
AcDbEntity
  8
BLACK
  6
CONTINUOUS
100
AcDbLine
 10
0.5109383070866141
 20
1.645952125984252
 30
0
 11
0.5153857480314961
 21
1.6332420472440945
 31
0
  0
LINE
  5
34A
330
1A
100
AcDbEntity
  8
BLACK
  6
CONTINUOUS
100
AcDbLine
 10
0.5153857480314961
 20
1.6332420472440945
 30
0
 11
0.5183821653543307
 21
1.6201139370078739
 31
0
  0
LINE
  5
34B
330
1A
100
AcDbEntity
  8
BLACK
  6
CONTINUOUS
100
AcDbLine
 10
0.5183821653543307
 20
1.6201139370078739
 30
0
 11
0.5198898425196851
 21
1.606732874015748
 31
0
  0
LINE
  5
34C
330
1A
100
AcDbEntity
  8
BLACK
  6
CONTINUOUS
100
AcDbLine
 10
0.5198898425196851
 20
1.606732874015748
 30
0
 11
0.5198898425196851
 21
1.5932671259842519
 31
0
  0
LINE
  5
34D
330
1A
100
AcDbEntity
  8
BLACK
  6
CONTINUOUS
100
AcDbLine
 10
0.5198898425196851
 20
1.5932671259842519
 30
0
 11
0.5183821653543307
 21
1.5798860629921259
 31
0
  0
LINE
  5
34E
330
1A
100
AcDbEntity
  8
BLACK
  6
CONTINUOUS
100
AcDbLine
 10
0.5183821653543307
 20
1.5798860629921259
 30
0
 11
0.5153857480314961
 21
1.5667579527559055
 31
0
  0
LINE
  5
34F
330
1A
100
AcDbEntity
  8
BLACK
  6
CONTINUOUS
100
AcDbLine
 10
0.5153857480314961
 20
1.5667579527559055
 30
0
 11
0.5109383070866141
 21
1.554047874015748
 31
0
  0
LINE
  5
350
330
1A
100
AcDbEntity
  8
BLACK
  6
CONTINUOUS
100
AcDbLine
 10
0.5109383070866141
 20
1.554047874015748
 30
0
 11
0.5050957086614173
 21
1.5419156299212597
 31
0
  0
LINE
  5
351
330
1A
100
AcDbEntity
  8
BLACK
  6
CONTINUOUS
100
AcDbLine
 10
0.5050957086614173
 20
1.5419156299212597
 30
0
 11
0.4979315354330708
 21
1.5305138976377952
 31
0
  0
LINE
  5
352
330
1A
100
AcDbEntity
  8
BLACK
  6
CONTINUOUS
100
AcDbLine
 10
0.4979315354330708
 20
1.5305138976377952
 30
0
 11
0.4895357874015748
 21
1.5199859448818898
 31
0
  0
LINE
  5
353
330
1A
100
AcDbEntity
  8
BLACK
  6
CONTINUOUS
100
AcDbLine
 10
0.4895357874015748
 20
1.5199859448818898
 30
0
 11
0.4800140551181102
 21
1.5104642125984251
 31
0
  0
LINE
  5
354
330
1A
100
AcDbEntity
  8
BLACK
  6
CONTINUOUS
100
AcDbLine
 10
0.4800140551181102
 20
1.5104642125984251
 30
0
 11
0.4694861023622047
 21
1.5020684645669291
 31
0
  0
LINE
  5
355
330
1A
100
AcDbEntity
  8
BLACK
  6
CONTINUOUS
100
AcDbLine
 10
0.4694861023622047
 20
1.5020684645669291
 30
0
 11
0.4580843700787401
 21
1.4949042913385826
 31
0
  0
LINE
  5
356
330
1A
100
AcDbEntity
  8
BLACK
  6
CONTINUOUS
100
AcDbLine
 10
0.4580843700787401
 20
1.4949042913385826
 30
0
 11
0.4459521259842519
 21
1.4890616929133857
 31
0
  0
LINE
  5
357
330
1A
100
AcDbEntity
  8
BLACK
  6
CONTINUOUS
100
AcDbLine
 10
0.4459521259842519
 20
1.4890616929133857
 30
0
 11
0.4332420472440945
 21
1.4846142519685039
 31
0
  0
LINE
  5
358
330
1A
100
AcDbEntity
  8
BLACK
  6
CONTINUOUS
100
AcDbLine
 10
0.4332420472440945
 20
1.4846142519685039
 30
0
 11
0.420113937007874
 21
1.4816178346456692
 31
0
  0
LINE
  5
359
330
1A
100
AcDbEntity
  8
BLACK
  6
CONTINUOUS
100
AcDbLine
 10
0.420113937007874
 20
1.4816178346456692
 30
0
 11
0.406732874015748
 21
1.4801101574803148
 31
0
  0
LINE
  5
35A
330
1A
100
AcDbEntity
  8
BLACK
  6
CONTINUOUS
100
AcDbLine
 10
0.406732874015748
 20
1.4801101574803148
 30
0
 11
0.393267125984252
 21
1.4801101574803148
 31
0
  0
LINE
  5
35B
330
1A
100
AcDbEntity
  8
BLACK
  6
CONTINUOUS
100
AcDbLine
 10
0.393267125984252
 20
1.4801101574803148
 30
0
 11
0.379886062992126
 21
1.4816178346456692
 31
0
  0
LINE
  5
35C
330
1A
100
AcDbEntity
  8
BLACK
  6
CONTINUOUS
100
AcDbLine
 10
0.379886062992126
 20
1.4816178346456692
 30
0
 11
0.3667579527559055
 21
1.4846142519685039
 31
0
  0
LINE
  5
35D
330
1A
100
AcDbEntity
  8
BLACK
  6
CONTINUOUS
100
AcDbLine
 10
0.3667579527559055
 20
1.4846142519685039
 30
0
 11
0.354047874015748
 21
1.4890616929133857
 31
0
  0
LINE
  5
35E
330
1A
100
AcDbEntity
  8
BLACK
  6
CONTINUOUS
100
AcDbLine
 10
0.354047874015748
 20
1.4890616929133857
 30
0
 11
0.3419156299212598
 21
1.4949042913385826
 31
0
  0
LINE
  5
35F
330
1A
100
AcDbEntity
  8
BLACK
  6
CONTINUOUS
100
AcDbLine
 10
0.3419156299212598
 20
1.4949042913385826
 30
0
 11
0.3305138976377953
 21
1.5020684645669291
 31
0
  0
LINE
  5
360
330
1A
100
AcDbEntity
  8
BLACK
  6
CONTINUOUS
100
AcDbLine
 10
0.3305138976377953
 20
1.5020684645669291
 30
0
 11
0.3199859448818898
 21
1.5104642125984251
 31
0
  0
LINE
  5
361
330
1A
100
AcDbEntity
  8
BLACK
  6
CONTINUOUS
100
AcDbLine
 10
0.3199859448818898
 20
1.5104642125984251
 30
0
 11
0.3104642125984252
 21
1.5199859448818898
 31
0
  0
LINE
  5
362
330
1A
100
AcDbEntity
  8
BLACK
  6
CONTINUOUS
100
AcDbLine
 10
0.3104642125984252
 20
1.5199859448818898
 30
0
 11
0.3020684645669292
 21
1.5305138976377952
 31
0
  0
LINE
  5
363
330
1A
100
AcDbEntity
  8
BLACK
  6
CONTINUOUS
100
AcDbLine
 10
0.3020684645669292
 20
1.5305138976377952
 30
0
 11
0.2949042913385826
 21
1.5419156299212597
 31
0
  0
LINE
  5
364
330
1A
100
AcDbEntity
  8
BLACK
  6
CONTINUOUS
100
AcDbLine
 10
0.2949042913385826
 20
1.5419156299212597
 30
0
 11
0.2890616929133858
 21
1.554047874015748
 31
0
  0
LINE
  5
365
330
1A
100
AcDbEntity
  8
BLACK
  6
CONTINUOUS
100
AcDbLine
 10
0.2890616929133858
 20
1.554047874015748
 30
0
 11
0.2846142519685039
 21
1.5667579527559055
 31
0
  0
LINE
  5
366
330
1A
100
AcDbEntity
  8
BLACK
  6
CONTINUOUS
100
AcDbLine
 10
0.2846142519685039
 20
1.5667579527559055
 30
0
 11
0.2816178346456693
 21
1.5798860629921259
 31
0
  0
LINE
  5
367
330
1A
100
AcDbEntity
  8
BLACK
  6
CONTINUOUS
100
AcDbLine
 10
0.2816178346456693
 20
1.5798860629921259
 30
0
 11
0.280110157480315
 21
1.5932671259842519
 31
0
  0
LINE
  5
368
330
1A
100
AcDbEntity
  8
BLACK
  6
CONTINUOUS
100
AcDbLine
 10
0.280110157480315
 20
1.5932671259842519
 30
0
 11
0.280110157480315
 21
1.606732874015748
 31
0
  0
LINE
  5
369
330
1A
100
AcDbEntity
  8
BLACK
  6
CONTINUOUS
100
AcDbLine
 10
0.280110157480315
 20
1.606732874015748
 30
0
 11
0.2816178346456693
 21
1.6201139370078739
 31
0
  0
LINE
  5
36A
330
1A
100
AcDbEntity
  8
BLACK
  6
CONTINUOUS
100
AcDbLine
 10
0.2816178346456693
 20
1.6201139370078739
 30
0
 11
0.2846142519685039
 21
1.6332420472440945
 31
0
  0
LINE
  5
36B
330
1A
100
AcDbEntity
  8
BLACK
  6
CONTINUOUS
100
AcDbLine
 10
0.2846142519685039
 20
1.6332420472440945
 30
0
 11
0.2890616929133858
 21
1.645952125984252
 31
0
  0
LINE
  5
36C
330
1A
100
AcDbEntity
  8
BLACK
  6
CONTINUOUS
100
AcDbLine
 10
0.2890616929133858
 20
1.645952125984252
 30
0
 11
0.2949042913385826
 21
1.6580843700787402
 31
0
  0
LINE
  5
36D
330
1A
100
AcDbEntity
  8
BLACK
  6
CONTINUOUS
100
AcDbLine
 10
0.2949042913385826
 20
1.6580843700787402
 30
0
 11
0.3020684645669292
 21
1.6694861023622047
 31
0
  0
LINE
  5
36E
330
1A
100
AcDbEntity
  8
BLACK
  6
CONTINUOUS
100
AcDbLine
 10
0.3020684645669292
 20
1.6694861023622047
 30
0
 11
0.3104642125984252
 21
1.6800140551181102
 31
0
  0
LINE
  5
36F
330
1A
100
AcDbEntity
  8
BLACK
  6
CONTINUOUS
100
AcDbLine
 10
0.3104642125984252
 20
1.6800140551181102
 30
0
 11
0.3199859448818898
 21
1.6895357874015748
 31
0
  0
LINE
  5
370
330
1A
100
AcDbEntity
  8
BLACK
  6
CONTINUOUS
100
AcDbLine
 10
0.3199859448818898
 20
1.6895357874015748
 30
0
 11
0.3305138976377953
 21
1.6979315354330708
 31
0
  0
LINE
  5
371
330
1A
100
AcDbEntity
  8
BLACK
  6
CONTINUOUS
100
AcDbLine
 10
0.3305138976377953
 20
1.6979315354330708
 30
0
 11
0.3419156299212598
 21
1.7050957086614174
 31
0
  0
LINE
  5
372
330
1A
100
AcDbEntity
  8
BLACK
  6
CONTINUOUS
100
AcDbLine
 10
0.3419156299212598
 20
1.7050957086614174
 30
0
 11
0.354047874015748
 21
1.7109383070866142
 31
0
  0
LINE
  5
373
330
1A
100
AcDbEntity
  8
BLACK
  6
CONTINUOUS
100
AcDbLine
 10
0.354047874015748
 20
1.7109383070866142
 30
0
 11
0.3667579527559055
 21
1.715385748031496
 31
0
  0
LINE
  5
374
330
1A
100
AcDbEntity
  8
BLACK
  6
CONTINUOUS
100
AcDbLine
 10
0.3667579527559055
 20
1.715385748031496
 30
0
 11
0.379886062992126
 21
1.7183821653543307
 31
0
  0
LINE
  5
375
330
1A
100
AcDbEntity
  8
BLACK
  6
CONTINUOUS
100
AcDbLine
 10
0.379886062992126
 20
1.7183821653543307
 30
0
 11
0.393267125984252
 21
1.7198898425196849
 31
0
  0
LINE
  5
376
330
1A
100
AcDbEntity
  8
BLACK
  6
CONTINUOUS
100
AcDbLine
 10
0.393267125984252
 20
1.7198898425196849
 30
0
 11
0.406732874015748
 21
1.7198898425196849
 31
0
  0
LINE
  5
377
330
1A
100
AcDbEntity
  8
BLACK
  6
CONTINUOUS
100
AcDbLine
 10
0.406732874015748
 20
1.7198898425196849
 30
0
 11
0.420113937007874
 21
1.7183821653543307
 31
0
  0
LINE
  5
378
330
1A
100
AcDbEntity
  8
BLACK
  6
CONTINUOUS
100
AcDbLine
 10
2.8098777165354329
 20
1.7183821653543307
 30
0
 11
2.8230058267716536
 21
1.715385748031496
 31
0
  0
LINE
  5
379
330
1A
100
AcDbEntity
  8
BLACK
  6
CONTINUOUS
100
AcDbLine
 10
2.8230058267716536
 20
1.715385748031496
 30
0
 11
2.8357159055118109
 21
1.7109383070866142
 31
0
  0
LINE
  5
37A
330
1A
100
AcDbEntity
  8
BLACK
  6
CONTINUOUS
100
AcDbLine
 10
2.8357159055118109
 20
1.7109383070866142
 30
0
 11
2.8478481496062993
 21
1.7050957086614174
 31
0
  0
LINE
  5
37B
330
1A
100
AcDbEntity
  8
BLACK
  6
CONTINUOUS
100
AcDbLine
 10
2.8478481496062993
 20
1.7050957086614174
 30
0
 11
2.8592498818897636
 21
1.6979315354330708
 31
0
  0
LINE
  5
37C
330
1A
100
AcDbEntity
  8
BLACK
  6
CONTINUOUS
100
AcDbLine
 10
2.8592498818897636
 20
1.6979315354330708
 30
0
 11
2.869777834645669
 21
1.6895357874015748
 31
0
  0
LINE
  5
37D
330
1A
100
AcDbEntity
  8
BLACK
  6
CONTINUOUS
100
AcDbLine
 10
2.869777834645669
 20
1.6895357874015748
 30
0
 11
2.8792995669291339
 21
1.6800140551181102
 31
0
  0
LINE
  5
37E
330
1A
100
AcDbEntity
  8
BLACK
  6
CONTINUOUS
100
AcDbLine
 10
2.8792995669291339
 20
1.6800140551181102
 30
0
 11
2.8876953149606299
 21
1.6694861023622047
 31
0
  0
LINE
  5
37F
330
1A
100
AcDbEntity
  8
BLACK
  6
CONTINUOUS
100
AcDbLine
 10
2.8876953149606299
 20
1.6694861023622047
 30
0
 11
2.8948594881889762
 21
1.6580843700787402
 31
0
  0
LINE
  5
380
330
1A
100
AcDbEntity
  8
BLACK
  6
CONTINUOUS
100
AcDbLine
 10
2.8948594881889762
 20
1.6580843700787402
 30
0
 11
2.9007020866141731
 21
1.645952125984252
 31
0
  0
LINE
  5
381
330
1A
100
AcDbEntity
  8
BLACK
  6
CONTINUOUS
100
AcDbLine
 10
2.9007020866141731
 20
1.645952125984252
 30
0
 11
2.9051495275590549
 21
1.6332420472440945
 31
0
  0
LINE
  5
382
330
1A
100
AcDbEntity
  8
BLACK
  6
CONTINUOUS
100
AcDbLine
 10
2.9051495275590549
 20
1.6332420472440945
 30
0
 11
2.9081459448818898
 21
1.6201139370078739
 31
0
  0
LINE
  5
383
330
1A
100
AcDbEntity
  8
BLACK
  6
CONTINUOUS
100
AcDbLine
 10
2.9081459448818898
 20
1.6201139370078739
 30
0
 11
2.909653622047244
 21
1.606732874015748
 31
0
  0
LINE
  5
384
330
1A
100
AcDbEntity
  8
BLACK
  6
CONTINUOUS
100
AcDbLine
 10
2.909653622047244
 20
1.606732874015748
 30
0
 11
2.909653622047244
 21
1.5932671259842519
 31
0
  0
LINE
  5
385
330
1A
100
AcDbEntity
  8
BLACK
  6
CONTINUOUS
100
AcDbLine
 10
2.909653622047244
 20
1.5932671259842519
 30
0
 11
2.9081459448818898
 21
1.5798860629921259
 31
0
  0
LINE
  5
386
330
1A
100
AcDbEntity
  8
BLACK
  6
CONTINUOUS
100
AcDbLine
 10
2.9081459448818898
 20
1.5798860629921259
 30
0
 11
2.9051495275590549
 21
1.5667579527559055
 31
0
  0
LINE
  5
387
330
1A
100
AcDbEntity
  8
BLACK
  6
CONTINUOUS
100
AcDbLine
 10
2.9051495275590549
 20
1.5667579527559055
 30
0
 11
2.9007020866141731
 21
1.554047874015748
 31
0
  0
LINE
  5
388
330
1A
100
AcDbEntity
  8
BLACK
  6
CONTINUOUS
100
AcDbLine
 10
2.9007020866141731
 20
1.554047874015748
 30
0
 11
2.8948594881889762
 21
1.5419156299212597
 31
0
  0
LINE
  5
389
330
1A
100
AcDbEntity
  8
BLACK
  6
CONTINUOUS
100
AcDbLine
 10
2.8948594881889762
 20
1.5419156299212597
 30
0
 11
2.8876953149606299
 21
1.5305138976377952
 31
0
  0
LINE
  5
38A
330
1A
100
AcDbEntity
  8
BLACK
  6
CONTINUOUS
100
AcDbLine
 10
2.8876953149606299
 20
1.5305138976377952
 30
0
 11
2.8792995669291339
 21
1.5199859448818898
 31
0
  0
LINE
  5
38B
330
1A
100
AcDbEntity
  8
BLACK
  6
CONTINUOUS
100
AcDbLine
 10
2.8792995669291339
 20
1.5199859448818898
 30
0
 11
2.869777834645669
 21
1.5104642125984251
 31
0
  0
LINE
  5
38C
330
1A
100
AcDbEntity
  8
BLACK
  6
CONTINUOUS
100
AcDbLine
 10
2.869777834645669
 20
1.5104642125984251
 30
0
 11
2.8592498818897636
 21
1.5020684645669291
 31
0
  0
LINE
  5
38D
330
1A
100
AcDbEntity
  8
BLACK
  6
CONTINUOUS
100
AcDbLine
 10
2.8592498818897636
 20
1.5020684645669291
 30
0
 11
2.8478481496062993
 21
1.4949042913385826
 31
0
  0
LINE
  5
38E
330
1A
100
AcDbEntity
  8
BLACK
  6
CONTINUOUS
100
AcDbLine
 10
2.8478481496062993
 20
1.4949042913385826
 30
0
 11
2.8357159055118109
 21
1.4890616929133857
 31
0
  0
LINE
  5
38F
330
1A
100
AcDbEntity
  8
BLACK
  6
CONTINUOUS
100
AcDbLine
 10
2.8357159055118109
 20
1.4890616929133857
 30
0
 11
2.8230058267716536
 21
1.4846142519685039
 31
0
  0
LINE
  5
390
330
1A
100
AcDbEntity
  8
BLACK
  6
CONTINUOUS
100
AcDbLine
 10
2.8230058267716536
 20
1.4846142519685039
 30
0
 11
2.8098777165354329
 21
1.4816178346456692
 31
0
  0
LINE
  5
391
330
1A
100
AcDbEntity
  8
BLACK
  6
CONTINUOUS
100
AcDbLine
 10
2.8098777165354329
 20
1.4816178346456692
 30
0
 11
2.7964966535433069
 21
1.4801101574803148
 31
0
  0
LINE
  5
392
330
1A
100
AcDbEntity
  8
BLACK
  6
CONTINUOUS
100
AcDbLine
 10
2.7964966535433069
 20
1.4801101574803148
 30
0
 11
2.783030905511811
 21
1.4801101574803148
 31
0
  0
LINE
  5
393
330
1A
100
AcDbEntity
  8
BLACK
  6
CONTINUOUS
100
AcDbLine
 10
2.783030905511811
 20
1.4801101574803148
 30
0
 11
2.7696498425196849
 21
1.4816178346456692
 31
0
  0
LINE
  5
394
330
1A
100
AcDbEntity
  8
BLACK
  6
CONTINUOUS
100
AcDbLine
 10
2.7696498425196849
 20
1.4816178346456692
 30
0
 11
2.7565217322834643
 21
1.4846142519685039
 31
0
  0
LINE
  5
395
330
1A
100
AcDbEntity
  8
BLACK
  6
CONTINUOUS
100
AcDbLine
 10
2.7565217322834643
 20
1.4846142519685039
 30
0
 11
2.743811653543307
 21
1.4890616929133857
 31
0
  0
LINE
  5
396
330
1A
100
AcDbEntity
  8
BLACK
  6
CONTINUOUS
100
AcDbLine
 10
2.743811653543307
 20
1.4890616929133857
 30
0
 11
2.731679409448819
 21
1.4949042913385826
 31
0
  0
LINE
  5
397
330
1A
100
AcDbEntity
  8
BLACK
  6
CONTINUOUS
100
AcDbLine
 10
2.731679409448819
 20
1.4949042913385826
 30
0
 11
2.7202776771653543
 21
1.5020684645669291
 31
0
  0
LINE
  5
398
330
1A
100
AcDbEntity
  8
BLACK
  6
CONTINUOUS
100
AcDbLine
 10
2.7202776771653543
 20
1.5020684645669291
 30
0
 11
2.7097497244094488
 21
1.5104642125984251
 31
0
  0
LINE
  5
399
330
1A
100
AcDbEntity
  8
BLACK
  6
CONTINUOUS
100
AcDbLine
 10
2.7097497244094488
 20
1.5104642125984251
 30
0
 11
2.7002279921259844
 21
1.5199859448818898
 31
0
  0
LINE
  5
39A
330
1A
100
AcDbEntity
  8
BLACK
  6
CONTINUOUS
100
AcDbLine
 10
2.7002279921259844
 20
1.5199859448818898
 30
0
 11
2.691832244094488
 21
1.5305138976377952
 31
0
  0
LINE
  5
39B
330
1A
100
AcDbEntity
  8
BLACK
  6
CONTINUOUS
100
AcDbLine
 10
2.691832244094488
 20
1.5305138976377952
 30
0
 11
2.6846680708661417
 21
1.5419156299212597
 31
0
  0
LINE
  5
39C
330
1A
100
AcDbEntity
  8
BLACK
  6
CONTINUOUS
100
AcDbLine
 10
2.6846680708661417
 20
1.5419156299212597
 30
0
 11
2.6788254724409448
 21
1.554047874015748
 31
0
  0
LINE
  5
39D
330
1A
100
AcDbEntity
  8
BLACK
  6
CONTINUOUS
100
AcDbLine
 10
2.6788254724409448
 20
1.554047874015748
 30
0
 11
2.674378031496063
 21
1.5667579527559055
 31
0
  0
LINE
  5
39E
330
1A
100
AcDbEntity
  8
BLACK
  6
CONTINUOUS
100
AcDbLine
 10
2.674378031496063
 20
1.5667579527559055
 30
0
 11
2.6713816141732285
 21
1.5798860629921259
 31
0
  0
LINE
  5
39F
330
1A
100
AcDbEntity
  8
BLACK
  6
CONTINUOUS
100
AcDbLine
 10
2.6713816141732285
 20
1.5798860629921259
 30
0
 11
2.6698739370078739
 21
1.5932671259842519
 31
0
  0
LINE
  5
3A0
330
1A
100
AcDbEntity
  8
BLACK
  6
CONTINUOUS
100
AcDbLine
 10
2.6698739370078739
 20
1.5932671259842519
 30
0
 11
2.6698739370078739
 21
1.606732874015748
 31
0
  0
LINE
  5
3A1
330
1A
100
AcDbEntity
  8
BLACK
  6
CONTINUOUS
100
AcDbLine
 10
2.6698739370078739
 20
1.606732874015748
 30
0
 11
2.6713816141732285
 21
1.6201139370078739
 31
0
  0
LINE
  5
3A2
330
1A
100
AcDbEntity
  8
BLACK
  6
CONTINUOUS
100
AcDbLine
 10
2.6713816141732285
 20
1.6201139370078739
 30
0
 11
2.674378031496063
 21
1.6332420472440945
 31
0
  0
LINE
  5
3A3
330
1A
100
AcDbEntity
  8
BLACK
  6
CONTINUOUS
100
AcDbLine
 10
2.674378031496063
 20
1.6332420472440945
 30
0
 11
2.6788254724409448
 21
1.645952125984252
 31
0
  0
LINE
  5
3A4
330
1A
100
AcDbEntity
  8
BLACK
  6
CONTINUOUS
100
AcDbLine
 10
2.6788254724409448
 20
1.645952125984252
 30
0
 11
2.6846680708661417
 21
1.6580843700787402
 31
0
  0
LINE
  5
3A5
330
1A
100
AcDbEntity
  8
BLACK
  6
CONTINUOUS
100
AcDbLine
 10
2.6846680708661417
 20
1.6580843700787402
 30
0
 11
2.691832244094488
 21
1.6694861023622047
 31
0
  0
LINE
  5
3A6
330
1A
100
AcDbEntity
  8
BLACK
  6
CONTINUOUS
100
AcDbLine
 10
2.691832244094488
 20
1.6694861023622047
 30
0
 11
2.7002279921259844
 21
1.6800140551181102
 31
0
  0
LINE
  5
3A7
330
1A
100
AcDbEntity
  8
BLACK
  6
CONTINUOUS
100
AcDbLine
 10
2.7002279921259844
 20
1.6800140551181102
 30
0
 11
2.7097497244094488
 21
1.6895357874015748
 31
0
  0
LINE
  5
3A8
330
1A
100
AcDbEntity
  8
BLACK
  6
CONTINUOUS
100
AcDbLine
 10
2.7097497244094488
 20
1.6895357874015748
 30
0
 11
2.7202776771653543
 21
1.6979315354330708
 31
0
  0
LINE
  5
3A9
330
1A
100
AcDbEntity
  8
BLACK
  6
CONTINUOUS
100
AcDbLine
 10
2.7202776771653543
 20
1.6979315354330708
 30
0
 11
2.731679409448819
 21
1.7050957086614174
 31
0
  0
LINE
  5
3AA
330
1A
100
AcDbEntity
  8
BLACK
  6
CONTINUOUS
100
AcDbLine
 10
2.731679409448819
 20
1.7050957086614174
 30
0
 11
2.743811653543307
 21
1.7109383070866142
 31
0
  0
LINE
  5
3AB
330
1A
100
AcDbEntity
  8
BLACK
  6
CONTINUOUS
100
AcDbLine
 10
2.743811653543307
 20
1.7109383070866142
 30
0
 11
2.7565217322834643
 21
1.715385748031496
 31
0
  0
LINE
  5
3AC
330
1A
100
AcDbEntity
  8
BLACK
  6
CONTINUOUS
100
AcDbLine
 10
2.7565217322834643
 20
1.715385748031496
 30
0
 11
2.7696498425196849
 21
1.7183821653543307
 31
0
  0
LINE
  5
3AD
330
1A
100
AcDbEntity
  8
BLACK
  6
CONTINUOUS
100
AcDbLine
 10
2.7696498425196849
 20
1.7183821653543307
 30
0
 11
2.783030905511811
 21
1.7198898425196849
 31
0
  0
LINE
  5
3AE
330
1A
100
AcDbEntity
  8
BLACK
  6
CONTINUOUS
100
AcDbLine
 10
2.783030905511811
 20
1.7198898425196849
 30
0
 11
2.7964966535433069
 21
1.7198898425196849
 31
0
  0
LINE
  5
3AF
330
1A
100
AcDbEntity
  8
BLACK
  6
CONTINUOUS
100
AcDbLine
 10
2.7964966535433069
 20
1.7198898425196849
 30
0
 11
2.8098777165354329
 21
1.7183821653543307
 31
0
  0
CIRCLE
  5
3B0
330
1A
100
AcDbEntity
  8
BLACK
100
AcDbCircle
 10
0.4
 20
0.4
 30
0
 40
0.0068897637795276
  0
CIRCLE
  5
3B1
330
1A
100
AcDbEntity
  8
BLACK
100
AcDbCircle
 10
2.7897637795275592
 20
1.5999999999999999
 30
0
 40
0.0068897637795276
  0
CIRCLE
  5
3B2
330
1A
100
AcDbEntity
  8
BLACK
100
AcDbCircle
 10
0.4
 20
1.5999999999999999
 30
0
 40
0.0068897637795276
  0
CIRCLE
  5
3B3
330
1A
100
AcDbEntity
  8
BLACK
100
AcDbCircle
 10
2.512992125984252
 20
0.3937007874015748
 30
0
 40
0.0068897637795276
  0
CIRCLE
  5
3B4
330
1A
100
AcDbEntity
  8
BLACK
100
AcDbCircle
 10
2.512992125984252
 20
0.2937007874015748
 30
0
 40
0.0068897637795276
  0
CIRCLE
  5
3B5
330
1A
100
AcDbEntity
  8
BLACK
100
AcDbCircle
 10
2.4129921259842519
 20
0.3937007874015748
 30
0
 40
0.0068897637795276
  0
CIRCLE
  5
3B6
330
1A
100
AcDbEntity
  8
BLACK
100
AcDbCircle
 10
2.4129921259842519
 20
0.2937007874015748
 30
0
 40
0.0068897637795276
  0
CIRCLE
  5
3B7
330
1A
100
AcDbEntity
  8
BLACK
100
AcDbCircle
 10
2.3129921259842519
 20
0.3937007874015748
 30
0
 40
0.0068897637795276
  0
CIRCLE
  5
3B8
330
1A
100
AcDbEntity
  8
BLACK
100
AcDbCircle
 10
2.3129921259842519
 20
0.2937007874015748
 30
0
 40
0.0068897637795276
  0
CIRCLE
  5
3B9
330
1A
100
AcDbEntity
  8
BLACK
100
AcDbCircle
 10
0.4208661417322834
 20
1.1744094488188976
 30
0
 40
0.0068897637795276
  0
CIRCLE
  5
3BA
330
1A
100
AcDbEntity
  8
BLACK
100
AcDbCircle
 10
0.3208661417322834
 20
1.2744094488188975
 30
0
 40
0.0068897637795276
  0
CIRCLE
  5
3BB
330
1A
100
AcDbEntity
  8
BLACK
100
AcDbCircle
 10
0.3208661417322834
 20
1.0744094488188976
 30
0
 40
0.0068897637795276
  0
CIRCLE
  5
3BC
330
1A
100
AcDbEntity
  8
BLACK
100
AcDbCircle
 10
0.5208661417322834
 20
1.2744094488188975
 30
0
 40
0.0068897637795276
  0
CIRCLE
  5
3BD
330
1A
100
AcDbEntity
  8
BLACK
100
AcDbCircle
 10
0.5208661417322834
 20
1.0744094488188976
 30
0
 40
0.0068897637795276
  0
CIRCLE
  5
3BE
330
1A
100
AcDbEntity
  8
BLACK
100
AcDbCircle
 10
2.7897637795275592
 20
0.4
 30
0
 40
0.0068897637795276
  0
CIRCLE
  5
3BF
330
1A
100
AcDbEntity
  8
BLACK
100
AcDbCircle
 10
2.6929133858267718
 20
0.6299212598425197
 30
0
 40
0.0068897637795276
  0
CIRCLE
  5
3C0
330
1A
100
AcDbEntity
  8
BLACK
100
AcDbCircle
 10
2.7929133858267714
 20
0.6299212598425197
 30
0
 40
0.0068897637795276
  0
CIRCLE
  5
3C1
330
1A
100
AcDbEntity
  8
BLACK
100
AcDbCircle
 10
2.6929133858267718
 20
0.7299212598425197
 30
0
 40
0.0068897637795276
  0
CIRCLE
  5
3C2
330
1A
100
AcDbEntity
  8
BLACK
100
AcDbCircle
 10
2.7929133858267714
 20
0.7299212598425197
 30
0
 40
0.0068897637795276
  0
CIRCLE
  5
3C3
330
1A
100
AcDbEntity
  8
BLACK
100
AcDbCircle
 10
2.6929133858267718
 20
0.8299212598425196
 30
0
 40
0.0068897637795276
  0
CIRCLE
  5
3C4
330
1A
100
AcDbEntity
  8
BLACK
100
AcDbCircle
 10
2.7929133858267714
 20
0.8299212598425196
 30
0
 40
0.0068897637795276
  0
CIRCLE
  5
3C5
330
1A
100
AcDbEntity
  8
BLACK
100
AcDbCircle
 10
2.6929133858267718
 20
0.9299212598425196
 30
0
 40
0.0068897637795276
  0
CIRCLE
  5
3C6
330
1A
100
AcDbEntity
  8
BLACK
100
AcDbCircle
 10
2.7929133858267714
 20
0.9299212598425196
 30
0
 40
0.0068897637795276
  0
CIRCLE
  5
3C7
330
1A
100
AcDbEntity
  8
BLACK
100
AcDbCircle
 10
2.6929133858267718
 20
1.0299212598425196
 30
0
 40
0.0068897637795276
  0
CIRCLE
  5
3C8
330
1A
100
AcDbEntity
  8
BLACK
100
AcDbCircle
 10
2.7929133858267714
 20
1.0299212598425196
 30
0
 40
0.0068897637795276
  0
CIRCLE
  5
3C9
330
1A
100
AcDbEntity
  8
BLACK
100
AcDbCircle
 10
2.6929133858267718
 20
1.1299212598425197
 30
0
 40
0.0068897637795276
  0
CIRCLE
  5
3CA
330
1A
100
AcDbEntity
  8
BLACK
100
AcDbCircle
 10
2.7929133858267714
 20
1.1299212598425197
 30
0
 40
0.0068897637795276
  0
CIRCLE
  5
3CB
330
1A
100
AcDbEntity
  8
BLACK
100
AcDbCircle
 10
2.6929133858267718
 20
1.2299212598425198
 30
0
 40
0.0068897637795276
  0
CIRCLE
  5
3CC
330
1A
100
AcDbEntity
  8
BLACK
100
AcDbCircle
 10
2.7929133858267714
 20
1.2299212598425198
 30
0
 40
0.0068897637795276
  0
CIRCLE
  5
3CD
330
1A
100
AcDbEntity
  8
BLACK
100
AcDbCircle
 10
2.6929133858267718
 20
1.3299212598425196
 30
0
 40
0.0068897637795276
  0
CIRCLE
  5
3CE
330
1A
100
AcDbEntity
  8
BLACK
100
AcDbCircle
 10
2.7929133858267714
 20
1.3299212598425196
 30
0
 40
0.0068897637795276
  0
CIRCLE
  5
3CF
330
1A
100
AcDbEntity
  8
BLACK
100
AcDbCircle
 10
0.4043307086614173
 20
0.7059055118110236
 30
0
 40
0.0068897637795276
  0
CIRCLE
  5
3D0
330
1A
100
AcDbEntity
  8
BLACK
100
AcDbCircle
 10
0.5043307086614173
 20
0.7059055118110236
 30
0
 40
0.0068897637795276
  0
CIRCLE
  5
3D1
330
1A
100
AcDbEntity
  8
WHITE
100
AcDbCircle
 10
0.4
 20
0.4
 30
0
 40
0.0068897637795276
  0
CIRCLE
  5
3D2
330
1A
100
AcDbEntity
  8
WHITE
100
AcDbCircle
 10
2.7897637795275592
 20
1.5999999999999999
 30
0
 40
0.0068897637795276
  0
CIRCLE
  5
3D3
330
1A
100
AcDbEntity
  8
WHITE
100
AcDbCircle
 10
0.4
 20
1.5999999999999999
 30
0
 40
0.0068897637795276
  0
CIRCLE
  5
3D4
330
1A
100
AcDbEntity
  8
WHITE
100
AcDbCircle
 10
2.512992125984252
 20
0.3937007874015748
 30
0
 40
0.0068897637795276
  0
CIRCLE
  5
3D5
330
1A
100
AcDbEntity
  8
WHITE
100
AcDbCircle
 10
2.512992125984252
 20
0.2937007874015748
 30
0
 40
0.0068897637795276
  0
CIRCLE
  5
3D6
330
1A
100
AcDbEntity
  8
WHITE
100
AcDbCircle
 10
2.4129921259842519
 20
0.3937007874015748
 30
0
 40
0.0068897637795276
  0
CIRCLE
  5
3D7
330
1A
100
AcDbEntity
  8
WHITE
100
AcDbCircle
 10
2.4129921259842519
 20
0.2937007874015748
 30
0
 40
0.0068897637795276
  0
CIRCLE
  5
3D8
330
1A
100
AcDbEntity
  8
WHITE
100
AcDbCircle
 10
2.3129921259842519
 20
0.3937007874015748
 30
0
 40
0.0068897637795276
  0
CIRCLE
  5
3D9
330
1A
100
AcDbEntity
  8
WHITE
100
AcDbCircle
 10
2.3129921259842519
 20
0.2937007874015748
 30
0
 40
0.0068897637795276
  0
CIRCLE
  5
3DA
330
1A
100
AcDbEntity
  8
WHITE
100
AcDbCircle
 10
0.4208661417322834
 20
1.1744094488188976
 30
0
 40
0.0068897637795276
  0
CIRCLE
  5
3DB
330
1A
100
AcDbEntity
  8
WHITE
100
AcDbCircle
 10
0.3208661417322834
 20
1.2744094488188975
 30
0
 40
0.0068897637795276
  0
CIRCLE
  5
3DC
330
1A
100
AcDbEntity
  8
WHITE
100
AcDbCircle
 10
0.3208661417322834
 20
1.0744094488188976
 30
0
 40
0.0068897637795276
  0
CIRCLE
  5
3DD
330
1A
100
AcDbEntity
  8
WHITE
100
AcDbCircle
 10
0.5208661417322834
 20
1.2744094488188975
 30
0
 40
0.0068897637795276
  0
CIRCLE
  5
3DE
330
1A
100
AcDbEntity
  8
WHITE
100
AcDbCircle
 10
0.5208661417322834
 20
1.0744094488188976
 30
0
 40
0.0068897637795276
  0
CIRCLE
  5
3DF
330
1A
100
AcDbEntity
  8
WHITE
100
AcDbCircle
 10
2.7897637795275592
 20
0.4
 30
0
 40
0.0068897637795276
  0
CIRCLE
  5
3E0
330
1A
100
AcDbEntity
  8
WHITE
100
AcDbCircle
 10
2.6929133858267718
 20
0.6299212598425197
 30
0
 40
0.0068897637795276
  0
CIRCLE
  5
3E1
330
1A
100
AcDbEntity
  8
WHITE
100
AcDbCircle
 10
2.7929133858267714
 20
0.6299212598425197
 30
0
 40
0.0068897637795276
  0
CIRCLE
  5
3E2
330
1A
100
AcDbEntity
  8
WHITE
100
AcDbCircle
 10
2.6929133858267718
 20
0.7299212598425197
 30
0
 40
0.0068897637795276
  0
CIRCLE
  5
3E3
330
1A
100
AcDbEntity
  8
WHITE
100
AcDbCircle
 10
2.7929133858267714
 20
0.7299212598425197
 30
0
 40
0.0068897637795276
  0
CIRCLE
  5
3E4
330
1A
100
AcDbEntity
  8
WHITE
100
AcDbCircle
 10
2.6929133858267718
 20
0.8299212598425196
 30
0
 40
0.0068897637795276
  0
CIRCLE
  5
3E5
330
1A
100
AcDbEntity
  8
WHITE
100
AcDbCircle
 10
2.7929133858267714
 20
0.8299212598425196
 30
0
 40
0.0068897637795276
  0
CIRCLE
  5
3E6
330
1A
100
AcDbEntity
  8
WHITE
100
AcDbCircle
 10
2.6929133858267718
 20
0.9299212598425196
 30
0
 40
0.0068897637795276
  0
CIRCLE
  5
3E7
330
1A
100
AcDbEntity
  8
WHITE
100
AcDbCircle
 10
2.7929133858267714
 20
0.9299212598425196
 30
0
 40
0.0068897637795276
  0
CIRCLE
  5
3E8
330
1A
100
AcDbEntity
  8
WHITE
100
AcDbCircle
 10
2.6929133858267718
 20
1.0299212598425196
 30
0
 40
0.0068897637795276
  0
CIRCLE
  5
3E9
330
1A
100
AcDbEntity
  8
WHITE
100
AcDbCircle
 10
2.7929133858267714
 20
1.0299212598425196
 30
0
 40
0.0068897637795276
  0
CIRCLE
  5
3EA
330
1A
100
AcDbEntity
  8
WHITE
100
AcDbCircle
 10
2.6929133858267718
 20
1.1299212598425197
 30
0
 40
0.0068897637795276
  0
CIRCLE
  5
3EB
330
1A
100
AcDbEntity
  8
WHITE
100
AcDbCircle
 10
2.7929133858267714
 20
1.1299212598425197
 30
0
 40
0.0068897637795276
  0
CIRCLE
  5
3EC
330
1A
100
AcDbEntity
  8
WHITE
100
AcDbCircle
 10
2.6929133858267718
 20
1.2299212598425198
 30
0
 40
0.0068897637795276
  0
CIRCLE
  5
3ED
330
1A
100
AcDbEntity
  8
WHITE
100
AcDbCircle
 10
2.7929133858267714
 20
1.2299212598425198
 30
0
 40
0.0068897637795276
  0
CIRCLE
  5
3EE
330
1A
100
AcDbEntity
  8
WHITE
100
AcDbCircle
 10
2.6929133858267718
 20
1.3299212598425196
 30
0
 40
0.0068897637795276
  0
CIRCLE
  5
3EF
330
1A
100
AcDbEntity
  8
WHITE
100
AcDbCircle
 10
2.7929133858267714
 20
1.3299212598425196
 30
0
 40
0.0068897637795276
  0
CIRCLE
  5
3F0
330
1A
100
AcDbEntity
  8
WHITE
100
AcDbCircle
 10
0.4043307086614173
 20
0.7059055118110236
 30
0
 40
0.0068897637795276
  0
CIRCLE
  5
3F1
330
1A
100
AcDbEntity
  8
WHITE
100
AcDbCircle
 10
0.5043307086614173
 20
0.7059055118110236
 30
0
 40
0.0068897637795276
  0
ENDSEC
  0
SECTION
  2
OBJECTS
  0
DICTIONARY
  5
20
330
0
100
AcDbDictionary
281
1
  3
ACAD_GROUP
350
3F2
  3
ACAD_LAYOUT
350
21
  3
ACAD_PLOTSTYLENAME
350
11
  0
DICTIONARY
  5
3F2
330
20
100
AcDbDictionary
281
1
  0
ACDBDICTIONARYWDFLT
  5
11
330
20
100
AcDbDictionary
281
1
  3
Normal
350
10
100
AcDbDictionaryWithDefault
340
10
  0
ACDBPLACEHOLDER
  5
10
330
11
  0
DICTIONARY
  5
21
330
20
100
AcDbDictionary
281
1
  3
Model
350
1D
  3
Layout1
350
1E
  3
Layout2
350
1F
  0
LAYOUT
  5
1D
330
21
100
AcDbPlotSettings
  1

  2
none_device
  4
A3
  6

 40
0.0
 41
0.0
 42
0.0
 43
0.0
 44
420.0
 45
297.0
 46
0.0
 47
0.0
 48
0.0
 49
0.0
140
0.0
141
0.0
142
1.0
143
1.0
 70
1024
 72
1
 73
0
 74
5
  7

 75
16
 76
0
 77
2
 78
300
147
1.0
148
0.0
149
0.0
100
AcDbLayout
  1
Model
 70
1
 71
0
 10
0.0
 20
0.0
 11
420.0
 21
297.0
 12
0.0
 22
0.0
 32
0.0
 14
1e+20
 24
1e+20
 34
1e+20
 15
-1e+20
 25
-1e+20
 35
-1e+20
146
0.0
 13
0.0
 23
0.0
 33
0.0
 16
1.0
 26
0.0
 36
0.0
 17
0.0
 27
1.0
 37
0.0
 76
0
330
1A
  0
LAYOUT
  5
1E
330
21
100
AcDbPlotSettings
  1

  2
none_device
  4
A3
  6

 40
0.0
 41
0.0
 42
0.0
 43
0.0
 44
420.0
 45
297.0
 46
0.0
 47
0.0
 48
0.0
 49
0.0
140
0.0
141
0.0
142
1.0
143
1.0
 70
0
 72
1
 73
0
 74
5
  7

 75
16
 76
0
 77
2
 78
300
147
1.0
148
0.0
149
0.0
100
AcDbLayout
  1
Layout1
 70
1
 71
1
 10
0.0
 20
0.0
 11
420.0
 21
297.0
 12
0.0
 22
0.0
 32
0.0
 14
1e+20
 24
1e+20
 34
1e+20
 15
-1e+20
 25
-1e+20
 35
-1e+20
146
0.0
 13
0.0
 23
0.0
 33
0.0
 16
1.0
 26
0.0
 36
0.0
 17
0.0
 27
1.0
 37
0.0
 76
0
330
1B
  0
LAYOUT
  5
1F
330
21
100
AcDbPlotSettings
  1

  2
none_device
  4
A3
  6

 40
0.0
 41
0.0
 42
0.0
 43
0.0
 44
420.0
 45
297.0
 46
0.0
 47
0.0
 48
0.0
 49
0.0
140
0.0
141
0.0
142
1.0
143
1.0
 70
0
 72
1
 73
0
 74
5
  7

 75
16
 76
0
 77
2
 78
300
147
1.0
148
0.0
149
0.0
100
AcDbLayout
  1
Layout2
 70
1
 71
2
 10
0.0
 20
0.0
 11
420.0
 21
297.0
 12
0.0
 22
0.0
 32
0.0
 14
1e+20
 24
1e+20
 34
1e+20
 15
-1e+20
 25
-1e+20
 35
-1e+20
146
0.0
 13
0.0
 23
0.0
 33
0.0
 16
1.0
 26
0.0
 36
0.0
 17
0.0
 27
1.0
 37
0.0
 76
0
330
1C
  0
ENDSEC
  0
EOF
