%TF.GenerationSoftware,KiCad,Pcbnew,10.0.5-unknown-202607221313~667fa36054~ubuntu25.10.1*%
%TF.CreationDate,2026-08-12T15:14:12+00:00*%
%TF.ProjectId,PCRD08,50435244-3038-42e6-9b69-6361645f7063,rev?*%
%TF.SameCoordinates,PX66dd020PY81342c0*%
%TF.FileFunction,Copper,L1,Top*%
%TF.FilePolarity,Positive*%
%FSLAX46Y46*%
G04 Gerber Fmt 4.6, Leading zero omitted, Abs format (unit mm)*
G04 Created by KiCad (PCBNEW 10.0.5-unknown-202607221313~667fa36054~ubuntu25.10.1) date 2026-08-12 15:14:12*
%MOMM*%
%LPD*%
G01*
G04 APERTURE LIST*
%TA.AperFunction,ComponentPad*%
%ADD10C,6.000000*%
%TD*%
%TA.AperFunction,ComponentPad*%
%ADD11R,1.524000X1.524000*%
%TD*%
%TA.AperFunction,ComponentPad*%
%ADD12C,2.050000*%
%TD*%
%TA.AperFunction,ComponentPad*%
%ADD13C,2.250000*%
%TD*%
%TA.AperFunction,ViaPad*%
%ADD14C,0.800000*%
%TD*%
%TA.AperFunction,Conductor*%
%ADD15C,0.450000*%
%TD*%
%TA.AperFunction,Conductor*%
%ADD16C,0.200000*%
%TD*%
G04 APERTURE END LIST*
D10*
%TO.P,M103,1*%
%TO.N,GND*%
X10160000Y10160000D03*
%TD*%
%TO.P,,1*%
%TO.N,GND*%
X70860000Y40640000D03*
%TD*%
%TO.P,,1*%
%TO.N,GND*%
X10160000Y40640000D03*
%TD*%
D11*
%TO.P,J301,1*%
%TO.N,GND*%
X63830000Y10000000D03*
%TO.P,J301,2*%
X63830000Y7460000D03*
%TO.P,J301,3*%
%TO.N,+5VD*%
X61290000Y10000000D03*
%TO.P,J301,4*%
X61290000Y7460000D03*
%TO.P,J301,5*%
%TO.N,GND*%
X58750000Y10000000D03*
%TO.P,J301,6*%
X58750000Y7460000D03*
%TD*%
D12*
%TO.P,J201,1,In*%
%TO.N,Net-(J201-In)*%
X10690000Y29830000D03*
D13*
%TO.P,J201,2,Ext*%
%TO.N,GND*%
X8150000Y32370000D03*
X8150000Y27290000D03*
X13230000Y32370000D03*
X13230000Y27290000D03*
%TD*%
D10*
%TO.P,,1*%
%TO.N,GND*%
X70860000Y10160000D03*
%TD*%
D11*
%TO.P,J302,1*%
%TO.N,GND*%
X68400000Y16000000D03*
%TO.P,J302,2*%
X70940000Y16000000D03*
%TO.P,J302,3*%
%TO.N,+5VD*%
X68400000Y18540000D03*
%TO.P,J302,4*%
X70940000Y18540000D03*
%TO.P,J302,5*%
%TO.N,/interface/3v3*%
X68400000Y21080000D03*
%TO.P,J302,6*%
X70940000Y21080000D03*
%TO.P,J302,7*%
%TO.N,Net-(J302-Pad7)*%
X68400000Y23620000D03*
%TO.P,J302,8*%
X70940000Y23620000D03*
%TO.P,J302,9*%
%TO.N,/interface/SOCKET_OE*%
X68400000Y26160000D03*
%TO.P,J302,10*%
%TO.N,/interface/SOCKET_RST*%
X70940000Y26160000D03*
%TO.P,J302,11*%
%TO.N,/interface/SOCKET_MISO*%
X68400000Y28700000D03*
%TO.P,J302,12*%
%TO.N,/interface/SOCKET_CONV*%
X70940000Y28700000D03*
%TO.P,J302,13*%
%TO.N,/interface/SOCKET_MOSI*%
X68400000Y31240000D03*
%TO.P,J302,14*%
%TO.N,/interface/SOCKET_SCLK*%
X70940000Y31240000D03*
%TO.P,J302,15*%
%TO.N,GND*%
X68400000Y33780000D03*
%TO.P,J302,16*%
X70940000Y33780000D03*
%TD*%
%TO.P,J202,1*%
%TO.N,Net-(J202-Pad1)*%
X10270000Y17930000D03*
%TO.P,J202,2*%
%TO.N,Net-(C201-Pad1)*%
X12810000Y17930000D03*
%TD*%
D14*
%TO.N,GND*%
X44990000Y41480000D03*
X21990000Y15930000D03*
X6790000Y21380000D03*
X13390000Y35330000D03*
X44740000Y15330000D03*
X63890000Y30080000D03*
X74190000Y23630000D03*
X64640000Y14330000D03*
X26890000Y41780000D03*
X57290000Y41180000D03*
X25240000Y8580000D03*
X50740000Y33980000D03*
X13240000Y14630000D03*
X65040000Y36730000D03*
X47040000Y8280000D03*
X13990000Y43330000D03*
X49690000Y25730000D03*
X74340000Y33130000D03*
%TO.N,+5V*%
X34840000Y21330000D03*
X30900000Y28043750D03*
X25400000Y20743750D03*
X33678750Y18568750D03*
%TO.N,/analogue_backend_1/VCC2*%
X38500000Y24680000D03*
X33340000Y25992500D03*
%TO.N,/interface/SOCKET_MOSI*%
X59087728Y29151731D03*
%TO.N,/interface/SOCKET_SCLK*%
X58278410Y29965658D03*
%TO.N,+5VD*%
X47337168Y39071837D03*
X58618410Y20045658D03*
X50900535Y25069408D03*
X56328410Y16875658D03*
X51000535Y32369408D03*
X45900000Y21343750D03*
X53188410Y15465658D03*
X55088410Y15565658D03*
X45900000Y26043750D03*
%TO.N,Net-(U203-+)*%
X35930000Y33142500D03*
X31800000Y35443750D03*
%TO.N,/analogue_backend_1/4.1 V*%
X47550000Y28753750D03*
X39662500Y29106250D03*
%TO.N,/analogue_backend_1/RST*%
X45900000Y27143750D03*
X48490000Y27830000D03*
%TO.N,/analogue_backend_1/REF*%
X27740000Y24080000D03*
X40100000Y33543750D03*
X24740000Y33280000D03*
%TO.N,/interface/SOCKET_CONV*%
X58638410Y28055658D03*
%TO.N,/interface/SOCKET_OE*%
X53140000Y34630000D03*
X58108410Y26295658D03*
%TO.N,/analogue_backend_1/SCK*%
X49218265Y29884894D03*
X48890000Y34230000D03*
%TO.N,/analogue_backend_1/SDI*%
X49340000Y28880000D03*
X49300000Y35743750D03*
%TO.N,Net-(U203--)*%
X27400000Y35643750D03*
X22152500Y30642500D03*
X36752500Y32080000D03*
%TO.N,GNDA*%
X33525000Y29545000D03*
X23600000Y25743750D03*
X29685000Y30135000D03*
X22100000Y31643750D03*
%TD*%
%TO.N,+5V*%
D15*
X26000000Y20743750D02*
X29800000Y24543750D01*
X29800000Y24543750D02*
X29800000Y26943750D01*
X25400000Y20743750D02*
X26000000Y20743750D01*
X29800000Y26943750D02*
X30900000Y28043750D01*
X34840000Y21330000D02*
X34840000Y19730000D01*
X34840000Y19730000D02*
X33678750Y18568750D01*
%TO.N,/analogue_backend_1/VCC2*%
X38500000Y24680000D02*
X34652500Y24680000D01*
X34652500Y24680000D02*
X33340000Y25992500D01*
%TO.N,/interface/SOCKET_MOSI*%
X68400000Y31240000D02*
X68390000Y31230000D01*
X61165997Y31230000D02*
X59087728Y29151731D01*
X59087728Y29151731D02*
X59087728Y29368211D01*
X59087728Y29368211D02*
X59178410Y29458893D01*
X68390000Y31230000D02*
X61165997Y31230000D01*
%TO.N,/interface/SOCKET_SCLK*%
X69752000Y32428000D02*
X70940000Y31240000D01*
X69752000Y32428000D02*
X60740752Y32428000D01*
X60740752Y32428000D02*
X58278410Y29965658D01*
%TO.N,+5VD*%
X57054342Y15565658D02*
X55088410Y15565658D01*
X51590000Y37553750D02*
X51590000Y32958873D01*
X61340000Y11280000D02*
X57054342Y15565658D01*
X61340000Y9680000D02*
X61340000Y7140000D01*
X51590000Y32958873D02*
X51000535Y32369408D01*
X61340000Y9680000D02*
X61340000Y11280000D01*
X58618410Y20045658D02*
X58618410Y19165658D01*
X54988410Y15465658D02*
X55088410Y15565658D01*
X50900535Y32269408D02*
X51000535Y32369408D01*
X47400000Y39143750D02*
X50000000Y39143750D01*
X53188410Y15465658D02*
X54988410Y15465658D01*
X47300000Y39043750D02*
X47400000Y39143750D01*
X50900535Y25069408D02*
X50900535Y32269408D01*
X45900000Y21343750D02*
X45900000Y26043750D01*
X50000000Y39143750D02*
X51590000Y37553750D01*
X58618410Y19165658D02*
X56328410Y16875658D01*
%TO.N,Net-(U203-+)*%
X35930000Y33970000D02*
X34510000Y35390000D01*
X35930000Y33970000D02*
X35920000Y33980000D01*
X34510000Y35390000D02*
X32160000Y35390000D01*
X32160000Y35390000D02*
X31853750Y35390000D01*
X31853750Y35390000D02*
X31800000Y35443750D01*
X35930000Y33142500D02*
X35930000Y33970000D01*
%TO.N,/analogue_backend_1/4.1 V*%
X47550000Y28753750D02*
X47330000Y28753750D01*
X46640000Y29443750D02*
X40000000Y29443750D01*
X40000000Y29443750D02*
X39662500Y29106250D01*
X47330000Y28753750D02*
X46640000Y29443750D01*
%TO.N,/analogue_backend_1/RST*%
D16*
X48490000Y27830000D02*
X47803750Y27143750D01*
X47803750Y27143750D02*
X45900000Y27143750D01*
%TO.N,/analogue_backend_1/REF*%
D15*
X40000000Y33543750D02*
X37536250Y31080000D01*
X28840000Y31080000D02*
X27740000Y29980000D01*
X37536250Y31080000D02*
X28840000Y31080000D01*
X27740000Y29980000D02*
X27740000Y24080000D01*
X40100000Y33543750D02*
X40000000Y33543750D01*
X24740000Y25110000D02*
X25770000Y24080000D01*
X25770000Y24080000D02*
X27740000Y24080000D01*
X24740000Y33280000D02*
X24740000Y25110000D01*
%TO.N,/interface/SOCKET_CONV*%
X70940000Y28700000D02*
X69588000Y27348000D01*
X59214068Y27480000D02*
X58638410Y28055658D01*
X69588000Y27348000D02*
X69588000Y27480000D01*
X69588000Y27480000D02*
X59214068Y27480000D01*
%TO.N,/interface/SOCKET_OE*%
X53138410Y29235658D02*
X55468410Y26905658D01*
X55468410Y26905658D02*
X57498410Y26905658D01*
X53140000Y34630000D02*
X53140000Y32397248D01*
X53140000Y32397248D02*
X53138410Y32395658D01*
X53138410Y32395658D02*
X53138410Y29235658D01*
X57498410Y26905658D02*
X58108410Y26295658D01*
%TO.N,/analogue_backend_1/SCK*%
D16*
X49218265Y29884894D02*
X48640000Y30463159D01*
X48640000Y33980000D02*
X48890000Y34230000D01*
X48640000Y30463159D02*
X48640000Y33980000D01*
%TO.N,/analogue_backend_1/SDI*%
X49919265Y29459265D02*
X49919265Y35124485D01*
X49340000Y28880000D02*
X49919265Y29459265D01*
X49919265Y35124485D02*
X49300000Y35743750D01*
%TO.N,Net-(U203--)*%
D15*
X22151250Y30643750D02*
X22152500Y30642500D01*
X30815000Y32080000D02*
X36752500Y32080000D01*
X20700000Y31043750D02*
X21100000Y30643750D01*
X27400000Y35643750D02*
X23300000Y35643750D01*
X23300000Y35643750D02*
X20700000Y33043750D01*
X28015000Y35028750D02*
X28015000Y34880000D01*
X20700000Y33043750D02*
X20700000Y31043750D01*
X27400000Y35643750D02*
X28015000Y35028750D01*
X28015000Y34880000D02*
X30815000Y32080000D01*
X21100000Y30643750D02*
X22151250Y30643750D01*
%TO.N,GNDA*%
X23600000Y25743750D02*
X23600000Y30363141D01*
X22319391Y31643750D02*
X22100000Y31643750D01*
X22319391Y31643750D02*
X22978500Y30984641D01*
X23600000Y30363141D02*
X22319391Y31643750D01*
%TD*%
%TA.AperFunction,Conductor*%
%TO.N,GND*%
G36*
X75391621Y44909498D02*
G01*
X75438114Y44855842D01*
X75449500Y44803500D01*
X75449500Y5996500D01*
X75429498Y5928379D01*
X75375842Y5881886D01*
X75323500Y5870500D01*
X5956500Y5870500D01*
X5888379Y5890502D01*
X5841886Y5944158D01*
X5830500Y5996500D01*
X5830500Y15535442D01*
X52479910Y15535442D01*
X52479910Y15535439D01*
X52479910Y15395877D01*
X52507137Y15258996D01*
X52507138Y15258994D01*
X52507139Y15258989D01*
X52560543Y15130062D01*
X52560545Y15130058D01*
X52560546Y15130057D01*
X52638082Y15014016D01*
X52736768Y14915330D01*
X52783078Y14884387D01*
X52852809Y14837794D01*
X52852813Y14837792D01*
X52981740Y14784388D01*
X52981741Y14784388D01*
X52981748Y14784385D01*
X53118629Y14757158D01*
X53118630Y14757158D01*
X53258190Y14757158D01*
X53258191Y14757158D01*
X53395072Y14784385D01*
X53524011Y14837794D01*
X53552993Y14857159D01*
X53633458Y14910923D01*
X53701210Y14932138D01*
X53703459Y14932158D01*
X54741350Y14932158D01*
X54789568Y14922567D01*
X54881742Y14884387D01*
X54881744Y14884387D01*
X54881748Y14884385D01*
X55018629Y14857158D01*
X55018630Y14857158D01*
X55158190Y14857158D01*
X55158191Y14857158D01*
X55295072Y14884385D01*
X55424011Y14937794D01*
X55450275Y14955344D01*
X55533458Y15010923D01*
X55601210Y15032138D01*
X55603459Y15032158D01*
X56781169Y15032158D01*
X56849290Y15012156D01*
X56870264Y14995253D01*
X60579922Y11285595D01*
X60613948Y11223283D01*
X60608883Y11152468D01*
X60566336Y11095632D01*
X60499816Y11070821D01*
X60490827Y11070500D01*
X60481929Y11070500D01*
X60456148Y11067509D01*
X60456143Y11067508D01*
X60350634Y11020921D01*
X60350632Y11020920D01*
X60269080Y10939368D01*
X60269079Y10939366D01*
X60222492Y10833857D01*
X60222491Y10833852D01*
X60219500Y10808071D01*
X60219500Y9191930D01*
X60222491Y9166149D01*
X60222492Y9166144D01*
X60269079Y9060635D01*
X60269080Y9060633D01*
X60350632Y8979081D01*
X60350634Y8979080D01*
X60350635Y8979079D01*
X60456145Y8932492D01*
X60481932Y8929501D01*
X60481935Y8929500D01*
X60481936Y8929500D01*
X60680500Y8929500D01*
X60748621Y8909498D01*
X60795114Y8855842D01*
X60806500Y8803500D01*
X60806500Y8656500D01*
X60786498Y8588379D01*
X60732842Y8541886D01*
X60680500Y8530500D01*
X60481929Y8530500D01*
X60456148Y8527509D01*
X60456143Y8527508D01*
X60350634Y8480921D01*
X60350632Y8480920D01*
X60269080Y8399368D01*
X60269079Y8399366D01*
X60222492Y8293857D01*
X60222491Y8293852D01*
X60219500Y8268071D01*
X60219500Y6651930D01*
X60222491Y6626149D01*
X60222492Y6626144D01*
X60269079Y6520635D01*
X60269080Y6520633D01*
X60350632Y6439081D01*
X60350634Y6439080D01*
X60350635Y6439079D01*
X60456145Y6392492D01*
X60481932Y6389501D01*
X60481935Y6389500D01*
X60481936Y6389500D01*
X62098065Y6389500D01*
X62098066Y6389501D01*
X62123855Y6392492D01*
X62229365Y6439079D01*
X62310921Y6520635D01*
X62357508Y6626145D01*
X62360500Y6651936D01*
X62360500Y8268064D01*
X62357508Y8293855D01*
X62310921Y8399365D01*
X62310920Y8399366D01*
X62310919Y8399368D01*
X62229367Y8480920D01*
X62229365Y8480921D01*
X62123856Y8527508D01*
X62123851Y8527509D01*
X62098070Y8530500D01*
X62098064Y8530500D01*
X61999500Y8530500D01*
X61931379Y8550502D01*
X61884886Y8604158D01*
X61873500Y8656500D01*
X61873500Y8803500D01*
X61893502Y8871621D01*
X61947158Y8918114D01*
X61999500Y8929500D01*
X62098065Y8929500D01*
X62098066Y8929501D01*
X62123855Y8932492D01*
X62229365Y8979079D01*
X62310921Y9060635D01*
X62357508Y9166145D01*
X62360500Y9191936D01*
X62360500Y10808064D01*
X62357508Y10833855D01*
X62310921Y10939365D01*
X62310920Y10939366D01*
X62310919Y10939368D01*
X62229367Y11020920D01*
X62229365Y11020921D01*
X62123856Y11067508D01*
X62123851Y11067509D01*
X62098070Y11070500D01*
X62098064Y11070500D01*
X61999500Y11070500D01*
X61931379Y11090502D01*
X61884886Y11144158D01*
X61873500Y11196500D01*
X61873500Y11199600D01*
X61873501Y11199613D01*
X61873501Y11350237D01*
X61873500Y11350241D01*
X61837143Y11485923D01*
X61837142Y11485926D01*
X61766909Y11607574D01*
X61766901Y11607584D01*
X61663188Y11711297D01*
X61663165Y11711318D01*
X57488437Y15886046D01*
X57488425Y15886060D01*
X57381925Y15992560D01*
X57381915Y15992568D01*
X57321091Y16027684D01*
X57321090Y16027684D01*
X57260263Y16062803D01*
X57124582Y16099159D01*
X57124579Y16099159D01*
X56984105Y16099159D01*
X56976387Y16099159D01*
X56976371Y16099158D01*
X56856607Y16099158D01*
X56788486Y16119160D01*
X56741993Y16172816D01*
X56731889Y16243090D01*
X56761383Y16307670D01*
X56776668Y16322553D01*
X56780043Y16325325D01*
X56780052Y16325330D01*
X56878738Y16424016D01*
X56956274Y16540057D01*
X56963099Y16556536D01*
X57009681Y16668990D01*
X57009681Y16668993D01*
X57009683Y16668996D01*
X57035363Y16798101D01*
X57068270Y16861010D01*
X57069789Y16862556D01*
X58936931Y18729699D01*
X58936947Y18729711D01*
X59045310Y18838074D01*
X59045317Y18838081D01*
X59096733Y18927138D01*
X59115553Y18959734D01*
X59151911Y19095421D01*
X59151911Y19235895D01*
X59151911Y19243612D01*
X59151910Y19243630D01*
X59151910Y19348071D01*
X67329500Y19348071D01*
X67329500Y17731930D01*
X67332491Y17706149D01*
X67332492Y17706144D01*
X67379079Y17600635D01*
X67379080Y17600633D01*
X67460632Y17519081D01*
X67460634Y17519080D01*
X67460635Y17519079D01*
X67566145Y17472492D01*
X67591932Y17469501D01*
X67591935Y17469500D01*
X67591936Y17469500D01*
X69208065Y17469500D01*
X69208066Y17469501D01*
X69233855Y17472492D01*
X69339365Y17519079D01*
X69420921Y17600635D01*
X69467508Y17706145D01*
X69470500Y17731936D01*
X69470500Y19348064D01*
X69470499Y19348071D01*
X69869500Y19348071D01*
X69869500Y17731930D01*
X69872491Y17706149D01*
X69872492Y17706144D01*
X69919079Y17600635D01*
X69919080Y17600633D01*
X70000632Y17519081D01*
X70000634Y17519080D01*
X70000635Y17519079D01*
X70106145Y17472492D01*
X70131932Y17469501D01*
X70131935Y17469500D01*
X70131936Y17469500D01*
X71748065Y17469500D01*
X71748066Y17469501D01*
X71773855Y17472492D01*
X71879365Y17519079D01*
X71960921Y17600635D01*
X72007508Y17706145D01*
X72010500Y17731936D01*
X72010500Y19348064D01*
X72007508Y19373855D01*
X71960921Y19479365D01*
X71960920Y19479366D01*
X71960919Y19479368D01*
X71879367Y19560920D01*
X71879365Y19560921D01*
X71773856Y19607508D01*
X71773851Y19607509D01*
X71748070Y19610500D01*
X71748064Y19610500D01*
X70131936Y19610500D01*
X70131929Y19610500D01*
X70106148Y19607509D01*
X70106143Y19607508D01*
X70000634Y19560921D01*
X70000632Y19560920D01*
X69919080Y19479368D01*
X69919079Y19479366D01*
X69872492Y19373857D01*
X69872491Y19373852D01*
X69869500Y19348071D01*
X69470499Y19348071D01*
X69467508Y19373855D01*
X69420921Y19479365D01*
X69420920Y19479366D01*
X69420919Y19479368D01*
X69339367Y19560920D01*
X69339365Y19560921D01*
X69233856Y19607508D01*
X69233851Y19607509D01*
X69208070Y19610500D01*
X69208064Y19610500D01*
X67591936Y19610500D01*
X67591929Y19610500D01*
X67566148Y19607509D01*
X67566143Y19607508D01*
X67460634Y19560921D01*
X67460632Y19560920D01*
X67379080Y19479368D01*
X67379079Y19479366D01*
X67332492Y19373857D01*
X67332491Y19373852D01*
X67329500Y19348071D01*
X59151910Y19348071D01*
X59151910Y19530610D01*
X59171912Y19598731D01*
X59173145Y19600612D01*
X59177753Y19607508D01*
X59246274Y19710057D01*
X59299683Y19838996D01*
X59326910Y19975877D01*
X59326910Y20115439D01*
X59299683Y20252320D01*
X59291558Y20271936D01*
X59246276Y20381255D01*
X59246274Y20381259D01*
X59216009Y20426554D01*
X59168738Y20497300D01*
X59070052Y20595986D01*
X58954011Y20673522D01*
X58954012Y20673522D01*
X58954010Y20673523D01*
X58954006Y20673525D01*
X58825079Y20726929D01*
X58825074Y20726930D01*
X58825072Y20726931D01*
X58742353Y20743385D01*
X58688193Y20754158D01*
X58688191Y20754158D01*
X58548629Y20754158D01*
X58548626Y20754158D01*
X58467384Y20737998D01*
X58411748Y20726931D01*
X58411746Y20726931D01*
X58411740Y20726929D01*
X58282813Y20673525D01*
X58282809Y20673523D01*
X58166772Y20595989D01*
X58166765Y20595984D01*
X58068084Y20497303D01*
X58068079Y20497296D01*
X57990545Y20381259D01*
X57990543Y20381255D01*
X57937139Y20252328D01*
X57937137Y20252322D01*
X57937137Y20252320D01*
X57935910Y20246149D01*
X57909910Y20115442D01*
X57909910Y19975875D01*
X57920683Y19921715D01*
X57937137Y19838996D01*
X57937138Y19838994D01*
X57937139Y19838989D01*
X57990543Y19710062D01*
X57990545Y19710058D01*
X57990546Y19710057D01*
X58059066Y19607509D01*
X58063675Y19600612D01*
X58084890Y19532859D01*
X58084910Y19530610D01*
X58084910Y19438831D01*
X58064908Y19370710D01*
X58048005Y19349736D01*
X56315364Y17617096D01*
X56253052Y17583070D01*
X56250852Y17582612D01*
X56145650Y17561686D01*
X56121748Y17556931D01*
X56121747Y17556931D01*
X56121739Y17556929D01*
X55992813Y17503525D01*
X55992809Y17503523D01*
X55876772Y17425989D01*
X55876765Y17425984D01*
X55778084Y17327303D01*
X55778079Y17327296D01*
X55700545Y17211259D01*
X55700543Y17211255D01*
X55647139Y17082328D01*
X55619910Y16945442D01*
X55619910Y16945439D01*
X55619910Y16805877D01*
X55647137Y16668996D01*
X55647138Y16668994D01*
X55647139Y16668989D01*
X55700543Y16540062D01*
X55700545Y16540058D01*
X55700546Y16540057D01*
X55778082Y16424016D01*
X55876768Y16325330D01*
X55876771Y16325328D01*
X55880152Y16322553D01*
X55920118Y16263873D01*
X55922014Y16192902D01*
X55885240Y16132172D01*
X55821470Y16100964D01*
X55800213Y16099158D01*
X55603459Y16099158D01*
X55535338Y16119160D01*
X55533458Y16120393D01*
X55424015Y16193520D01*
X55424006Y16193525D01*
X55295079Y16246929D01*
X55295074Y16246930D01*
X55295072Y16246931D01*
X55209898Y16263873D01*
X55158193Y16274158D01*
X55158191Y16274158D01*
X55018629Y16274158D01*
X55018626Y16274158D01*
X54937384Y16257998D01*
X54881748Y16246931D01*
X54881746Y16246931D01*
X54881740Y16246929D01*
X54752813Y16193525D01*
X54752809Y16193523D01*
X54636772Y16115989D01*
X54636770Y16115988D01*
X54556844Y16036062D01*
X54494531Y16002037D01*
X54467749Y15999158D01*
X53703459Y15999158D01*
X53635338Y16019160D01*
X53633458Y16020393D01*
X53524015Y16093520D01*
X53524006Y16093525D01*
X53395079Y16146929D01*
X53395074Y16146930D01*
X53395072Y16146931D01*
X53293383Y16167158D01*
X53258193Y16174158D01*
X53258191Y16174158D01*
X53118629Y16174158D01*
X53118626Y16174158D01*
X53037384Y16157998D01*
X52981748Y16146931D01*
X52981746Y16146931D01*
X52981740Y16146929D01*
X52852813Y16093525D01*
X52852809Y16093523D01*
X52736772Y16015989D01*
X52736765Y16015984D01*
X52638084Y15917303D01*
X52638079Y15917296D01*
X52560545Y15801259D01*
X52560543Y15801255D01*
X52507139Y15672328D01*
X52479910Y15535442D01*
X5830500Y15535442D01*
X5830500Y18738071D01*
X9199500Y18738071D01*
X9199500Y17121930D01*
X9202491Y17096149D01*
X9202492Y17096144D01*
X9249079Y16990635D01*
X9249080Y16990633D01*
X9330632Y16909081D01*
X9330634Y16909080D01*
X9330635Y16909079D01*
X9436145Y16862492D01*
X9461932Y16859501D01*
X9461935Y16859500D01*
X9461936Y16859500D01*
X11078065Y16859500D01*
X11078066Y16859501D01*
X11103855Y16862492D01*
X11209365Y16909079D01*
X11290921Y16990635D01*
X11337508Y17096145D01*
X11340500Y17121936D01*
X11340500Y18738064D01*
X11340499Y18738071D01*
X11739500Y18738071D01*
X11739500Y17121930D01*
X11742491Y17096149D01*
X11742492Y17096144D01*
X11789079Y16990635D01*
X11789080Y16990633D01*
X11870632Y16909081D01*
X11870634Y16909080D01*
X11870635Y16909079D01*
X11976145Y16862492D01*
X12001932Y16859501D01*
X12001935Y16859500D01*
X12001936Y16859500D01*
X13618065Y16859500D01*
X13618066Y16859501D01*
X13643855Y16862492D01*
X13749365Y16909079D01*
X13830921Y16990635D01*
X13877508Y17096145D01*
X13880500Y17121936D01*
X13880500Y18638534D01*
X32970250Y18638534D01*
X32970250Y18498967D01*
X32981023Y18444807D01*
X32997477Y18362088D01*
X32997478Y18362086D01*
X32997479Y18362081D01*
X33050883Y18233154D01*
X33050885Y18233150D01*
X33050886Y18233149D01*
X33128422Y18117108D01*
X33227108Y18018422D01*
X33343149Y17940886D01*
X33343153Y17940884D01*
X33472080Y17887480D01*
X33472081Y17887480D01*
X33472088Y17887477D01*
X33608969Y17860250D01*
X33608970Y17860250D01*
X33748530Y17860250D01*
X33748531Y17860250D01*
X33885412Y17887477D01*
X34014351Y17940886D01*
X34130392Y18018422D01*
X34229078Y18117108D01*
X34306614Y18233149D01*
X34313439Y18249628D01*
X34360021Y18362082D01*
X34360021Y18362085D01*
X34360023Y18362088D01*
X34385702Y18491191D01*
X34418609Y18554099D01*
X34420131Y18555649D01*
X35157201Y19292720D01*
X35157211Y19292727D01*
X35266901Y19402417D01*
X35266907Y19402423D01*
X35337143Y19524077D01*
X35373500Y19659763D01*
X35373500Y20814952D01*
X35393502Y20883073D01*
X35394735Y20884954D01*
X35399515Y20892108D01*
X35467864Y20994399D01*
X35521273Y21123338D01*
X35548500Y21260219D01*
X35548500Y21399781D01*
X35521273Y21536662D01*
X35521270Y21536670D01*
X35467866Y21665597D01*
X35467864Y21665601D01*
X35458679Y21679347D01*
X35390328Y21781642D01*
X35291642Y21880328D01*
X35175601Y21957864D01*
X35175602Y21957864D01*
X35175600Y21957865D01*
X35175596Y21957867D01*
X35046669Y22011271D01*
X35046664Y22011272D01*
X35046662Y22011273D01*
X34963943Y22027727D01*
X34909783Y22038500D01*
X34909781Y22038500D01*
X34770219Y22038500D01*
X34770216Y22038500D01*
X34688974Y22022340D01*
X34633338Y22011273D01*
X34633336Y22011273D01*
X34633330Y22011271D01*
X34504403Y21957867D01*
X34504399Y21957865D01*
X34388362Y21880331D01*
X34388355Y21880326D01*
X34289674Y21781645D01*
X34289669Y21781638D01*
X34212135Y21665601D01*
X34212133Y21665597D01*
X34158729Y21536670D01*
X34131500Y21399784D01*
X34131500Y21399781D01*
X34131500Y21260219D01*
X34158727Y21123338D01*
X34158728Y21123336D01*
X34158729Y21123331D01*
X34212133Y20994404D01*
X34212135Y20994400D01*
X34285265Y20884954D01*
X34306480Y20817201D01*
X34306500Y20814952D01*
X34306500Y20003173D01*
X34286498Y19935052D01*
X34269599Y19914083D01*
X33966017Y19610500D01*
X33665704Y19310187D01*
X33603392Y19276162D01*
X33601192Y19275704D01*
X33495990Y19254778D01*
X33472088Y19250023D01*
X33472087Y19250023D01*
X33472079Y19250021D01*
X33343153Y19196617D01*
X33343149Y19196615D01*
X33227112Y19119081D01*
X33227105Y19119076D01*
X33128424Y19020395D01*
X33128419Y19020388D01*
X33050885Y18904351D01*
X33050883Y18904347D01*
X32997479Y18775420D01*
X32997477Y18775414D01*
X32997477Y18775412D01*
X32990050Y18738071D01*
X32970250Y18638534D01*
X13880500Y18638534D01*
X13880500Y18738064D01*
X13877508Y18763855D01*
X13830921Y18869365D01*
X13830920Y18869366D01*
X13830919Y18869368D01*
X13749367Y18950920D01*
X13749365Y18950921D01*
X13643856Y18997508D01*
X13643851Y18997509D01*
X13618070Y19000500D01*
X13618064Y19000500D01*
X12001936Y19000500D01*
X12001929Y19000500D01*
X11976148Y18997509D01*
X11976143Y18997508D01*
X11870634Y18950921D01*
X11870632Y18950920D01*
X11789080Y18869368D01*
X11789079Y18869366D01*
X11742492Y18763857D01*
X11742491Y18763852D01*
X11739500Y18738071D01*
X11340499Y18738071D01*
X11337508Y18763855D01*
X11290921Y18869365D01*
X11290920Y18869366D01*
X11290919Y18869368D01*
X11209367Y18950920D01*
X11209365Y18950921D01*
X11103856Y18997508D01*
X11103851Y18997509D01*
X11078070Y19000500D01*
X11078064Y19000500D01*
X9461936Y19000500D01*
X9461929Y19000500D01*
X9436148Y18997509D01*
X9436143Y18997508D01*
X9330634Y18950921D01*
X9330632Y18950920D01*
X9249080Y18869368D01*
X9249079Y18869366D01*
X9202492Y18763857D01*
X9202491Y18763852D01*
X9199500Y18738071D01*
X5830500Y18738071D01*
X5830500Y29934949D01*
X9356500Y29934949D01*
X9356500Y29725051D01*
X9386784Y29533852D01*
X9389337Y29517734D01*
X9447802Y29337794D01*
X9454197Y29318114D01*
X9549489Y29131094D01*
X9672863Y28961283D01*
X9672865Y28961281D01*
X9672867Y28961278D01*
X9821277Y28812868D01*
X9821280Y28812866D01*
X9821283Y28812863D01*
X9991094Y28689489D01*
X10178114Y28594197D01*
X10377738Y28529336D01*
X10585051Y28496500D01*
X10585053Y28496500D01*
X10794947Y28496500D01*
X10794949Y28496500D01*
X11002262Y28529336D01*
X11201886Y28594197D01*
X11388906Y28689489D01*
X11558717Y28812863D01*
X11707137Y28961283D01*
X11830511Y29131094D01*
X11925803Y29318114D01*
X11990664Y29517738D01*
X12023500Y29725051D01*
X12023500Y29934949D01*
X11990664Y30142262D01*
X11925803Y30341886D01*
X11830511Y30528906D01*
X11707137Y30698717D01*
X11707134Y30698720D01*
X11707132Y30698723D01*
X11558722Y30847133D01*
X11558719Y30847135D01*
X11558717Y30847137D01*
X11388906Y30970511D01*
X11201886Y31065803D01*
X11201883Y31065804D01*
X11201881Y31065805D01*
X11002266Y31130663D01*
X11002264Y31130664D01*
X11002262Y31130664D01*
X10794949Y31163500D01*
X10585051Y31163500D01*
X10377738Y31130664D01*
X10377736Y31130664D01*
X10377733Y31130663D01*
X10178118Y31065805D01*
X10178112Y31065802D01*
X9991090Y30970509D01*
X9821280Y30847135D01*
X9821277Y30847133D01*
X9672867Y30698723D01*
X9672865Y30698720D01*
X9549491Y30528910D01*
X9454198Y30341888D01*
X9454195Y30341882D01*
X9389337Y30142267D01*
X9389336Y30142264D01*
X9389336Y30142262D01*
X9356500Y29934949D01*
X5830500Y29934949D01*
X5830500Y33113991D01*
X20166499Y33113991D01*
X20166499Y32963363D01*
X20166500Y32963350D01*
X20166500Y31121722D01*
X20166499Y31121704D01*
X20166499Y30973510D01*
X20202854Y30837833D01*
X20202856Y30837829D01*
X20202857Y30837826D01*
X20215299Y30816276D01*
X20215300Y30816274D01*
X20273090Y30716177D01*
X20273098Y30716167D01*
X20379598Y30609667D01*
X20379612Y30609655D01*
X20668682Y30320585D01*
X20668703Y30320562D01*
X20772416Y30216849D01*
X20772420Y30216846D01*
X20772423Y30216843D01*
X20894077Y30146607D01*
X21029763Y30110250D01*
X21635581Y30110250D01*
X21703702Y30090248D01*
X21705583Y30089015D01*
X21816899Y30014636D01*
X21816903Y30014634D01*
X21945830Y29961230D01*
X21945831Y29961230D01*
X21945838Y29961227D01*
X22082719Y29934000D01*
X22082720Y29934000D01*
X22222280Y29934000D01*
X22222281Y29934000D01*
X22359162Y29961227D01*
X22488101Y30014636D01*
X22604142Y30092172D01*
X22702828Y30190858D01*
X22743691Y30252015D01*
X22798167Y30297542D01*
X22868611Y30306390D01*
X22932655Y30275749D01*
X22937551Y30271107D01*
X23029595Y30179063D01*
X23063621Y30116751D01*
X23066500Y30089968D01*
X23066500Y26258799D01*
X23046498Y26190678D01*
X23045265Y26188798D01*
X22972138Y26079356D01*
X22972133Y26079347D01*
X22918729Y25950420D01*
X22891500Y25813534D01*
X22891500Y25673967D01*
X22894894Y25656904D01*
X22918727Y25537088D01*
X22918728Y25537086D01*
X22918729Y25537081D01*
X22972133Y25408154D01*
X22972135Y25408150D01*
X23001210Y25364636D01*
X23049672Y25292108D01*
X23148358Y25193422D01*
X23264399Y25115886D01*
X23264403Y25115884D01*
X23393330Y25062480D01*
X23393331Y25062480D01*
X23393338Y25062477D01*
X23530219Y25035250D01*
X23530220Y25035250D01*
X23669780Y25035250D01*
X23669781Y25035250D01*
X23806662Y25062477D01*
X23935601Y25115886D01*
X24010497Y25165931D01*
X24078250Y25187145D01*
X24146717Y25168362D01*
X24194160Y25115545D01*
X24206499Y25061165D01*
X24206499Y25039760D01*
X24242854Y24904083D01*
X24242859Y24904071D01*
X24261765Y24871326D01*
X24313090Y24782427D01*
X24313098Y24782417D01*
X24419598Y24675917D01*
X24419612Y24675905D01*
X25338682Y23756835D01*
X25338703Y23756812D01*
X25442415Y23653100D01*
X25442418Y23653098D01*
X25442423Y23653093D01*
X25485266Y23628358D01*
X25564076Y23582857D01*
X25564078Y23582856D01*
X25699759Y23546500D01*
X25699763Y23546499D01*
X25847955Y23546499D01*
X25847971Y23546500D01*
X27224951Y23546500D01*
X27293072Y23526498D01*
X27294952Y23525265D01*
X27404394Y23452139D01*
X27404403Y23452134D01*
X27533331Y23398729D01*
X27533335Y23398729D01*
X27533338Y23398727D01*
X27608378Y23383801D01*
X27671288Y23350894D01*
X27706420Y23289199D01*
X27702620Y23218304D01*
X27672892Y23171127D01*
X25891312Y21389547D01*
X25829000Y21355521D01*
X25758185Y21360586D01*
X25741331Y21369209D01*
X25741058Y21368697D01*
X25735596Y21371617D01*
X25606669Y21425021D01*
X25606664Y21425022D01*
X25606662Y21425023D01*
X25523943Y21441477D01*
X25469783Y21452250D01*
X25469781Y21452250D01*
X25330219Y21452250D01*
X25330216Y21452250D01*
X25248974Y21436090D01*
X25193338Y21425023D01*
X25193336Y21425023D01*
X25193330Y21425021D01*
X25064403Y21371617D01*
X25064399Y21371615D01*
X24948362Y21294081D01*
X24948355Y21294076D01*
X24849674Y21195395D01*
X24849669Y21195388D01*
X24772135Y21079351D01*
X24772133Y21079347D01*
X24718729Y20950420D01*
X24691500Y20813534D01*
X24691500Y20673967D01*
X24702273Y20619807D01*
X24718727Y20537088D01*
X24718728Y20537086D01*
X24718729Y20537081D01*
X24772133Y20408154D01*
X24772135Y20408150D01*
X24772136Y20408149D01*
X24849672Y20292108D01*
X24948358Y20193422D01*
X25064395Y20115889D01*
X25064399Y20115886D01*
X25064403Y20115884D01*
X25193330Y20062480D01*
X25193331Y20062480D01*
X25193338Y20062477D01*
X25330219Y20035250D01*
X25330220Y20035250D01*
X25469780Y20035250D01*
X25469781Y20035250D01*
X25606662Y20062477D01*
X25735601Y20115886D01*
X25772641Y20140635D01*
X25845048Y20189015D01*
X25912800Y20210230D01*
X25915049Y20210250D01*
X25922029Y20210250D01*
X25922045Y20210249D01*
X25929763Y20210249D01*
X26070237Y20210249D01*
X26205924Y20246607D01*
X26284734Y20292108D01*
X26327577Y20316843D01*
X26426907Y20416173D01*
X26437274Y20426540D01*
X26437281Y20426550D01*
X30117200Y24106469D01*
X30117210Y24106476D01*
X30226901Y24216167D01*
X30226907Y24216173D01*
X30297143Y24337827D01*
X30303328Y24360908D01*
X30303329Y24360909D01*
X30328233Y24453852D01*
X30333501Y24473513D01*
X30333501Y24613987D01*
X30333501Y24621704D01*
X30333500Y24621722D01*
X30333500Y26062284D01*
X32631500Y26062284D01*
X32631500Y26062281D01*
X32631500Y25922719D01*
X32658727Y25785838D01*
X32658728Y25785836D01*
X32658729Y25785831D01*
X32712133Y25656904D01*
X32712135Y25656900D01*
X32712136Y25656899D01*
X32789672Y25540858D01*
X32888358Y25442172D01*
X32987128Y25376176D01*
X33004399Y25364636D01*
X33004403Y25364634D01*
X33133330Y25311230D01*
X33133331Y25311230D01*
X33133338Y25311227D01*
X33252150Y25287594D01*
X33262441Y25285547D01*
X33325350Y25252639D01*
X33326954Y25251063D01*
X34221182Y24356835D01*
X34221203Y24356812D01*
X34324916Y24253099D01*
X34324921Y24253095D01*
X34324923Y24253093D01*
X34388871Y24216173D01*
X34446578Y24182856D01*
X34579990Y24147108D01*
X34582263Y24146499D01*
X34730455Y24146499D01*
X34730471Y24146500D01*
X37984951Y24146500D01*
X38053072Y24126498D01*
X38054952Y24125265D01*
X38164394Y24052139D01*
X38164403Y24052134D01*
X38293330Y23998730D01*
X38293331Y23998730D01*
X38293338Y23998727D01*
X38430219Y23971500D01*
X38430220Y23971500D01*
X38569780Y23971500D01*
X38569781Y23971500D01*
X38706662Y23998727D01*
X38835601Y24052136D01*
X38951642Y24129672D01*
X39050328Y24228358D01*
X39127864Y24344399D01*
X39181273Y24473338D01*
X39208500Y24610219D01*
X39208500Y24749781D01*
X39181273Y24886662D01*
X39127864Y25015601D01*
X39050328Y25131642D01*
X38951642Y25230328D01*
X38859174Y25292113D01*
X38835600Y25307865D01*
X38835596Y25307867D01*
X38706669Y25361271D01*
X38706664Y25361272D01*
X38706662Y25361273D01*
X38623943Y25377727D01*
X38569783Y25388500D01*
X38569781Y25388500D01*
X38430219Y25388500D01*
X38430216Y25388500D01*
X38368261Y25376176D01*
X38293338Y25361273D01*
X38293336Y25361273D01*
X38293330Y25361271D01*
X38164403Y25307867D01*
X38164394Y25307862D01*
X38054952Y25234735D01*
X37987200Y25213520D01*
X37984951Y25213500D01*
X34925673Y25213500D01*
X34857552Y25233502D01*
X34836578Y25250405D01*
X34081437Y26005546D01*
X34047411Y26067858D01*
X34046953Y26070059D01*
X34044906Y26080350D01*
X34021273Y26199162D01*
X34010207Y26225877D01*
X33967866Y26328097D01*
X33967864Y26328101D01*
X33942916Y26365438D01*
X33890328Y26444142D01*
X33791642Y26542828D01*
X33675601Y26620364D01*
X33675602Y26620364D01*
X33675600Y26620365D01*
X33675596Y26620367D01*
X33546669Y26673771D01*
X33546664Y26673772D01*
X33546662Y26673773D01*
X33454485Y26692108D01*
X33409783Y26701000D01*
X33409781Y26701000D01*
X33270219Y26701000D01*
X33270216Y26701000D01*
X33207371Y26688499D01*
X33133338Y26673773D01*
X33133336Y26673773D01*
X33133330Y26673771D01*
X33004403Y26620367D01*
X33004399Y26620365D01*
X32888362Y26542831D01*
X32888355Y26542826D01*
X32789674Y26444145D01*
X32789669Y26444138D01*
X32712135Y26328101D01*
X32712133Y26328097D01*
X32658729Y26199170D01*
X32658727Y26199164D01*
X32658727Y26199162D01*
X32647660Y26143526D01*
X32631500Y26062284D01*
X30333500Y26062284D01*
X30333500Y26670577D01*
X30353502Y26738698D01*
X30370399Y26759667D01*
X30913048Y27302316D01*
X30975357Y27336338D01*
X30977558Y27336797D01*
X31106662Y27362477D01*
X31235601Y27415886D01*
X31351642Y27493422D01*
X31450328Y27592108D01*
X31527864Y27708149D01*
X31581273Y27837088D01*
X31608500Y27973969D01*
X31608500Y28113531D01*
X31581273Y28250412D01*
X31580559Y28252136D01*
X31527866Y28379347D01*
X31527864Y28379351D01*
X31515570Y28397750D01*
X31450328Y28495392D01*
X31351642Y28594078D01*
X31263992Y28652644D01*
X31235600Y28671615D01*
X31235596Y28671617D01*
X31106669Y28725021D01*
X31106664Y28725022D01*
X31106662Y28725023D01*
X31023943Y28741477D01*
X30969783Y28752250D01*
X30969781Y28752250D01*
X30830219Y28752250D01*
X30830216Y28752250D01*
X30753204Y28736931D01*
X30693338Y28725023D01*
X30693336Y28725023D01*
X30693330Y28725021D01*
X30564403Y28671617D01*
X30564399Y28671615D01*
X30448362Y28594081D01*
X30448355Y28594076D01*
X30349674Y28495395D01*
X30349669Y28495388D01*
X30272135Y28379351D01*
X30272133Y28379347D01*
X30218729Y28250420D01*
X30218727Y28250414D01*
X30218727Y28250412D01*
X30209381Y28203425D01*
X30193047Y28121311D01*
X30160139Y28058401D01*
X30158564Y28056798D01*
X29823535Y27721770D01*
X29472425Y27370659D01*
X29472423Y27370657D01*
X29438563Y27336797D01*
X29373094Y27271329D01*
X29373093Y27271327D01*
X29346951Y27226046D01*
X29339726Y27213532D01*
X29339725Y27213531D01*
X29302855Y27149672D01*
X29266499Y27013991D01*
X29266499Y26863363D01*
X29266500Y26863350D01*
X29266500Y24816925D01*
X29246498Y24748804D01*
X29229595Y24727830D01*
X28648873Y24147108D01*
X28586561Y24113082D01*
X28515746Y24118147D01*
X28458910Y24160694D01*
X28436199Y24211622D01*
X28435294Y24216173D01*
X28421273Y24286662D01*
X28421271Y24286665D01*
X28421271Y24286669D01*
X28367866Y24415597D01*
X28367861Y24415606D01*
X28294735Y24525048D01*
X28273520Y24592800D01*
X28273500Y24595049D01*
X28273500Y29706827D01*
X28293502Y29774948D01*
X28310405Y29795922D01*
X28761405Y30246922D01*
X28823717Y30280948D01*
X28894532Y30275883D01*
X28951368Y30233336D01*
X28976179Y30166816D01*
X28976500Y30157827D01*
X28976500Y30065217D01*
X28986561Y30014636D01*
X29003727Y29928338D01*
X29003728Y29928336D01*
X29003729Y29928331D01*
X29057133Y29799404D01*
X29057135Y29799400D01*
X29084118Y29759017D01*
X29134672Y29683358D01*
X29233358Y29584672D01*
X29309408Y29533857D01*
X29349399Y29507136D01*
X29349403Y29507134D01*
X29478330Y29453730D01*
X29478331Y29453730D01*
X29478338Y29453727D01*
X29615219Y29426500D01*
X29615220Y29426500D01*
X29754780Y29426500D01*
X29754781Y29426500D01*
X29891662Y29453727D01*
X30020601Y29507136D01*
X30136642Y29584672D01*
X30166754Y29614784D01*
X32816500Y29614784D01*
X32816500Y29475217D01*
X32819906Y29458095D01*
X32843727Y29338338D01*
X32843728Y29338336D01*
X32843729Y29338331D01*
X32897133Y29209404D01*
X32897135Y29209400D01*
X32899811Y29205395D01*
X32974672Y29093358D01*
X33073358Y28994672D01*
X33147599Y28945066D01*
X33189399Y28917136D01*
X33189403Y28917134D01*
X33318330Y28863730D01*
X33318331Y28863730D01*
X33318338Y28863727D01*
X33455219Y28836500D01*
X33455220Y28836500D01*
X33594780Y28836500D01*
X33594781Y28836500D01*
X33731662Y28863727D01*
X33860601Y28917136D01*
X33976642Y28994672D01*
X34075328Y29093358D01*
X34130570Y29176034D01*
X38954000Y29176034D01*
X38954000Y29036467D01*
X38958116Y29015775D01*
X38981227Y28899588D01*
X38981228Y28899586D01*
X38981229Y28899581D01*
X39034633Y28770654D01*
X39034635Y28770650D01*
X39065122Y28725023D01*
X39112172Y28654608D01*
X39210858Y28555922D01*
X39326899Y28478386D01*
X39326903Y28478384D01*
X39455830Y28424980D01*
X39455831Y28424980D01*
X39455838Y28424977D01*
X39592719Y28397750D01*
X39592720Y28397750D01*
X39732280Y28397750D01*
X39732281Y28397750D01*
X39869162Y28424977D01*
X39998101Y28478386D01*
X40114142Y28555922D01*
X40212828Y28654608D01*
X40290364Y28770649D01*
X40315971Y28832470D01*
X40360518Y28887749D01*
X40427882Y28910170D01*
X40432379Y28910250D01*
X46366827Y28910250D01*
X46434948Y28890248D01*
X46455922Y28873345D01*
X46898682Y28430585D01*
X46898691Y28430575D01*
X46903092Y28426174D01*
X46903093Y28426173D01*
X46935550Y28393716D01*
X46951216Y28374627D01*
X46999672Y28302108D01*
X47098358Y28203422D01*
X47181752Y28147700D01*
X47214399Y28125886D01*
X47214403Y28125884D01*
X47343330Y28072480D01*
X47343331Y28072480D01*
X47343338Y28072477D01*
X47480219Y28045250D01*
X47480220Y28045250D01*
X47619779Y28045250D01*
X47619781Y28045250D01*
X47633338Y28047947D01*
X47704052Y28041620D01*
X47760120Y27998066D01*
X47783740Y27931114D01*
X47781943Y27905962D01*
X47782107Y27905945D01*
X47781505Y27899833D01*
X47781503Y27899802D01*
X47781501Y27899794D01*
X47781500Y27899780D01*
X47781500Y27754029D01*
X47779250Y27754029D01*
X47767878Y27694190D01*
X47744832Y27662540D01*
X47671450Y27589156D01*
X47609138Y27555130D01*
X47582353Y27552250D01*
X46545327Y27552250D01*
X46477206Y27572252D01*
X46455376Y27591687D01*
X46454705Y27591015D01*
X46413227Y27632493D01*
X46351642Y27694078D01*
X46252652Y27760221D01*
X46235600Y27771615D01*
X46235596Y27771617D01*
X46106669Y27825021D01*
X46106664Y27825022D01*
X46106662Y27825023D01*
X46023943Y27841477D01*
X45969783Y27852250D01*
X45969781Y27852250D01*
X45830219Y27852250D01*
X45830216Y27852250D01*
X45753958Y27837081D01*
X45693338Y27825023D01*
X45693336Y27825023D01*
X45693330Y27825021D01*
X45564403Y27771617D01*
X45564399Y27771615D01*
X45448362Y27694081D01*
X45448355Y27694076D01*
X45349674Y27595395D01*
X45349669Y27595388D01*
X45272135Y27479351D01*
X45272133Y27479347D01*
X45218729Y27350420D01*
X45218727Y27350414D01*
X45218727Y27350412D01*
X45218080Y27347158D01*
X45191500Y27213534D01*
X45191500Y27213532D01*
X45191500Y27213531D01*
X45191500Y27073969D01*
X45218727Y26937088D01*
X45218728Y26937086D01*
X45218729Y26937081D01*
X45272133Y26808154D01*
X45272135Y26808150D01*
X45310379Y26750914D01*
X45349672Y26692108D01*
X45349674Y26692106D01*
X45358935Y26682845D01*
X45392961Y26620533D01*
X45387896Y26549718D01*
X45358935Y26504655D01*
X45349674Y26495395D01*
X45349669Y26495388D01*
X45272135Y26379351D01*
X45272133Y26379347D01*
X45218729Y26250420D01*
X45218727Y26250414D01*
X45218727Y26250412D01*
X45212738Y26220301D01*
X45191500Y26113534D01*
X45191500Y25973967D01*
X45201694Y25922719D01*
X45218727Y25837088D01*
X45218728Y25837086D01*
X45218729Y25837081D01*
X45272133Y25708154D01*
X45272135Y25708150D01*
X45345265Y25598704D01*
X45366480Y25530951D01*
X45366500Y25528702D01*
X45366500Y21858799D01*
X45346498Y21790678D01*
X45345265Y21788798D01*
X45272138Y21679356D01*
X45272133Y21679347D01*
X45218729Y21550420D01*
X45191500Y21413534D01*
X45191500Y21273967D01*
X45194235Y21260219D01*
X45218727Y21137088D01*
X45218728Y21137086D01*
X45218729Y21137081D01*
X45272133Y21008154D01*
X45272135Y21008150D01*
X45272136Y21008149D01*
X45349672Y20892108D01*
X45448358Y20793422D01*
X45507121Y20754158D01*
X45564399Y20715886D01*
X45564403Y20715884D01*
X45693330Y20662480D01*
X45693331Y20662480D01*
X45693338Y20662477D01*
X45830219Y20635250D01*
X45830220Y20635250D01*
X45969780Y20635250D01*
X45969781Y20635250D01*
X46106662Y20662477D01*
X46235601Y20715886D01*
X46351642Y20793422D01*
X46450328Y20892108D01*
X46527864Y21008149D01*
X46581273Y21137088D01*
X46608500Y21273969D01*
X46608500Y21413531D01*
X46581273Y21550412D01*
X46581270Y21550420D01*
X46527866Y21679347D01*
X46527861Y21679356D01*
X46454735Y21788798D01*
X46433520Y21856550D01*
X46433500Y21858799D01*
X46433500Y21888071D01*
X67329500Y21888071D01*
X67329500Y20271930D01*
X67332491Y20246149D01*
X67332492Y20246144D01*
X67379079Y20140635D01*
X67379080Y20140633D01*
X67460632Y20059081D01*
X67460634Y20059080D01*
X67460635Y20059079D01*
X67566145Y20012492D01*
X67591932Y20009501D01*
X67591935Y20009500D01*
X67591936Y20009500D01*
X69208065Y20009500D01*
X69208066Y20009501D01*
X69233855Y20012492D01*
X69339365Y20059079D01*
X69420921Y20140635D01*
X69467508Y20246145D01*
X69470500Y20271936D01*
X69470500Y21888064D01*
X69470499Y21888071D01*
X69869500Y21888071D01*
X69869500Y20271930D01*
X69872491Y20246149D01*
X69872492Y20246144D01*
X69919079Y20140635D01*
X69919080Y20140633D01*
X70000632Y20059081D01*
X70000634Y20059080D01*
X70000635Y20059079D01*
X70106145Y20012492D01*
X70131932Y20009501D01*
X70131935Y20009500D01*
X70131936Y20009500D01*
X71748065Y20009500D01*
X71748066Y20009501D01*
X71773855Y20012492D01*
X71879365Y20059079D01*
X71960921Y20140635D01*
X72007508Y20246145D01*
X72010500Y20271936D01*
X72010500Y21888064D01*
X72007508Y21913855D01*
X71960921Y22019365D01*
X71960920Y22019366D01*
X71960919Y22019368D01*
X71879367Y22100920D01*
X71879365Y22100921D01*
X71773856Y22147508D01*
X71773851Y22147509D01*
X71748070Y22150500D01*
X71748064Y22150500D01*
X70131936Y22150500D01*
X70131929Y22150500D01*
X70106148Y22147509D01*
X70106143Y22147508D01*
X70000634Y22100921D01*
X70000632Y22100920D01*
X69919080Y22019368D01*
X69919079Y22019366D01*
X69872492Y21913857D01*
X69872491Y21913852D01*
X69869500Y21888071D01*
X69470499Y21888071D01*
X69467508Y21913855D01*
X69420921Y22019365D01*
X69420920Y22019366D01*
X69420919Y22019368D01*
X69339367Y22100920D01*
X69339365Y22100921D01*
X69233856Y22147508D01*
X69233851Y22147509D01*
X69208070Y22150500D01*
X69208064Y22150500D01*
X67591936Y22150500D01*
X67591929Y22150500D01*
X67566148Y22147509D01*
X67566143Y22147508D01*
X67460634Y22100921D01*
X67460632Y22100920D01*
X67379080Y22019368D01*
X67379079Y22019366D01*
X67332492Y21913857D01*
X67332491Y21913852D01*
X67329500Y21888071D01*
X46433500Y21888071D01*
X46433500Y25528702D01*
X46453502Y25596823D01*
X46454735Y25598704D01*
X46465215Y25614388D01*
X46527864Y25708149D01*
X46581273Y25837088D01*
X46608500Y25973969D01*
X46608500Y26113531D01*
X46581273Y26250412D01*
X46567935Y26282613D01*
X46527866Y26379347D01*
X46527864Y26379351D01*
X46508377Y26408515D01*
X46450328Y26495392D01*
X46441065Y26504655D01*
X46407039Y26566967D01*
X46412104Y26637782D01*
X46441066Y26682847D01*
X46450328Y26692108D01*
X46450328Y26692109D01*
X46454708Y26696488D01*
X46456306Y26694889D01*
X46506594Y26729149D01*
X46545327Y26735250D01*
X47857528Y26735250D01*
X47857530Y26735250D01*
X47961425Y26763089D01*
X48054575Y26816869D01*
X48322536Y27084832D01*
X48384849Y27118856D01*
X48414029Y27120552D01*
X48414029Y27121500D01*
X48559780Y27121500D01*
X48559781Y27121500D01*
X48696662Y27148727D01*
X48825601Y27202136D01*
X48941642Y27279672D01*
X49040328Y27378358D01*
X49117864Y27494399D01*
X49171273Y27623338D01*
X49198500Y27760219D01*
X49198500Y27899781D01*
X49174404Y28020921D01*
X49180732Y28091632D01*
X49224286Y28147700D01*
X49291238Y28171319D01*
X49297983Y28171500D01*
X49409780Y28171500D01*
X49409781Y28171500D01*
X49546662Y28198727D01*
X49675601Y28252136D01*
X49791642Y28329672D01*
X49890328Y28428358D01*
X49967864Y28544399D01*
X50021273Y28673338D01*
X50048500Y28810219D01*
X50048500Y28949781D01*
X50048500Y28955971D01*
X50050757Y28955971D01*
X50062101Y29015775D01*
X50085169Y29047463D01*
X50151940Y29114234D01*
X50214252Y29148260D01*
X50285067Y29143195D01*
X50341903Y29100648D01*
X50366714Y29034128D01*
X50367035Y29025139D01*
X50367035Y25584457D01*
X50347033Y25516336D01*
X50345800Y25514456D01*
X50272673Y25405014D01*
X50272668Y25405005D01*
X50219264Y25276078D01*
X50219262Y25276072D01*
X50219262Y25276070D01*
X50210163Y25230326D01*
X50192035Y25139192D01*
X50192035Y25139189D01*
X50192035Y24999627D01*
X50219262Y24862746D01*
X50219263Y24862744D01*
X50219264Y24862739D01*
X50272668Y24733812D01*
X50272670Y24733808D01*
X50301608Y24690500D01*
X50350207Y24617766D01*
X50448893Y24519080D01*
X50546506Y24453857D01*
X50564934Y24441544D01*
X50564938Y24441542D01*
X50693865Y24388138D01*
X50693866Y24388138D01*
X50693873Y24388135D01*
X50830754Y24360908D01*
X50830755Y24360908D01*
X50970315Y24360908D01*
X50970316Y24360908D01*
X51107197Y24388135D01*
X51203610Y24428071D01*
X67329500Y24428071D01*
X67329500Y22811930D01*
X67332491Y22786149D01*
X67332492Y22786144D01*
X67379079Y22680635D01*
X67379080Y22680633D01*
X67460632Y22599081D01*
X67460634Y22599080D01*
X67460635Y22599079D01*
X67566145Y22552492D01*
X67591932Y22549501D01*
X67591935Y22549500D01*
X67591936Y22549500D01*
X69208065Y22549500D01*
X69208066Y22549501D01*
X69233855Y22552492D01*
X69339365Y22599079D01*
X69420921Y22680635D01*
X69467508Y22786145D01*
X69470500Y22811936D01*
X69470500Y24428064D01*
X69470499Y24428071D01*
X69869500Y24428071D01*
X69869500Y22811930D01*
X69872491Y22786149D01*
X69872492Y22786144D01*
X69919079Y22680635D01*
X69919080Y22680633D01*
X70000632Y22599081D01*
X70000634Y22599080D01*
X70000635Y22599079D01*
X70106145Y22552492D01*
X70131932Y22549501D01*
X70131935Y22549500D01*
X70131936Y22549500D01*
X71748065Y22549500D01*
X71748066Y22549501D01*
X71773855Y22552492D01*
X71879365Y22599079D01*
X71960921Y22680635D01*
X72007508Y22786145D01*
X72010500Y22811936D01*
X72010500Y24428064D01*
X72007508Y24453855D01*
X71960921Y24559365D01*
X71960920Y24559366D01*
X71960919Y24559368D01*
X71879367Y24640920D01*
X71879365Y24640921D01*
X71773856Y24687508D01*
X71773851Y24687509D01*
X71748070Y24690500D01*
X71748064Y24690500D01*
X70131936Y24690500D01*
X70131929Y24690500D01*
X70106148Y24687509D01*
X70106143Y24687508D01*
X70000634Y24640921D01*
X70000632Y24640920D01*
X69919080Y24559368D01*
X69919079Y24559366D01*
X69872492Y24453857D01*
X69872491Y24453852D01*
X69869500Y24428071D01*
X69470499Y24428071D01*
X69467508Y24453855D01*
X69420921Y24559365D01*
X69420920Y24559366D01*
X69420919Y24559368D01*
X69339367Y24640920D01*
X69339365Y24640921D01*
X69233856Y24687508D01*
X69233851Y24687509D01*
X69208070Y24690500D01*
X69208064Y24690500D01*
X67591936Y24690500D01*
X67591929Y24690500D01*
X67566148Y24687509D01*
X67566143Y24687508D01*
X67460634Y24640921D01*
X67460632Y24640920D01*
X67379080Y24559368D01*
X67379079Y24559366D01*
X67332492Y24453857D01*
X67332491Y24453852D01*
X67329500Y24428071D01*
X51203610Y24428071D01*
X51236136Y24441544D01*
X51352177Y24519080D01*
X51450863Y24617766D01*
X51528399Y24733807D01*
X51581808Y24862746D01*
X51609035Y24999627D01*
X51609035Y25139189D01*
X51581808Y25276070D01*
X51581805Y25276078D01*
X51528401Y25405005D01*
X51528396Y25405014D01*
X51455270Y25514456D01*
X51434055Y25582208D01*
X51434035Y25584457D01*
X51434035Y31748748D01*
X51454037Y31816869D01*
X51470940Y31837843D01*
X51506435Y31873338D01*
X51550863Y31917766D01*
X51628399Y32033807D01*
X51640667Y32063424D01*
X51681806Y32162740D01*
X51681806Y32162743D01*
X51681808Y32162746D01*
X51707487Y32291849D01*
X51740394Y32354757D01*
X51741922Y32356313D01*
X51907201Y32521593D01*
X51907211Y32521600D01*
X52016901Y32631290D01*
X52016907Y32631296D01*
X52087143Y32752950D01*
X52123500Y32888636D01*
X52123500Y34699784D01*
X52431500Y34699784D01*
X52431500Y34560217D01*
X52433052Y34552417D01*
X52458727Y34423338D01*
X52458728Y34423336D01*
X52458729Y34423331D01*
X52512133Y34294404D01*
X52512135Y34294400D01*
X52512136Y34294399D01*
X52558491Y34225023D01*
X52585265Y34184954D01*
X52606480Y34117201D01*
X52606500Y34114952D01*
X52606500Y32486237D01*
X52605422Y32469790D01*
X52604909Y32465894D01*
X52604909Y32315271D01*
X52604910Y32315258D01*
X52604910Y29313630D01*
X52604909Y29313612D01*
X52604909Y29165418D01*
X52641266Y29029735D01*
X52661509Y28994672D01*
X52661510Y28994672D01*
X52711500Y28908085D01*
X52711508Y28908075D01*
X52818008Y28801575D01*
X52818022Y28801563D01*
X55037092Y26582493D01*
X55037113Y26582470D01*
X55140826Y26478757D01*
X55140831Y26478753D01*
X55140833Y26478751D01*
X55140834Y26478750D01*
X55140836Y26478749D01*
X55216181Y26435249D01*
X55262484Y26408516D01*
X55262487Y26408515D01*
X55398173Y26372157D01*
X55546365Y26372157D01*
X55546381Y26372158D01*
X57225237Y26372158D01*
X57293358Y26352156D01*
X57314332Y26335253D01*
X57366972Y26282613D01*
X57400998Y26220301D01*
X57401456Y26218100D01*
X57406911Y26190678D01*
X57427137Y26088996D01*
X57427138Y26088994D01*
X57427139Y26088989D01*
X57480543Y25960062D01*
X57480545Y25960058D01*
X57505494Y25922719D01*
X57558082Y25844016D01*
X57656768Y25745330D01*
X57772809Y25667794D01*
X57772813Y25667792D01*
X57901740Y25614388D01*
X57901741Y25614388D01*
X57901748Y25614385D01*
X58038629Y25587158D01*
X58038630Y25587158D01*
X58178190Y25587158D01*
X58178191Y25587158D01*
X58315072Y25614385D01*
X58444011Y25667794D01*
X58560052Y25745330D01*
X58658738Y25844016D01*
X58736274Y25960057D01*
X58789683Y26088996D01*
X58816910Y26225877D01*
X58816910Y26365439D01*
X58789683Y26502320D01*
X58762905Y26566967D01*
X58736276Y26631255D01*
X58736274Y26631259D01*
X58731915Y26637782D01*
X58658738Y26747300D01*
X58560052Y26845986D01*
X58444011Y26923522D01*
X58444012Y26923522D01*
X58444010Y26923523D01*
X58444006Y26923525D01*
X58315079Y26976929D01*
X58315074Y26976930D01*
X58315072Y26976931D01*
X58263827Y26987125D01*
X58185968Y27002612D01*
X58123058Y27035520D01*
X58121455Y27037096D01*
X57932505Y27226046D01*
X57932493Y27226060D01*
X57825993Y27332560D01*
X57825983Y27332568D01*
X57746669Y27378359D01*
X57704339Y27402799D01*
X57704327Y27402804D01*
X57568650Y27439159D01*
X57568647Y27439159D01*
X57428173Y27439159D01*
X57420455Y27439159D01*
X57420439Y27439158D01*
X55741583Y27439158D01*
X55673462Y27459160D01*
X55652488Y27476063D01*
X53708815Y29419736D01*
X53674789Y29482048D01*
X53671910Y29508831D01*
X53671910Y30035442D01*
X57569910Y30035442D01*
X57569910Y29895875D01*
X57579495Y29847687D01*
X57597137Y29758996D01*
X57597138Y29758994D01*
X57597139Y29758989D01*
X57650543Y29630062D01*
X57650545Y29630058D01*
X57650546Y29630057D01*
X57728082Y29514016D01*
X57826768Y29415330D01*
X57877228Y29381614D01*
X57942809Y29337794D01*
X57942813Y29337792D01*
X58071740Y29284388D01*
X58071741Y29284388D01*
X58071748Y29284385D01*
X58208629Y29257158D01*
X58208630Y29257158D01*
X58253228Y29257158D01*
X58321349Y29237156D01*
X58367842Y29183500D01*
X58379228Y29131158D01*
X58379228Y29081948D01*
X58388275Y29036467D01*
X58405517Y28949784D01*
X58406456Y28945066D01*
X58435529Y28874879D01*
X58443118Y28804289D01*
X58411339Y28740802D01*
X58367341Y28710253D01*
X58302809Y28683522D01*
X58302807Y28683521D01*
X58186772Y28605989D01*
X58186765Y28605984D01*
X58088084Y28507303D01*
X58088079Y28507296D01*
X58010545Y28391259D01*
X58010543Y28391255D01*
X57957139Y28262328D01*
X57957139Y28262326D01*
X57957137Y28262320D01*
X57948772Y28220267D01*
X57929910Y28125442D01*
X57929910Y27985875D01*
X57932279Y27973967D01*
X57957137Y27848996D01*
X57957138Y27848994D01*
X57957139Y27848989D01*
X58010543Y27720062D01*
X58010545Y27720058D01*
X58048789Y27662822D01*
X58088082Y27604016D01*
X58186768Y27505330D01*
X58276168Y27445595D01*
X58302809Y27427794D01*
X58302813Y27427792D01*
X58431740Y27374388D01*
X58431741Y27374388D01*
X58431748Y27374385D01*
X58550560Y27350752D01*
X58560851Y27348705D01*
X58623760Y27315797D01*
X58625364Y27314221D01*
X58782750Y27156835D01*
X58782771Y27156812D01*
X58886484Y27053099D01*
X58886488Y27053096D01*
X58886491Y27053093D01*
X59008145Y26982857D01*
X59063353Y26968064D01*
X59143831Y26946499D01*
X59292023Y26946499D01*
X59292039Y26946500D01*
X67203500Y26946500D01*
X67271621Y26926498D01*
X67318114Y26872842D01*
X67329500Y26820500D01*
X67329500Y25351930D01*
X67332491Y25326149D01*
X67332492Y25326144D01*
X67379079Y25220635D01*
X67379080Y25220633D01*
X67460632Y25139081D01*
X67460634Y25139080D01*
X67460635Y25139079D01*
X67566145Y25092492D01*
X67591932Y25089501D01*
X67591935Y25089500D01*
X67591936Y25089500D01*
X69208065Y25089500D01*
X69208066Y25089501D01*
X69233855Y25092492D01*
X69339365Y25139079D01*
X69420921Y25220635D01*
X69467508Y25326145D01*
X69470500Y25351936D01*
X69470500Y26688499D01*
X69490502Y26756620D01*
X69544158Y26803113D01*
X69596500Y26814499D01*
X69658237Y26814499D01*
X69710887Y26828607D01*
X69781864Y26826919D01*
X69840660Y26787125D01*
X69868609Y26721861D01*
X69869500Y26706901D01*
X69869500Y25351930D01*
X69872491Y25326149D01*
X69872492Y25326144D01*
X69919079Y25220635D01*
X69919080Y25220633D01*
X70000632Y25139081D01*
X70000634Y25139080D01*
X70000635Y25139079D01*
X70106145Y25092492D01*
X70131932Y25089501D01*
X70131935Y25089500D01*
X70131936Y25089500D01*
X71748065Y25089500D01*
X71748066Y25089501D01*
X71773855Y25092492D01*
X71879365Y25139079D01*
X71960921Y25220635D01*
X72007508Y25326145D01*
X72010500Y25351936D01*
X72010500Y26968064D01*
X72007508Y26993855D01*
X71960921Y27099365D01*
X71960920Y27099366D01*
X71960919Y27099368D01*
X71879367Y27180920D01*
X71879365Y27180921D01*
X71773856Y27227508D01*
X71773851Y27227509D01*
X71748070Y27230500D01*
X71748064Y27230500D01*
X70529173Y27230500D01*
X70461052Y27250502D01*
X70414559Y27304158D01*
X70404455Y27374432D01*
X70433949Y27439012D01*
X70440078Y27445595D01*
X70587078Y27592595D01*
X70649390Y27626621D01*
X70676173Y27629500D01*
X71748065Y27629500D01*
X71748066Y27629501D01*
X71773855Y27632492D01*
X71879365Y27679079D01*
X71960921Y27760635D01*
X72007508Y27866145D01*
X72010500Y27891936D01*
X72010500Y29508064D01*
X72007508Y29533855D01*
X71960921Y29639365D01*
X71960920Y29639366D01*
X71960919Y29639368D01*
X71879367Y29720920D01*
X71879365Y29720921D01*
X71773856Y29767508D01*
X71773851Y29767509D01*
X71748070Y29770500D01*
X71748064Y29770500D01*
X70131936Y29770500D01*
X70131929Y29770500D01*
X70106148Y29767509D01*
X70106143Y29767508D01*
X70000634Y29720921D01*
X70000632Y29720920D01*
X69919080Y29639368D01*
X69919079Y29639366D01*
X69872492Y29533857D01*
X69872491Y29533852D01*
X69869500Y29508071D01*
X69869500Y28436173D01*
X69849498Y28368052D01*
X69832595Y28347078D01*
X69685595Y28200078D01*
X69623283Y28166052D01*
X69552468Y28171117D01*
X69495632Y28213664D01*
X69470821Y28280184D01*
X69470500Y28289173D01*
X69470500Y29508065D01*
X69470499Y29508071D01*
X69469810Y29514014D01*
X69467508Y29533855D01*
X69420921Y29639365D01*
X69420920Y29639366D01*
X69420919Y29639368D01*
X69339367Y29720920D01*
X69339365Y29720921D01*
X69233856Y29767508D01*
X69233851Y29767509D01*
X69208070Y29770500D01*
X69208064Y29770500D01*
X67591936Y29770500D01*
X67591929Y29770500D01*
X67566148Y29767509D01*
X67566143Y29767508D01*
X67460634Y29720921D01*
X67460632Y29720920D01*
X67379080Y29639368D01*
X67379079Y29639366D01*
X67332492Y29533857D01*
X67332491Y29533852D01*
X67329500Y29508071D01*
X67329500Y28139500D01*
X67309498Y28071379D01*
X67255842Y28024886D01*
X67203500Y28013500D01*
X59487241Y28013500D01*
X59419120Y28033502D01*
X59398146Y28050405D01*
X59379847Y28068704D01*
X59345821Y28131016D01*
X59345363Y28133217D01*
X59332332Y28198727D01*
X59319683Y28262320D01*
X59312283Y28280184D01*
X59291785Y28329670D01*
X59290608Y28332511D01*
X59283019Y28403099D01*
X59314797Y28466586D01*
X59358796Y28497137D01*
X59423329Y28523867D01*
X59539370Y28601403D01*
X59638056Y28700089D01*
X59715592Y28816130D01*
X59769001Y28945069D01*
X59794681Y29074174D01*
X59827589Y29137082D01*
X59829108Y29138629D01*
X61350075Y30659595D01*
X61412387Y30693621D01*
X61439170Y30696500D01*
X67203500Y30696500D01*
X67271621Y30676498D01*
X67318114Y30622842D01*
X67329500Y30570500D01*
X67329500Y30431930D01*
X67332491Y30406149D01*
X67332492Y30406144D01*
X67379079Y30300635D01*
X67379080Y30300633D01*
X67460632Y30219081D01*
X67460634Y30219080D01*
X67460635Y30219079D01*
X67566145Y30172492D01*
X67591932Y30169501D01*
X67591935Y30169500D01*
X67591936Y30169500D01*
X69208065Y30169500D01*
X69208066Y30169501D01*
X69233855Y30172492D01*
X69339365Y30219079D01*
X69420921Y30300635D01*
X69467508Y30406145D01*
X69470500Y30431936D01*
X69470500Y31650827D01*
X69490502Y31718948D01*
X69544158Y31765441D01*
X69614432Y31775545D01*
X69679012Y31746051D01*
X69685595Y31739922D01*
X69832595Y31592922D01*
X69866621Y31530610D01*
X69869500Y31503827D01*
X69869500Y30431930D01*
X69872491Y30406149D01*
X69872492Y30406144D01*
X69919079Y30300635D01*
X69919080Y30300633D01*
X70000632Y30219081D01*
X70000634Y30219080D01*
X70000635Y30219079D01*
X70106145Y30172492D01*
X70131932Y30169501D01*
X70131935Y30169500D01*
X70131936Y30169500D01*
X71748065Y30169500D01*
X71748066Y30169501D01*
X71773855Y30172492D01*
X71879365Y30219079D01*
X71960921Y30300635D01*
X72007508Y30406145D01*
X72010500Y30431936D01*
X72010500Y32048064D01*
X72007508Y32073855D01*
X71960921Y32179365D01*
X71960920Y32179366D01*
X71960919Y32179368D01*
X71879367Y32260920D01*
X71879365Y32260921D01*
X71773856Y32307508D01*
X71773851Y32307509D01*
X71748070Y32310500D01*
X71748064Y32310500D01*
X70676173Y32310500D01*
X70608052Y32330502D01*
X70587078Y32347405D01*
X70186095Y32748388D01*
X70186083Y32748402D01*
X70079583Y32854902D01*
X70079573Y32854910D01*
X69996434Y32902910D01*
X69996434Y32902909D01*
X69957924Y32925143D01*
X69957922Y32925144D01*
X69957920Y32925145D01*
X69822240Y32961501D01*
X69822237Y32961501D01*
X69681763Y32961501D01*
X69674045Y32961501D01*
X69674029Y32961500D01*
X60670515Y32961500D01*
X60606712Y32944404D01*
X60534827Y32925143D01*
X60413176Y32854908D01*
X60413173Y32854906D01*
X60386626Y32828358D01*
X60313845Y32755577D01*
X58265364Y30707096D01*
X58203052Y30673070D01*
X58200852Y30672612D01*
X58095650Y30651686D01*
X58071748Y30646931D01*
X58071747Y30646931D01*
X58071739Y30646929D01*
X57942813Y30593525D01*
X57942809Y30593523D01*
X57826772Y30515989D01*
X57826765Y30515984D01*
X57728084Y30417303D01*
X57728079Y30417296D01*
X57650545Y30301259D01*
X57650543Y30301255D01*
X57597139Y30172328D01*
X57597137Y30172322D01*
X57597137Y30172320D01*
X57586084Y30116751D01*
X57569910Y30035442D01*
X53671910Y30035442D01*
X53671910Y32306667D01*
X53672988Y32323113D01*
X53673501Y32327010D01*
X53673501Y32475202D01*
X53673500Y32475220D01*
X53673500Y34114952D01*
X53693502Y34183073D01*
X53694735Y34184954D01*
X53721507Y34225021D01*
X53767864Y34294399D01*
X53821273Y34423338D01*
X53848500Y34560219D01*
X53848500Y34699781D01*
X53821273Y34836662D01*
X53812491Y34857864D01*
X53767866Y34965597D01*
X53767864Y34965601D01*
X53750154Y34992106D01*
X53690328Y35081642D01*
X53591642Y35180328D01*
X53532836Y35219621D01*
X53475600Y35257865D01*
X53475596Y35257867D01*
X53346669Y35311271D01*
X53346664Y35311272D01*
X53346662Y35311273D01*
X53263943Y35327727D01*
X53209783Y35338500D01*
X53209781Y35338500D01*
X53070219Y35338500D01*
X53070216Y35338500D01*
X52988974Y35322340D01*
X52933338Y35311273D01*
X52933336Y35311273D01*
X52933330Y35311271D01*
X52804403Y35257867D01*
X52804399Y35257865D01*
X52688362Y35180331D01*
X52688355Y35180326D01*
X52589674Y35081645D01*
X52589669Y35081638D01*
X52512135Y34965601D01*
X52512133Y34965597D01*
X52458729Y34836670D01*
X52458727Y34836664D01*
X52458727Y34836662D01*
X52447660Y34781026D01*
X52431500Y34699784D01*
X52123500Y34699784D01*
X52123500Y37473350D01*
X52123501Y37473363D01*
X52123501Y37623987D01*
X52123500Y37623991D01*
X52087143Y37759673D01*
X52087142Y37759676D01*
X52016909Y37881324D01*
X52016901Y37881334D01*
X51913188Y37985047D01*
X51913165Y37985068D01*
X50434095Y39464138D01*
X50434083Y39464152D01*
X50327583Y39570652D01*
X50327573Y39570660D01*
X50266749Y39605776D01*
X50266748Y39605776D01*
X50205921Y39640895D01*
X50070240Y39677251D01*
X50070237Y39677251D01*
X49929763Y39677251D01*
X49922045Y39677251D01*
X49922029Y39677250D01*
X47744591Y39677250D01*
X47676470Y39697252D01*
X47674584Y39698488D01*
X47672766Y39699703D01*
X47543837Y39753108D01*
X47543832Y39753109D01*
X47543830Y39753110D01*
X47461111Y39769564D01*
X47406951Y39780337D01*
X47406949Y39780337D01*
X47267387Y39780337D01*
X47267384Y39780337D01*
X47186142Y39764177D01*
X47130506Y39753110D01*
X47130504Y39753110D01*
X47130498Y39753108D01*
X47001571Y39699704D01*
X47001567Y39699702D01*
X46885530Y39622168D01*
X46885523Y39622163D01*
X46786842Y39523482D01*
X46786837Y39523475D01*
X46709303Y39407438D01*
X46709301Y39407434D01*
X46655897Y39278507D01*
X46628668Y39141621D01*
X46628668Y39141618D01*
X46628668Y39002056D01*
X46655895Y38865175D01*
X46655896Y38865173D01*
X46655897Y38865168D01*
X46709301Y38736241D01*
X46709303Y38736237D01*
X46709304Y38736236D01*
X46786840Y38620195D01*
X46885526Y38521509D01*
X47001567Y38443973D01*
X47001571Y38443971D01*
X47130498Y38390567D01*
X47130499Y38390567D01*
X47130506Y38390564D01*
X47267387Y38363337D01*
X47267388Y38363337D01*
X47406948Y38363337D01*
X47406949Y38363337D01*
X47543830Y38390564D01*
X47672769Y38443973D01*
X47788810Y38521509D01*
X47840646Y38573345D01*
X47902958Y38607371D01*
X47929741Y38610250D01*
X49726827Y38610250D01*
X49794948Y38590248D01*
X49815922Y38573345D01*
X51019595Y37369672D01*
X51053621Y37307360D01*
X51056500Y37280577D01*
X51056500Y33232046D01*
X51036498Y33163925D01*
X51019598Y33142955D01*
X50990635Y33113991D01*
X50987488Y33110844D01*
X50925175Y33076820D01*
X50922977Y33076362D01*
X50817775Y33055436D01*
X50793873Y33050681D01*
X50793872Y33050681D01*
X50793864Y33050679D01*
X50664938Y32997275D01*
X50664934Y32997273D01*
X50548897Y32919739D01*
X50548890Y32919734D01*
X50542860Y32913703D01*
X50480548Y32879677D01*
X50409733Y32884742D01*
X50352897Y32927289D01*
X50328086Y32993809D01*
X50327765Y33002798D01*
X50327765Y35178264D01*
X50327765Y35178265D01*
X50299926Y35282160D01*
X50267013Y35339167D01*
X50246148Y35375307D01*
X50246144Y35375312D01*
X50213302Y35408154D01*
X50170090Y35451366D01*
X50045168Y35576288D01*
X50011142Y35638600D01*
X50009454Y35667779D01*
X50008500Y35667779D01*
X50008500Y35813530D01*
X50008499Y35813534D01*
X50007828Y35816907D01*
X49981273Y35950412D01*
X49977134Y35960405D01*
X49927866Y36079347D01*
X49927864Y36079351D01*
X49917144Y36095395D01*
X49850328Y36195392D01*
X49751642Y36294078D01*
X49692836Y36333371D01*
X49635600Y36371615D01*
X49635596Y36371617D01*
X49506669Y36425021D01*
X49506664Y36425022D01*
X49506662Y36425023D01*
X49423943Y36441477D01*
X49369783Y36452250D01*
X49369781Y36452250D01*
X49230219Y36452250D01*
X49230216Y36452250D01*
X49148974Y36436090D01*
X49093338Y36425023D01*
X49093336Y36425023D01*
X49093330Y36425021D01*
X48964403Y36371617D01*
X48964399Y36371615D01*
X48848362Y36294081D01*
X48848355Y36294076D01*
X48749674Y36195395D01*
X48749669Y36195388D01*
X48672135Y36079351D01*
X48672133Y36079347D01*
X48618729Y35950420D01*
X48591500Y35813534D01*
X48591500Y35673967D01*
X48598535Y35638600D01*
X48618727Y35537088D01*
X48618728Y35537086D01*
X48618729Y35537081D01*
X48672133Y35408154D01*
X48672135Y35408150D01*
X48672136Y35408149D01*
X48749672Y35292108D01*
X48848358Y35193422D01*
X48884512Y35169265D01*
X48930039Y35114789D01*
X48938888Y35044346D01*
X48908247Y34980302D01*
X48847846Y34942990D01*
X48826278Y34940086D01*
X48826375Y34939106D01*
X48820216Y34938500D01*
X48738974Y34922340D01*
X48683338Y34911273D01*
X48683336Y34911273D01*
X48683330Y34911271D01*
X48554403Y34857867D01*
X48554399Y34857865D01*
X48438362Y34780331D01*
X48438355Y34780326D01*
X48339674Y34681645D01*
X48339669Y34681638D01*
X48262135Y34565601D01*
X48262133Y34565597D01*
X48208729Y34436670D01*
X48208727Y34436664D01*
X48208727Y34436662D01*
X48201697Y34401318D01*
X48181500Y34299784D01*
X48181500Y34160217D01*
X48195113Y34091779D01*
X48208727Y34023338D01*
X48220304Y33995388D01*
X48221909Y33991515D01*
X48231500Y33943297D01*
X48231500Y30409381D01*
X48231499Y30409381D01*
X48259339Y30305484D01*
X48313116Y30212338D01*
X48313117Y30212337D01*
X48313119Y30212334D01*
X48473097Y30052356D01*
X48507121Y29990046D01*
X48508817Y29960864D01*
X48509765Y29960864D01*
X48509765Y29815111D01*
X48513582Y29795922D01*
X48536992Y29678232D01*
X48536993Y29678230D01*
X48536994Y29678225D01*
X48590398Y29549298D01*
X48590400Y29549294D01*
X48590401Y29549293D01*
X48667937Y29433252D01*
X48667939Y29433250D01*
X48708492Y29392697D01*
X48742518Y29330385D01*
X48737453Y29259570D01*
X48724164Y29233602D01*
X48712133Y29215597D01*
X48658729Y29086670D01*
X48658727Y29086664D01*
X48658727Y29086662D01*
X48656243Y29074173D01*
X48631500Y28949784D01*
X48631500Y28810217D01*
X48639370Y28770654D01*
X48655595Y28689080D01*
X48649268Y28618368D01*
X48605714Y28562300D01*
X48538762Y28538681D01*
X48532017Y28538500D01*
X48420211Y28538500D01*
X48406654Y28535803D01*
X48335940Y28542134D01*
X48279875Y28585691D01*
X48256258Y28652644D01*
X48258058Y28677789D01*
X48257893Y28677805D01*
X48258500Y28683972D01*
X48258500Y28823530D01*
X48258499Y28823534D01*
X48255920Y28836501D01*
X48231273Y28960412D01*
X48231270Y28960420D01*
X48177866Y29089347D01*
X48177864Y29089351D01*
X48144899Y29138686D01*
X48100328Y29205392D01*
X48001642Y29304078D01*
X47885601Y29381614D01*
X47885602Y29381614D01*
X47885600Y29381615D01*
X47885596Y29381617D01*
X47756669Y29435021D01*
X47756664Y29435022D01*
X47756662Y29435023D01*
X47662630Y29453727D01*
X47619783Y29462250D01*
X47619781Y29462250D01*
X47480219Y29462250D01*
X47480214Y29462250D01*
X47459325Y29458095D01*
X47388611Y29464426D01*
X47345653Y29492580D01*
X47074095Y29764138D01*
X47074083Y29764152D01*
X46967583Y29870652D01*
X46967573Y29870660D01*
X46906749Y29905776D01*
X46906748Y29905776D01*
X46899842Y29909763D01*
X46857863Y29934000D01*
X46845921Y29940895D01*
X46710240Y29977251D01*
X46710237Y29977251D01*
X46569763Y29977251D01*
X46562045Y29977251D01*
X46562029Y29977250D01*
X40077971Y29977250D01*
X40077955Y29977251D01*
X40070237Y29977251D01*
X39929763Y29977251D01*
X39929759Y29977251D01*
X39794080Y29940895D01*
X39794075Y29940893D01*
X39761480Y29922076D01*
X39761481Y29922075D01*
X39672423Y29870658D01*
X39672416Y29870652D01*
X39649452Y29847687D01*
X39587140Y29813661D01*
X39584939Y29813203D01*
X39515548Y29799400D01*
X39455838Y29787523D01*
X39455836Y29787523D01*
X39455830Y29787521D01*
X39326903Y29734117D01*
X39326899Y29734115D01*
X39210862Y29656581D01*
X39210855Y29656576D01*
X39112174Y29557895D01*
X39112169Y29557888D01*
X39034635Y29441851D01*
X39034633Y29441847D01*
X38981229Y29312920D01*
X38981227Y29312914D01*
X38981227Y29312912D01*
X38978975Y29301590D01*
X38954000Y29176034D01*
X34130570Y29176034D01*
X34152864Y29209399D01*
X34206273Y29338338D01*
X34233500Y29475219D01*
X34233500Y29614781D01*
X34206273Y29751662D01*
X34203235Y29758996D01*
X34152866Y29880597D01*
X34152864Y29880601D01*
X34140169Y29899600D01*
X34075328Y29996642D01*
X33976642Y30095328D01*
X33906393Y30142267D01*
X33860600Y30172865D01*
X33860596Y30172867D01*
X33731669Y30226271D01*
X33731664Y30226272D01*
X33731662Y30226273D01*
X33648943Y30242727D01*
X33594783Y30253500D01*
X33594781Y30253500D01*
X33455219Y30253500D01*
X33455216Y30253500D01*
X33373974Y30237340D01*
X33318338Y30226273D01*
X33318336Y30226273D01*
X33318330Y30226271D01*
X33189403Y30172867D01*
X33189399Y30172865D01*
X33073362Y30095331D01*
X33073355Y30095326D01*
X32974674Y29996645D01*
X32974669Y29996638D01*
X32897135Y29880601D01*
X32897133Y29880597D01*
X32843729Y29751670D01*
X32843727Y29751664D01*
X32843727Y29751662D01*
X32838434Y29725051D01*
X32816500Y29614784D01*
X30166754Y29614784D01*
X30235328Y29683358D01*
X30312864Y29799399D01*
X30366273Y29928338D01*
X30393500Y30065219D01*
X30393500Y30204781D01*
X30366273Y30341662D01*
X30366182Y30341882D01*
X30353591Y30372281D01*
X30346001Y30442871D01*
X30377780Y30506358D01*
X30438837Y30542586D01*
X30469999Y30546500D01*
X37458279Y30546500D01*
X37458295Y30546499D01*
X37466013Y30546499D01*
X37606487Y30546499D01*
X37742174Y30582857D01*
X37807952Y30620834D01*
X37863827Y30653093D01*
X37963157Y30752423D01*
X37973524Y30762790D01*
X37973531Y30762800D01*
X40009078Y32798345D01*
X40071390Y32832371D01*
X40098173Y32835250D01*
X40169780Y32835250D01*
X40169781Y32835250D01*
X40306662Y32862477D01*
X40435601Y32915886D01*
X40551642Y32993422D01*
X40650328Y33092108D01*
X40727864Y33208149D01*
X40781273Y33337088D01*
X40808500Y33473969D01*
X40808500Y33613531D01*
X40781273Y33750412D01*
X40781270Y33750420D01*
X40727866Y33879347D01*
X40727864Y33879351D01*
X40708812Y33907864D01*
X40650328Y33995392D01*
X40551642Y34094078D01*
X40435601Y34171614D01*
X40435602Y34171614D01*
X40435600Y34171615D01*
X40435596Y34171617D01*
X40306669Y34225021D01*
X40306664Y34225022D01*
X40306662Y34225023D01*
X40223943Y34241477D01*
X40169783Y34252250D01*
X40169781Y34252250D01*
X40030219Y34252250D01*
X40030216Y34252250D01*
X39948974Y34236090D01*
X39893338Y34225023D01*
X39893336Y34225023D01*
X39893330Y34225021D01*
X39764403Y34171617D01*
X39764399Y34171615D01*
X39648362Y34094081D01*
X39648355Y34094076D01*
X39549674Y33995395D01*
X39549669Y33995388D01*
X39472136Y33879351D01*
X39418726Y33750410D01*
X39418724Y33750403D01*
X39417875Y33746134D01*
X39384964Y33683227D01*
X39383393Y33681628D01*
X37676095Y31974329D01*
X37613783Y31940304D01*
X37542968Y31945368D01*
X37486132Y31987915D01*
X37461321Y32054435D01*
X37461000Y32063424D01*
X37461000Y32149780D01*
X37460999Y32149784D01*
X37455115Y32179366D01*
X37433773Y32286662D01*
X37433770Y32286670D01*
X37380366Y32415597D01*
X37380364Y32415601D01*
X37346759Y32465894D01*
X37302828Y32531642D01*
X37204142Y32630328D01*
X37139849Y32673287D01*
X37088100Y32707865D01*
X37088096Y32707867D01*
X36959169Y32761271D01*
X36959164Y32761272D01*
X36959162Y32761273D01*
X36876443Y32777727D01*
X36822283Y32788500D01*
X36822281Y32788500D01*
X36735497Y32788500D01*
X36667376Y32808502D01*
X36620883Y32862158D01*
X36610779Y32932432D01*
X36611918Y32939082D01*
X36616377Y32961500D01*
X36638500Y33072719D01*
X36638500Y33212281D01*
X36611273Y33349162D01*
X36611017Y33349781D01*
X36557866Y33478097D01*
X36557861Y33478106D01*
X36484735Y33587548D01*
X36463520Y33655300D01*
X36463500Y33657549D01*
X36463500Y33889600D01*
X36463501Y33889613D01*
X36463501Y34040237D01*
X36463500Y34040241D01*
X36427144Y34175922D01*
X36423015Y34183073D01*
X36383076Y34252250D01*
X36356907Y34297577D01*
X36356902Y34297582D01*
X36356900Y34297585D01*
X36253188Y34401297D01*
X36253165Y34401318D01*
X34944095Y35710388D01*
X34944083Y35710402D01*
X34837583Y35816902D01*
X34837573Y35816910D01*
X34776749Y35852026D01*
X34776748Y35852026D01*
X34715921Y35887145D01*
X34580240Y35923501D01*
X34580237Y35923501D01*
X34439763Y35923501D01*
X34432045Y35923501D01*
X34432029Y35923500D01*
X32374410Y35923500D01*
X32306289Y35943502D01*
X32285315Y35960405D01*
X32251644Y35994076D01*
X32251642Y35994078D01*
X32137035Y36070656D01*
X32135600Y36071615D01*
X32135596Y36071617D01*
X32006669Y36125021D01*
X32006664Y36125022D01*
X32006662Y36125023D01*
X31923943Y36141477D01*
X31869783Y36152250D01*
X31869781Y36152250D01*
X31730219Y36152250D01*
X31730216Y36152250D01*
X31648974Y36136090D01*
X31593338Y36125023D01*
X31593336Y36125023D01*
X31593330Y36125021D01*
X31464403Y36071617D01*
X31464399Y36071615D01*
X31348362Y35994081D01*
X31348355Y35994076D01*
X31249674Y35895395D01*
X31249669Y35895388D01*
X31172135Y35779351D01*
X31172133Y35779347D01*
X31118729Y35650420D01*
X31118727Y35650414D01*
X31118727Y35650412D01*
X31113290Y35623079D01*
X31091500Y35513534D01*
X31091500Y35513531D01*
X31091500Y35373969D01*
X31118727Y35237088D01*
X31118728Y35237086D01*
X31118729Y35237081D01*
X31172133Y35108154D01*
X31172135Y35108150D01*
X31172136Y35108149D01*
X31249672Y34992108D01*
X31348358Y34893422D01*
X31433551Y34836498D01*
X31464399Y34815886D01*
X31464403Y34815884D01*
X31593330Y34762480D01*
X31593331Y34762480D01*
X31593338Y34762477D01*
X31730219Y34735250D01*
X31730220Y34735250D01*
X31869780Y34735250D01*
X31869781Y34735250D01*
X32006662Y34762477D01*
X32135601Y34815886D01*
X32164605Y34835267D01*
X32232358Y34856480D01*
X32234606Y34856500D01*
X34236827Y34856500D01*
X34304948Y34836498D01*
X34325922Y34819595D01*
X35359595Y33785922D01*
X35393621Y33723610D01*
X35396500Y33696827D01*
X35396500Y33657549D01*
X35376498Y33589428D01*
X35375265Y33587548D01*
X35302138Y33478106D01*
X35302133Y33478097D01*
X35248729Y33349170D01*
X35248727Y33349164D01*
X35248727Y33349162D01*
X35246324Y33337081D01*
X35221500Y33212284D01*
X35221500Y33072717D01*
X35225884Y33050679D01*
X35248727Y32935838D01*
X35248728Y32935836D01*
X35248729Y32935831D01*
X35302133Y32806904D01*
X35305053Y32801442D01*
X35303225Y32800466D01*
X35321612Y32741754D01*
X35302832Y32673287D01*
X35250016Y32625841D01*
X35195632Y32613500D01*
X31088173Y32613500D01*
X31020052Y32633502D01*
X30999078Y32650405D01*
X28571642Y35077841D01*
X28539032Y35134321D01*
X28523196Y35193422D01*
X28523195Y35193426D01*
X28523195Y35193428D01*
X28512143Y35234672D01*
X28512143Y35234673D01*
X28441907Y35356327D01*
X28441904Y35356330D01*
X28441901Y35356334D01*
X28338188Y35460047D01*
X28338165Y35460068D01*
X28141437Y35656796D01*
X28107411Y35719108D01*
X28106953Y35721309D01*
X28104906Y35731600D01*
X28081273Y35850412D01*
X28080605Y35852025D01*
X28027866Y35979347D01*
X28027864Y35979351D01*
X27966853Y36070660D01*
X27950328Y36095392D01*
X27851642Y36194078D01*
X27735601Y36271614D01*
X27735602Y36271614D01*
X27735600Y36271615D01*
X27735596Y36271617D01*
X27606669Y36325021D01*
X27606664Y36325022D01*
X27606662Y36325023D01*
X27523943Y36341477D01*
X27469783Y36352250D01*
X27469781Y36352250D01*
X27330219Y36352250D01*
X27330216Y36352250D01*
X27248974Y36336090D01*
X27193338Y36325023D01*
X27193336Y36325023D01*
X27193330Y36325021D01*
X27064403Y36271617D01*
X27064394Y36271612D01*
X26954952Y36198485D01*
X26887200Y36177270D01*
X26884951Y36177250D01*
X23377971Y36177250D01*
X23377955Y36177251D01*
X23370237Y36177251D01*
X23229763Y36177251D01*
X23229759Y36177251D01*
X23094077Y36140894D01*
X23075257Y36130028D01*
X23049548Y36115185D01*
X22972426Y36070660D01*
X22972421Y36070656D01*
X22922757Y36020992D01*
X22873093Y35971327D01*
X22873091Y35971325D01*
X20372425Y33470659D01*
X20372423Y33470657D01*
X20346354Y33444588D01*
X20273094Y33371329D01*
X20273092Y33371326D01*
X20237976Y33310501D01*
X20237975Y33310500D01*
X20202855Y33249672D01*
X20166499Y33113991D01*
X5830500Y33113991D01*
X5830500Y44803500D01*
X5850502Y44871621D01*
X5904158Y44918114D01*
X5956500Y44929500D01*
X75323500Y44929500D01*
X75391621Y44909498D01*
G37*
%TD.AperFunction*%
%TD*%
M02*
