M48
; DRILL file KiCad 10.0.5-unknown-202607221313~667fa36054~ubuntu25.10.1 date 2026-08-12T15:14:13
; FORMAT={3:3/ absolute / metric / suppress leading zeros}
; #@! TF.CreationDate,2026-08-12T15:14:13+00:00
; #@! TF.GenerationSoftware,Kicad,Pcbnew,10.0.5-unknown-202607221313~667fa36054~ubuntu25.10.1
; #@! TF.FileFunction,Plated,1,2,PTH
FMAT,2
METRIC,TZ
; #@! TA.AperFunction,Plated,PTH,ViaDrill
T1C0.400
; #@! TA.AperFunction,Plated,PTH,ComponentDrill
T2C0.889
; #@! TA.AperFunction,Plated,PTH,ComponentDrill
T3C1.500
; #@! TA.AperFunction,Plated,PTH,ComponentDrill
T4C1.700
; #@! TA.AperFunction,Plated,PTH,ComponentDrill
T5C3.000
%
G90
G05
T1
X6790Y21380
X13240Y14630
X13390Y35330
X13990Y43330
X21990Y15930
X22100Y31644
X22153Y30642
X23600Y25744
X24740Y33280
X25240Y8580
X25400Y20744
X26890Y41780
X27400Y35644
X27740Y24080
X29685Y30135
X30900Y28044
X31800Y35444
X33340Y25993
X33525Y29545
X33679Y18569
X34840Y21330
X35930Y33142
X36753Y32080
X38500Y24680
X39663Y29106
X40100Y33544
X44740Y15330
X44990Y41480
X45900Y27144
X45900Y26044
X45900Y21344
X47040Y8280
X47337Y39072
X47550Y28754
X48490Y27830
X48890Y34230
X49218Y29885
X49300Y35744
X49340Y28880
X49690Y25730
X50740Y33980
X50901Y25069
X51001Y32369
X53140Y34630
X53188Y15466
X55088Y15566
X56328Y16876
X57290Y41180
X58108Y26296
X58278Y29966
X58618Y20046
X58638Y28056
X59088Y29152
X63890Y30080
X64640Y14330
X65040Y36730
X74190Y23630
X74340Y33130
T2
X10270Y17930
X12810Y17930
X58750Y10000
X58750Y7460
X61290Y10000
X61290Y7460
X63830Y10000
X63830Y7460
X68400Y33780
X68400Y31240
X68400Y28700
X68400Y26160
X68400Y23620
X68400Y21080
X68400Y18540
X68400Y16000
X70940Y33780
X70940Y31240
X70940Y28700
X70940Y26160
X70940Y23620
X70940Y21080
X70940Y18540
X70940Y16000
T3
X10690Y29830
T4
X8150Y32370
X8150Y27290
X13230Y32370
X13230Y27290
T5
X10160Y40640
X10160Y10160
X70860Y40640
X70860Y10160
M30
